<?xml version="1.0" encoding="UTF-8" standalone="no"?>
<svg
   width="851.815156pt"
   height="133.556608pt"
   viewBox="0 0 851.815156 133.556608"
   version="1.1"
   id="svg292"
   sodipodi:docname="champion-geometries.svg"
   inkscape:version="1.4.2 (f4327f4, 2025-05-13)"
   xmlns:inkscape="http://www.inkscape.org/namespaces/inkscape"
   xmlns:sodipodi="http://sodipodi.sourceforge.net/DTD/sodipodi-0.dtd"
   xmlns:xlink="http://www.w3.org/1999/xlink"
   xmlns="http://www.w3.org/2000/svg"
   xmlns:svg="http://www.w3.org/2000/svg"
   xmlns:rdf="http://www.w3.org/1999/02/22-rdf-syntax-ns#"
   xmlns:cc="http://creativecommons.org/ns#"
   xmlns:dc="http://purl.org/dc/elements/1.1/">
  <sodipodi:namedview
     id="namedview292"
     pagecolor="#ffffff"
     bordercolor="#000000"
     borderopacity="0.25"
     inkscape:showpageshadow="2"
     inkscape:pageopacity="0.0"
     inkscape:pagecheckerboard="0"
     inkscape:deskcolor="#d1d1d1"
     inkscape:document-units="pt"
     inkscape:zoom="0.78185971"
     inkscape:cx="477.06768"
     inkscape:cy="102.95965"
     inkscape:window-width="1920"
     inkscape:window-height="1057"
     inkscape:window-x="-8"
     inkscape:window-y="-8"
     inkscape:window-maximized="1"
     inkscape:current-layer="svg292"
     inkscape:export-bgcolor="#ffffffff" />
  <metadata
     id="metadata1">
    <rdf:RDF>
      <cc:Work>
        <dc:type
           rdf:resource="http://purl.org/dc/dcmitype/StillImage" />
        <dc:date>2026-06-02T13:40:50.987717</dc:date>
        <dc:format>image/svg+xml</dc:format>
        <dc:creator>
          <cc:Agent>
            <dc:title>Matplotlib v3.10.0, https://matplotlib.org/</dc:title>
          </cc:Agent>
        </dc:creator>
      </cc:Work>
    </rdf:RDF>
  </metadata>
  <defs
     id="defs1">
    <style
       type="text/css"
       id="style1">*{stroke-linejoin: round; stroke-linecap: butt}</style>
  </defs>
  <g
     id="figure_1"
     inkscape:export-filename="champion-geometries.png"
     inkscape:export-xdpi="300"
     inkscape:export-ydpi="300">
    <g
       id="patch_1"
       transform="scale(0.90205615,1)">
      <path
         d="M 0,133.55661 H 851.81516 V 0 H 0 Z"
         style="fill:#ffffff"
         id="path1" />
    </g>
    <g
       id="axes_1">
      <g
         id="patch_2">
        <path
           d="M 50.672656 87.758951  L 500.672656 87.758951  L 500.672656 23.072187  L 50.672656 23.072187  z "
           style="fill: #fbfbfc"
           id="path2" />
      </g>
      <g
         id="line2d_1">
        <path
           d="M 480.218111 75.054551  L 468.578204 71.09707  L 455.587868 66.90016  L 441.338014 62.556664  L 427.851303 58.69135  L 412.655716 54.61704  L 400.230867 51.503525  L 387.005344 48.402423  L 373.05793 45.36838  L 358.472772 42.454093  L 343.338967 39.709522  L 327.750118 37.181171  L 311.803831 34.91141  L 301.024189 33.560683  L 290.161246 32.351551  L 279.246182 31.292715  L 268.310581 30.391668  L 257.386333 29.654616  L 246.505533 29.086417  L 235.700372 28.69052  L 224.792015 28.529761  L 214.007867 28.678922  L 203.397893 29.130656  L 192.997467 29.874207  L 182.841338 30.895815  L 172.963393 32.178886  L 163.396427 33.704206  L 154.171931 35.450193  L 145.319893 37.393189  L 136.868628 39.507791  L 128.844629 41.7672  L 121.272453 44.143601  L 114.174626 46.608555  L 107.571592 49.133402  L 101.481676 51.689664  L 95.921077 54.249456  L 90.903889 56.785872  L 86.442135 59.273371  L 82.545813 61.688133  L 79.222963 64.008397  L 76.479731 66.214758  L 74.320434 68.290441  L 72.747634 70.22153  L 71.762189 71.997152  L 71.489542 72.824134  L 71.363312 73.609625  L 71.383149 74.353176  L 71.548605 75.054551  L 71.856465 75.706096  L 72.303415 76.30032  L 72.88871 76.837482  L 73.611504 77.317956  L 75.465715 78.110935  L 77.857346 78.684599  L 80.776207 79.046096  L 84.210704 79.20432  L 88.147937 79.169828  L 92.573818 78.954759  L 100.095437 78.323742  L 108.627236 77.369026  L 121.47251 75.692953  L 164.303445 69.909462  L 177.590914 68.357577  L 191.440453 66.948116  L 205.783236 65.746795  L 220.548599 64.814489  L 230.590957 64.369559  L 246.130795 63.930502  L 267.277089 63.526062  L 288.558017 63.354066  L 309.746747 63.445568  L 330.613421 63.812232  L 350.927716 64.446073  L 370.461644 65.320678  L 388.992461 66.393725  L 406.305586 67.610478  L 425.925822 69.237012  L 446.027332 71.170677  L 466.103298 73.363049  L 480.218111 75.054551  L 480.218111 75.054551  "
           clip-path="url(#p2b750edd5e)"
           style="fill: none; stroke: #1f4e8c; stroke-opacity: 0.7; stroke-linecap: square"
           id="path3" />
      </g>
      <g
         id="line2d_2">
        <path
           d="M 480.218111 75.054551  L 464.625688 71.27032  L 447.141906 67.251284  L 431.058323 63.755204  L 412.274527 59.907903  L 395.513013 56.684044  L 377.404906 53.419622  L 358.147554 50.196049  L 337.952367 47.092627  L 322.324439 44.889923  L 306.392154 42.828519  L 290.255718 40.937613  L 274.017141 39.244526  L 257.779599 37.774289  L 241.646776 36.549159  L 225.722175 35.588083  L 210.108397 34.906139  L 194.906405 34.514003  L 180.214759 34.417479  L 166.12885 34.617159  L 152.679897 35.109187  L 147.916557 35.409446  L 143.266368 35.852113  L 138.734781 36.428567  L 134.326865 37.129906  L 130.047294 37.947013  L 125.900344 38.870619  L 121.889895 39.891355  L 118.01944 40.999818  L 110.710631 43.442414  L 103.994683 46.124278  L 97.887258 48.973611  L 92.399587 51.92208  L 87.539119 54.905739  L 83.310115 57.865784  L 79.714147 60.749167  L 76.750501 63.509112  L 74.416488 66.10554  L 72.707663 68.505419  L 71.617964 70.68305  L 71.302968 71.682549  L 71.139779 72.620274  L 71.127202 73.495158  L 71.263943 74.306617  L 71.548605 75.054551  L 71.975671 75.731314  L 72.539526 76.329682  L 73.238473 76.850817  L 74.070724 77.296238  L 75.034391 77.66781  L 77.347921 78.198546  L 80.161967 78.464538  L 83.457859 78.492197  L 87.215462 78.312383  L 93.670424 77.730666  L 121.355038 74.747183  L 127.866412 74.28637  L 134.65994 73.974678  L 141.723466 73.855936  L 149.048889 73.973639  L 170.483871 74.839174  L 189.379476 75.299365  L 209.232112 75.551688  L 235.067665 75.639916  L 272.355307 75.494466  L 384.855741 74.849796  L 433.386005 74.871571  L 480.218111 75.054551  L 480.218111 75.054551  "
           clip-path="url(#p2b750edd5e)"
           style="fill: none; stroke: #a23737; stroke-opacity: 0.7; stroke-linecap: square"
           id="path4" />
      </g>
      <g
         id="line2d_3">
        <path
           d="M 480.218111 75.054551  L 466.697972 70.698232  L 452.913065 66.474272  L 438.04893 62.160046  L 424.114223 58.33754  L 408.518239 54.309644  L 395.828945 51.225046  L 382.372935 48.141177  L 368.231495 45.106755  L 353.490844 42.16876  L 338.241672 39.371782  L 322.578636 36.757437  L 306.599829 34.363811  L 290.406221 32.224934  L 274.101052 30.370272  L 257.789201 28.82423  L 241.576484 27.605685  L 225.568916 26.727564  L 215.063281 26.334809  L 204.726613 26.096777  L 194.589417 26.012495  L 189.344752 26.066081  L 184.140693 26.247776  L 179.007669 26.553788  L 173.95078 26.979614  L 168.974999 27.520424  L 164.085147 28.171086  L 159.285892 28.92619  L 149.976965 30.726864  L 141.081973 32.874675  L 132.631607 35.31919  L 124.653416 38.008218  L 117.171804 40.888681  L 110.208123 43.907436  L 103.780796 47.012062  L 97.905482 50.151575  L 92.595253 53.277103  L 87.860772 56.342495  L 83.710471 59.30488  L 80.150707 62.125179  L 77.185911 64.768549  L 74.81871 67.204792  L 73.050024 69.408689  L 71.87915 71.360292  L 71.51724 72.236745  L 71.303807 73.045141  L 71.238322 73.784557  L 71.320162 74.454428  L 71.548605 75.054551  L 71.919452 75.578748  L 72.428405 76.021156  L 73.074445 76.382524  L 73.856452 76.66387  L 75.823382 76.9919  L 78.318221 77.01865  L 81.328422 76.761542  L 84.839934 76.241787  L 91.012997 75.024664  L 100.843942 72.739111  L 122.023132 67.68038  L 132.475686 65.425455  L 143.658831 63.306572  L 151.489711 62.033548  L 159.601096 60.915975  L 167.977239 59.990293  L 176.603526 59.291738  L 185.466349 58.854177  L 194.578071 58.709638  L 229.953746 58.790902  L 256.27025 59.056976  L 277.618928 59.462499  L 298.98165 60.070484  L 320.1256 60.892924  L 340.817457 61.925141  L 360.826122 63.146323  L 379.92551 64.521281  L 402.189519 66.38402  L 422.290107 68.304564  L 443.03902 70.519912  L 464.089476 73.001123  L 480.218111 75.054551  L 480.218111 75.054551  "
           clip-path="url(#p2b750edd5e)"
           style="fill: none; stroke: #196b3a; stroke-opacity: 0.7; stroke-linecap: square"
           id="path5" />
      </g>
      <g
         id="matplotlib.axis_1">
        <g
           id="xtick_1">
          <g
             id="line2d_4">
            <path
               d="M 71.548605 87.758951  L 71.548605 23.072187  "
               clip-path="url(#p2b750edd5e)"
               style="fill: none; stroke-dasharray: 2.96,1.28; stroke-dashoffset: 0; stroke: #999999; stroke-opacity: 0.28; stroke-width: 0.8"
               id="path6" />
          </g>
          <g
             id="line2d_5">
            <defs
               id="defs6">
              <path
                 id="m0d282e18a2"
                 d="M 0 0  L 0 3.5  "
                 style="stroke: #000000; stroke-width: 0.8" />
            </defs>
            <g
               id="g6">
              <use
                 xlink:href="#m0d282e18a2"
                 x="71.548605"
                 y="87.758951"
                 style="stroke: #000000; stroke-width: 0.8"
                 id="use6" />
            </g>
          </g>
          <g
             id="text_1">
            <!-- 0.0 -->
            <g
               transform="translate(63.562277 103.43278) scale(0.125 -0.125)"
               id="g9">
              <defs
                 id="defs7">
                <path
                   id="CMUSerif-Roman-30"
                   d="M 250 2047  Q 250 2988 488 3500  Q 819 4263 1600 4263  Q 1766 4263 1939 4217  Q 2113 4172 2333 4000  Q 2553 3828 2688 3547  Q 2944 3003 2944 2047  Q 2944 1113 2706 603  Q 2359 -141 1594 -141  Q 1306 -141 1014 6  Q 722 153 538 506  Q 250 1034 250 2047  z M 781 2125  Q 781 1159 850 775  Q 928 359 1142 179  Q 1356 0 1594 0  Q 1850 0 2064 192  Q 2278 384 2344 800  Q 2416 1209 2413 2125  Q 2413 3016 2350 3372  Q 2266 3788 2042 3955  Q 1819 4122 1594 4122  Q 1509 4122 1420 4097  Q 1331 4072 1203 4000  Q 1075 3928 976 3750  Q 878 3572 831 3303  Q 781 2956 781 2125  z "
                   transform="scale(0.015625)" />
                <path
                   id="CMUSerif-Roman-2e"
                   d="M 641 103  Q 544 206 544 340  Q 544 475 641 573  Q 738 672 884 672  Q 1025 672 1120 580  Q 1216 488 1216 339  Q 1216 191 1114 95  Q 1013 0 884 0  Q 738 0 641 103  z "
                   transform="scale(0.015625)" />
              </defs>
              <use
                 xlink:href="#CMUSerif-Roman-30"
                 id="use7" />
              <use
                 xlink:href="#CMUSerif-Roman-2e"
                 transform="translate(50 0)"
                 id="use8" />
              <use
                 xlink:href="#CMUSerif-Roman-30"
                 transform="translate(77.783203 0)"
                 id="use9" />
            </g>
          </g>
        </g>
        <g
           id="xtick_2">
          <g
             id="line2d_6">
            <path
               d="M 153.282506 87.758951  L 153.282506 23.072187  "
               clip-path="url(#p2b750edd5e)"
               style="fill: none; stroke-dasharray: 2.96,1.28; stroke-dashoffset: 0; stroke: #999999; stroke-opacity: 0.28; stroke-width: 0.8"
               id="path9" />
          </g>
          <g
             id="line2d_7">
            <g
               id="g10">
              <use
                 xlink:href="#m0d282e18a2"
                 x="153.282506"
                 y="87.758951"
                 style="stroke: #000000; stroke-width: 0.8"
                 id="use10" />
            </g>
          </g>
          <g
             id="text_2">
            <!-- 0.2 -->
            <g
               transform="translate(145.296178 103.43278) scale(0.125 -0.125)"
               id="g13">
              <defs
                 id="defs10">
                <path
                   id="CMUSerif-Roman-32"
                   d="M 319 0  Q 319 116 330 150  Q 341 184 391 238  L 1619 1606  Q 2291 2363 2291 3022  Q 2291 3450 2067 3756  Q 1844 4063 1434 4063  Q 1153 4063 915 3891  Q 678 3719 569 3413  Q 588 3419 653 3419  Q 813 3419 902 3319  Q 991 3219 991 3084  Q 991 2913 880 2830  Q 769 2747 659 2747  Q 616 2747 558 2756  Q 500 2766 409 2855  Q 319 2944 319 3103  Q 319 3550 658 3906  Q 997 4263 1516 4263  Q 2103 4263 2489 3914  Q 2875 3566 2875 3022  Q 2875 2831 2817 2657  Q 2759 2484 2682 2350  Q 2606 2216 2400 2000  Q 2194 1784 2028 1631  Q 1863 1478 1491 1153  L 813 494  L 1966 494  Q 2528 494 2572 544  Q 2634 634 2713 1113  L 2875 1113  L 2694 0  L 319 0  z "
                   transform="scale(0.015625)" />
              </defs>
              <use
                 xlink:href="#CMUSerif-Roman-30"
                 id="use11" />
              <use
                 xlink:href="#CMUSerif-Roman-2e"
                 transform="translate(50 0)"
                 id="use12" />
              <use
                 xlink:href="#CMUSerif-Roman-32"
                 transform="translate(77.783203 0)"
                 id="use13" />
            </g>
          </g>
        </g>
        <g
           id="xtick_3">
          <g
             id="line2d_8">
            <path
               d="M 235.016407 87.758951  L 235.016407 23.072187  "
               clip-path="url(#p2b750edd5e)"
               style="fill: none; stroke-dasharray: 2.96,1.28; stroke-dashoffset: 0; stroke: #999999; stroke-opacity: 0.28; stroke-width: 0.8"
               id="path13" />
          </g>
          <g
             id="line2d_9">
            <g
               id="g14">
              <use
                 xlink:href="#m0d282e18a2"
                 x="235.016407"
                 y="87.758951"
                 style="stroke: #000000; stroke-width: 0.8"
                 id="use14" />
            </g>
          </g>
          <g
             id="text_3">
            <!-- 0.4 -->
            <g
               transform="translate(227.030079 103.43278) scale(0.125 -0.125)"
               id="g17">
              <defs
                 id="defs14">
                <path
                   id="CMUSerif-Roman-34"
                   d="M 178 1056  L 178 1253  L 2144 4256  Q 2194 4334 2272 4331  Q 2344 4331 2359 4303  Q 2375 4275 2375 4166  L 2375 1253  L 3016 1253  L 3016 1056  L 2375 1056  L 2375 500  Q 2375 316 2451 256  Q 2528 197 2859 197  L 2994 197  L 2994 0  Q 2731 19 2125 19  Q 1522 19 1259 0  L 1259 197  L 1394 197  Q 1725 197 1803 255  Q 1881 313 1881 500  L 1881 1056  L 178 1056  z M 359 1253  L 1919 1253  L 1919 3641  L 359 1253  z "
                   transform="scale(0.015625)" />
              </defs>
              <use
                 xlink:href="#CMUSerif-Roman-30"
                 id="use15" />
              <use
                 xlink:href="#CMUSerif-Roman-2e"
                 transform="translate(50 0)"
                 id="use16" />
              <use
                 xlink:href="#CMUSerif-Roman-34"
                 transform="translate(77.783203 0)"
                 id="use17" />
            </g>
          </g>
        </g>
        <g
           id="xtick_4">
          <g
             id="line2d_10">
            <path
               d="M 316.750308 87.758951  L 316.750308 23.072187  "
               clip-path="url(#p2b750edd5e)"
               style="fill: none; stroke-dasharray: 2.96,1.28; stroke-dashoffset: 0; stroke: #999999; stroke-opacity: 0.28; stroke-width: 0.8"
               id="path17" />
          </g>
          <g
             id="line2d_11">
            <g
               id="g18">
              <use
                 xlink:href="#m0d282e18a2"
                 x="316.750308"
                 y="87.758951"
                 style="stroke: #000000; stroke-width: 0.8"
                 id="use18" />
            </g>
          </g>
          <g
             id="text_4">
            <!-- 0.6 -->
            <g
               transform="translate(308.76398 103.43278) scale(0.125 -0.125)"
               id="g21">
              <defs
                 id="defs18">
                <path
                   id="CMUSerif-Roman-36"
                   d="M 269 2022  Q 269 3028 781 3645  Q 1294 4263 1953 4263  Q 2338 4263 2552 4067  Q 2766 3872 2766 3572  Q 2766 3406 2669 3334  Q 2572 3263 2472 3263  Q 2356 3263 2265 3341  Q 2175 3419 2175 3559  Q 2175 3847 2528 3847  Q 2363 4103 1966 4103  Q 1844 4103 1719 4067  Q 1594 4031 1431 3912  Q 1269 3794 1144 3606  Q 1019 3419 931 3066  Q 844 2713 844 2253  L 844 2100  Q 1106 2734 1643 2732  Q 2181 2731 2553 2322  Q 2925 1913 2925 1306  Q 2925 684 2537 271  Q 2150 -141 1606 -141  Q 1363 -141 1142 -39  Q 922 63 717 294  Q 513 525 391 969  Q 269 1413 269 2022  z M 856 1447  Q 856 819 972 519  Q 991 469 1033 400  Q 1075 331 1148 242  Q 1222 153 1344 95  Q 1466 38 1606 38  Q 2034 38 2241 453  Q 2350 684 2350 1313  Q 2350 1953 2234 2188  Q 2038 2584 1638 2584  Q 1369 2584 1183 2400  Q 997 2216 926 1969  Q 856 1722 856 1447  z "
                   transform="scale(0.015625)" />
              </defs>
              <use
                 xlink:href="#CMUSerif-Roman-30"
                 id="use19" />
              <use
                 xlink:href="#CMUSerif-Roman-2e"
                 transform="translate(50 0)"
                 id="use20" />
              <use
                 xlink:href="#CMUSerif-Roman-36"
                 transform="translate(77.783203 0)"
                 id="use21" />
            </g>
          </g>
        </g>
        <g
           id="xtick_5">
          <g
             id="line2d_12">
            <path
               d="M 398.48421 87.758951  L 398.48421 23.072187  "
               clip-path="url(#p2b750edd5e)"
               style="fill: none; stroke-dasharray: 2.96,1.28; stroke-dashoffset: 0; stroke: #999999; stroke-opacity: 0.28; stroke-width: 0.8"
               id="path21" />
          </g>
          <g
             id="line2d_13">
            <g
               id="g22">
              <use
                 xlink:href="#m0d282e18a2"
                 x="398.48421"
                 y="87.758951"
                 style="stroke: #000000; stroke-width: 0.8"
                 id="use22" />
            </g>
          </g>
          <g
             id="text_5">
            <!-- 0.8 -->
            <g
               transform="translate(390.497881 103.43278) scale(0.125 -0.125)"
               id="g25">
              <defs
                 id="defs22">
                <path
                   id="CMUSerif-Roman-38"
                   d="M 269 966  Q 269 1681 1191 2144  Q 794 2413 722 2491  Q 441 2803 441 3194  Q 441 3641 780 3952  Q 1119 4263 1600 4263  Q 2059 4263 2406 3997  Q 2753 3731 2753 3309  Q 2753 2716 1978 2316  Q 2491 1997 2613 1863  Q 2925 1516 2925 1075  Q 2925 563 2531 211  Q 2138 -141 1594 -141  Q 1063 -141 666 168  Q 269 478 269 966  z M 588 966  Q 588 569 886 303  Q 1184 38 1600 38  Q 2003 38 2304 269  Q 2606 500 2606 844  Q 2606 978 2561 1093  Q 2516 1209 2427 1301  Q 2338 1394 2283 1436  Q 2228 1478 2125 1550  L 1338 2047  Q 588 1631 588 966  z M 722 3444  Q 722 3138 1044 2925  L 1838 2413  Q 2472 2784 2472 3309  Q 2472 3650 2212 3876  Q 1953 4103 1594 4103  Q 1241 4103 981 3917  Q 722 3731 722 3444  z "
                   transform="scale(0.015625)" />
              </defs>
              <use
                 xlink:href="#CMUSerif-Roman-30"
                 id="use23" />
              <use
                 xlink:href="#CMUSerif-Roman-2e"
                 transform="translate(50 0)"
                 id="use24" />
              <use
                 xlink:href="#CMUSerif-Roman-38"
                 transform="translate(77.783203 0)"
                 id="use25" />
            </g>
          </g>
        </g>
        <g
           id="xtick_6">
          <g
             id="line2d_14">
            <path
               d="M 480.218111 87.758951  L 480.218111 23.072187  "
               clip-path="url(#p2b750edd5e)"
               style="fill: none; stroke-dasharray: 2.96,1.28; stroke-dashoffset: 0; stroke: #999999; stroke-opacity: 0.28; stroke-width: 0.8"
               id="path25" />
          </g>
          <g
             id="line2d_15">
            <g
               id="g26">
              <use
                 xlink:href="#m0d282e18a2"
                 x="480.218111"
                 y="87.758951"
                 style="stroke: #000000; stroke-width: 0.8"
                 id="use26" />
            </g>
          </g>
          <g
             id="text_6">
            <!-- 1.0 -->
            <g
               transform="translate(472.231783 103.43278) scale(0.125 -0.125)"
               id="g29">
              <defs
                 id="defs26">
                <path
                   id="CMUSerif-Roman-31"
                   d="M 569 3653  L 569 3853  Q 1338 3853 1734 4263  Q 1844 4263 1862 4238  Q 1881 4213 1881 4097  L 1881 506  Q 1881 316 1975 256  Q 2069 197 2478 197  L 2681 197  L 2681 0  Q 2456 19 1643 19  Q 831 19 609 0  L 609 197  L 813 197  Q 1216 197 1312 255  Q 1409 313 1409 506  L 1409 3822  Q 1075 3653 569 3653  z "
                   transform="scale(0.015625)" />
              </defs>
              <use
                 xlink:href="#CMUSerif-Roman-31"
                 id="use27" />
              <use
                 xlink:href="#CMUSerif-Roman-2e"
                 transform="translate(50 0)"
                 id="use28" />
              <use
                 xlink:href="#CMUSerif-Roman-30"
                 transform="translate(77.783203 0)"
                 id="use29" />
            </g>
          </g>
        </g>
        <g
           id="text_7">
          <!-- $x/c$  (Chordwise position) -->
          <g
             transform="translate(194.110156 122.731608) scale(0.145 -0.145)"
             id="g54">
            <defs
               id="defs29">
              <path
                 id="CMUSerif-Roman-78"
                 d="M 78 0  L 78 197  Q 578 197 897 581  Q 897 581 1497 1344  L 863 2169  Q 638 2456 539 2507  Q 441 2559 109 2559  L 109 2759  Q 372 2741 716 2741  Q 906 2741 1409 2759  L 1409 2559  Q 1184 2547 1184 2400  Q 1184 2350 1241 2284  L 1741 1638  L 2138 2138  Q 2234 2253 2234 2363  Q 2234 2541 2047 2559  L 2047 2759  Q 2297 2741 2663 2741  Q 2938 2741 3188 2759  L 3188 2559  Q 2700 2547 2425 2228  Q 2303 2094 1838 1503  L 2694 397  Q 2797 263 2912 230  Q 3028 197 3303 197  L 3303 0  Q 3016 19 2688 19  Q 2572 19 1997 0  L 1997 197  Q 2113 203 2170 254  Q 2228 306 2228 359  Q 2228 384 2094 569  L 1606 1209  Q 1119 634 1056 500  Q 1031 444 1031 397  Q 1031 225 1216 197  L 1216 0  Q 756 19 609 19  Q 328 19 78 0  z "
                 transform="scale(0.015625)" />
              <path
                 id="CMUSerif-Roman-2f"
                 d="M 366 -1509  Q 366 -1478 391 -1409  L 2650 4628  Q 2650 4634 2665 4668  Q 2681 4703 2690 4726  Q 2700 4750 2720 4769  Q 2741 4788 2766 4788  Q 2828 4788 2828 4709  Q 2828 4703 2809 4628  L 544 -1416  Q 506 -1525 482 -1556  Q 459 -1588 422 -1588  Q 366 -1588 366 -1509  z "
                 transform="scale(0.015625)" />
              <path
                 id="CMUSerif-Roman-63"
                 d="M 625 351  Q 219 775 219 1383  Q 219 1991 619 2430  Q 1019 2869 1606 2869  Q 1997 2869 2290 2683  Q 2584 2497 2584 2181  Q 2584 2041 2501 1961  Q 2419 1881 2291 1881  Q 2156 1881 2076 1964  Q 1997 2047 1997 2175  Q 1997 2231 2015 2287  Q 2034 2344 2104 2403  Q 2175 2463 2297 2472  Q 2069 2706 1625 2706  Q 1619 2706 1613 2706  Q 1288 2706 1019 2400  Q 750 2094 750 1394  Q 750 1028 839 761  Q 928 494 1075 356  Q 1222 219 1365 155  Q 1509 91 1650 91  Q 2278 91 2491 763  Q 2509 825 2572 825  Q 2656 825 2656 763  Q 2656 731 2631 650  Q 2606 569 2528 441  Q 2450 313 2339 202  Q 2228 91 2033 9  Q 1838 -72 1594 -72  Q 1031 -72 625 351  z "
                 transform="scale(0.015625)" />
              <path
                 id="CMUSerif-Roman-20"
                 transform="scale(0.015625)" />
              <path
                 id="CMUSerif-Roman-28"
                 d="M 634 1600  Q 634 2681 1038 3553  Q 1209 3919 1450 4225  Q 1691 4531 1850 4665  Q 2009 4800 2053 4800  Q 2116 4800 2119 4738  Q 2119 4706 2034 4628  Q 1003 3578 1006 1600  Q 1006 -384 2009 -1394  Q 2119 -1503 2119 -1538  Q 2119 -1600 2053 -1600  Q 2009 -1600 1856 -1472  Q 1703 -1344 1465 -1050  Q 1228 -756 1056 -397  Q 634 475 634 1600  z "
                 transform="scale(0.015625)" />
              <path
                 id="CMUSerif-Roman-43"
                 d="M 359 2188  Q 359 3153 1018 3833  Q 1678 4513 2584 4513  Q 2866 4513 3116 4409  Q 3366 4306 3481 4217  Q 3597 4128 3763 3963  L 4084 4434  Q 4134 4513 4186 4513  Q 4238 4513 4247 4483  Q 4256 4453 4256 4359  L 4256 2841  Q 4256 2738 4243 2713  Q 4231 2688 4153 2688  Q 4091 2688 4077 2706  Q 4063 2725 4050 2797  Q 3953 3488 3570 3900  Q 3188 4313 2656 4313  Q 2503 4313 2333 4278  Q 2163 4244 1917 4112  Q 1672 3981 1483 3764  Q 1294 3547 1156 3136  Q 1019 2725 1019 2181  Q 1019 1644 1156 1231  Q 1294 819 1483 605  Q 1672 391 1917 259  Q 2163 128 2336 92  Q 2509 56 2663 56  Q 3213 56 3634 447  Q 4056 838 4097 1497  Q 4103 1528 4103 1542  Q 4103 1556 4109 1572  Q 4116 1588 4131 1594  Q 4147 1600 4172 1600  Q 4256 1600 4256 1491  Q 4256 881 3789 370  Q 3322 -141 2584 -141  Q 1675 -141 1017 534  Q 359 1209 359 2188  z "
                 transform="scale(0.015625)" />
              <path
                 id="CMUSerif-Roman-68"
                 d="M 206 0  L 206 197  Q 547 197 625 239  Q 703 281 703 488  L 703 3816  Q 703 4053 620 4112  Q 538 4172 206 4172  L 206 4372  L 1125 4441  L 1125 2216  L 1131 2216  Q 1234 2447 1465 2637  Q 1697 2828 2053 2828  Q 2534 2828 2725 2591  Q 2866 2431 2895 2253  Q 2925 2075 2925 1613  L 2925 391  Q 2931 256 3034 226  Q 3138 197 3425 197  L 3425 0  Q 2772 19 2706 19  Q 2656 19 1984 0  L 1984 197  Q 2325 197 2404 239  Q 2484 281 2484 488  L 2484 1978  Q 2484 2303 2384 2495  Q 2284 2688 2009 2688  Q 1678 2688 1412 2409  Q 1147 2131 1147 1663  L 1147 488  Q 1147 281 1226 239  Q 1306 197 1644 197  L 1644 0  Q 991 19 928 19  Q 878 19 206 0  z "
                 transform="scale(0.015625)" />
              <path
                 id="CMUSerif-Roman-6f"
                 d="M 601 345  Q 178 763 178 1370  Q 178 1978 592 2423  Q 1006 2869 1600 2869  Q 2181 2869 2598 2426  Q 3016 1984 3016 1369  Q 3016 766 2595 347  Q 2175 -72 1594 -72  Q 1025 -72 601 345  z M 709 1422  Q 709 800 872 519  Q 1122 91 1600 91  Q 1838 91 2036 219  Q 2234 347 2344 563  Q 2484 844 2484 1422  Q 2484 2038 2316 2309  Q 2066 2725 1594 2725  Q 1388 2725 1186 2617  Q 984 2509 863 2297  Q 709 2016 709 1422  z "
                 transform="scale(0.015625)" />
              <path
                 id="CMUSerif-Roman-72"
                 d="M 178 0  L 178 197  Q 519 197 598 239  Q 678 281 678 488  L 678 2203  Q 678 2441 595 2500  Q 513 2559 178 2559  L 178 2759  L 1069 2828  L 1069 2125  Q 1159 2400 1351 2614  Q 1544 2828 1856 2828  Q 2063 2828 2195 2712  Q 2328 2597 2328 2438  Q 2328 2297 2242 2226  Q 2156 2156 2053 2156  Q 1938 2156 1858 2229  Q 1778 2303 1778 2431  Q 1778 2509 1814 2570  Q 1850 2631 1878 2653  Q 1906 2675 1925 2681  Q 1913 2688 1856 2688  Q 1503 2688 1301 2336  Q 1100 1984 1100 1484  L 1100 500  Q 1100 316 1176 256  Q 1253 197 1588 197  L 1722 197  L 1722 0  Q 1466 19 909 19  Q 831 19 709 16  Q 588 13 428 6  Q 269 0 178 0  z "
                 transform="scale(0.015625)" />
              <path
                 id="CMUSerif-Roman-64"
                 d="M 219 1375  Q 219 1984 644 2406  Q 1069 2828 1644 2828  Q 2131 2828 2450 2431  L 2450 3816  Q 2450 4053 2367 4112  Q 2284 4172 1953 4172  L 1953 4372  L 2875 4441  L 2875 556  Q 2875 319 2958 258  Q 3041 197 3372 197  L 3372 0  L 2431 -72  L 2431 353  Q 2100 -69 1575 -72  Q 1025 -72 622 350  Q 219 772 219 1375  z M 750 1369  Q 750 775 934 481  Q 1191 72 1606 72  Q 2081 72 2363 519  Q 2434 628 2431 756  L 2431 2069  Q 2431 2197 2363 2303  Q 2100 2688 1672 2688  Q 1225 2688 947 2278  Q 750 1972 750 1369  z "
                 transform="scale(0.015625)" />
              <path
                 id="CMUSerif-Roman-77"
                 d="M 116 2559  L 116 2759  Q 463 2741 709 2741  Q 831 2741 1409 2759  L 1409 2559  Q 1031 2559 1031 2388  Q 1031 2350 1063 2272  L 1672 563  L 2222 2113  Q 2106 2425 2075 2463  Q 1997 2559 1672 2559  L 1672 2759  Q 1959 2741 2241 2741  Q 2350 2741 2906 2759  L 2906 2559  Q 2528 2559 2528 2388  Q 2528 2363 2559 2266  L 3194 481  L 3775 2119  Q 3806 2203 3809 2253  Q 3809 2394 3709 2473  Q 3609 2553 3438 2559  L 3438 2759  Q 3803 2741 4031 2741  Q 4288 2741 4500 2759  L 4500 2559  Q 4103 2547 3963 2150  L 3213 50  Q 3141 -66 3084 -72  Q 3000 -72 2956 50  L 2303 1869  L 1656 56  Q 1631 -22 1609 -47  Q 1588 -72 1530 -72  Q 1472 -72 1447 -39  Q 1422 -6 1394 72  L 588 2338  Q 531 2484 448 2521  Q 366 2559 116 2559  z "
                 transform="scale(0.015625)" />
              <path
                 id="CMUSerif-Roman-69"
                 d="M 213 0  L 213 197  Q 553 197 631 239  Q 709 281 709 488  L 709 2209  Q 709 2447 629 2503  Q 550 2559 238 2559  L 238 2759  L 1131 2828  L 1131 481  Q 1131 291 1200 244  Q 1269 197 1581 197  L 1581 0  Q 928 19 916 19  Q 828 19 213 0  z M 481 3944  Q 481 4072 579 4176  Q 678 4281 818 4281  Q 959 4281 1059 4186  Q 1159 4091 1159 3942  Q 1159 3794 1059 3698  Q 959 3603 819 3603  Q 672 3603 576 3706  Q 481 3809 481 3944  z "
                 transform="scale(0.015625)" />
              <path
                 id="CMUSerif-Roman-73"
                 d="M 213 84  L 213 928  Q 213 1000 216 1025  Q 219 1050 237 1069  Q 256 1088 294 1088  Q 338 1088 355 1069  Q 372 1050 384 978  Q 481 538 689 305  Q 897 72 1275 72  Q 1634 72 1815 231  Q 1997 391 1997 653  Q 1997 1122 1331 1241  Q 947 1319 787 1370  Q 628 1422 488 1538  Q 213 1763 213 2081  Q 213 2400 455 2634  Q 697 2869 1234 2869  Q 1594 2869 1838 2688  Q 1909 2744 1947 2791  Q 2031 2869 2075 2869  Q 2125 2869 2134 2836  Q 2144 2803 2144 2713  L 2144 2069  Q 2144 1997 2141 1972  Q 2138 1947 2119 1930  Q 2100 1913 2059 1913  Q 1988 1913 1984 1972  Q 1934 2747 1234 2747  Q 856 2747 687 2601  Q 519 2456 519 2259  Q 519 2150 570 2067  Q 622 1984 689 1936  Q 756 1888 881 1842  Q 1006 1797 1082 1781  Q 1159 1766 1306 1734  Q 1819 1638 2034 1428  Q 2303 1159 2303 819  Q 2303 441 2047 184  Q 1791 -72 1275 -72  Q 859 -72 569 206  Q 531 169 503 136  Q 475 103 464 90  Q 453 78 450 70  Q 447 63 441 56  Q 313 -72 281 -72  Q 231 -72 222 -39  Q 213 -6 213 84  z "
                 transform="scale(0.015625)" />
              <path
                 id="CMUSerif-Roman-65"
                 d="M 178 1409  Q 178 2013 565 2441  Q 953 2869 1509 2869  Q 2072 2869 2364 2503  Q 2656 2138 2656 1613  Q 2656 1516 2631 1497  Q 2606 1478 2497 1478  L 709 1478  Q 709 825 903 519  Q 1172 91 1625 91  Q 1688 91 1763 103  Q 1838 116 1991 170  Q 2144 225 2278 372  Q 2413 519 2491 750  Q 2509 841 2572 838  Q 2656 838 2656 763  Q 2656 706 2595 579  Q 2534 453 2418 303  Q 2303 153 2079 40  Q 1856 -72 1588 -72  Q 1025 -72 601 354  Q 178 781 178 1409  z M 716 1613  L 2234 1613  Q 2234 1747 2211 1897  Q 2188 2047 2120 2255  Q 2053 2463 1897 2594  Q 1741 2725 1509 2725  Q 1406 2725 1295 2681  Q 1184 2638 1050 2531  Q 916 2425 822 2184  Q 728 1944 716 1613  z "
                 transform="scale(0.015625)" />
              <path
                 id="CMUSerif-Roman-70"
                 d="M 178 -1044  Q 519 -1044 598 -1001  Q 678 -959 678 -756  L 678 2241  Q 678 2453 598 2506  Q 519 2559 178 2559  L 178 2759  L 1100 2828  L 1100 2406  Q 1484 2828 1997 2828  Q 2541 2828 2937 2406  Q 3334 1984 3334 1381  Q 3334 772 2912 350  Q 2491 -72 1906 -72  Q 1588 -72 1373 92  Q 1159 256 1119 378  L 1119 319  L 1119 -756  Q 1119 -963 1200 -1003  Q 1281 -1044 1619 -1044  L 1619 -1241  Q 947 -1222 897 -1222  Q 834 -1222 178 -1241  L 178 -1044  z M 1119 728  Q 1119 631 1133 597  Q 1147 563 1209 459  Q 1463 72 1875 72  Q 1878 72 1881 72  Q 2247 72 2525 445  Q 2803 819 2803 1381  Q 2803 1919 2550 2294  Q 2297 2669 1947 2669  Q 1697 2669 1478 2534  Q 1259 2400 1119 2156  L 1119 728  z "
                 transform="scale(0.015625)" />
              <path
                 id="CMUSerif-Roman-74"
                 d="M 122 2559  L 122 2700  Q 416 2713 611 2920  Q 806 3128 873 3384  Q 941 3641 947 3938  L 1106 3938  L 1106 2759  L 2022 2759  L 2022 2559  L 1106 2559  L 1106 781  Q 1106 91 1538 91  Q 1722 91 1844 280  Q 1966 469 1966 806  L 1966 1159  L 2125 1159  L 2125 794  Q 2125 447 1965 187  Q 1806 -72 1491 -72  Q 1375 -72 1261 -42  Q 1147 -13 998 64  Q 850 141 758 330  Q 666 519 666 794  L 666 2559  L 122 2559  z "
                 transform="scale(0.015625)" />
              <path
                 id="CMUSerif-Roman-6e"
                 d="M 206 0  L 206 197  Q 547 197 625 239  Q 703 281 703 488  L 703 2203  Q 703 2441 620 2500  Q 538 2559 206 2559  L 206 2759  L 1106 2828  L 1106 2156  Q 1406 2828 2053 2828  Q 2534 2828 2725 2591  Q 2866 2431 2895 2253  Q 2925 2075 2925 1613  L 2925 391  Q 2931 256 3034 226  Q 3138 197 3425 197  L 3425 0  Q 2772 19 2706 19  Q 2656 19 1984 0  L 1984 197  Q 2325 197 2404 239  Q 2484 281 2484 488  L 2484 1978  Q 2484 2303 2384 2495  Q 2284 2688 2009 2688  Q 1678 2688 1412 2409  Q 1147 2131 1147 1663  L 1147 488  Q 1147 281 1226 239  Q 1306 197 1644 197  L 1644 0  Q 991 19 928 19  Q 878 19 206 0  z "
                 transform="scale(0.015625)" />
              <path
                 id="CMUSerif-Roman-29"
                 d="M 366 -1538  Q 366 -1506 447 -1428  Q 1478 -378 1478 1600  Q 1478 3584 488 4588  Q 366 4703 366 4738  Q 366 4800 428 4800  Q 472 4800 626 4672  Q 781 4544 1017 4250  Q 1253 3956 1428 3597  Q 1850 2725 1850 1600  Q 1850 519 1447 -353  Q 1275 -719 1034 -1025  Q 794 -1331 634 -1465  Q 475 -1600 428 -1600  Q 366 -1600 366 -1538  z "
                 transform="scale(0.015625)" />
            </defs>
            <g
               id="g293"
               transform="translate(489.79785)">
              <use
                 xlink:href="#CMUSerif-Roman-78"
                 id="use30" />
              <use
                 xlink:href="#CMUSerif-Roman-2f"
                 transform="translate(52.685547)"
                 id="use31" />
              <use
                 xlink:href="#CMUSerif-Roman-63"
                 transform="translate(102.68555)"
                 id="use32" />
            </g>
            <use
               xlink:href="#CMUSerif-Roman-20"
               transform="translate(147.070312 0)"
               id="use33" />
            <use
               xlink:href="#CMUSerif-Roman-20"
               transform="translate(180.322266 0)"
               id="use34" />
            <use
               xlink:href="#CMUSerif-Roman-20"
               transform="translate(708.105469 0)"
               id="use45" />
          </g>
        </g>
      </g>
      <g
         id="matplotlib.axis_2">
        <g
           id="ytick_1">
          <g
             id="line2d_16">
            <path
               d="M 50.672656 75.054551  L 500.672656 75.054551  "
               clip-path="url(#p2b750edd5e)"
               style="fill: none; stroke-dasharray: 2.96,1.28; stroke-dashoffset: 0; stroke: #999999; stroke-opacity: 0.28; stroke-width: 0.8"
               id="path54" />
          </g>
          <g
             id="line2d_17">
            <defs
               id="defs54">
              <path
                 id="mecb8f044e5"
                 d="M 0 0  L -3.5 0  "
                 style="stroke: #000000; stroke-width: 0.8" />
            </defs>
            <g
               id="g55">
              <use
                 xlink:href="#mecb8f044e5"
                 x="50.672656"
                 y="75.054551"
                 style="stroke: #000000; stroke-width: 0.8"
                 id="use55" />
            </g>
          </g>
          <g
             id="text_8">
            <!-- 0.0 -->
            <g
               transform="translate(27.7 79.391465) scale(0.125 -0.125)"
               id="g58">
              <use
                 xlink:href="#CMUSerif-Roman-30"
                 id="use56" />
              <use
                 xlink:href="#CMUSerif-Roman-2e"
                 transform="translate(50 0)"
                 id="use57" />
              <use
                 xlink:href="#CMUSerif-Roman-30"
                 transform="translate(77.783203 0)"
                 id="use58" />
            </g>
          </g>
        </g>
        <g
           id="ytick_2">
          <g
             id="line2d_18">
            <path
               d="M 50.672656 34.187601  L 500.672656 34.187601  "
               clip-path="url(#p2b750edd5e)"
               style="fill: none; stroke-dasharray: 2.96,1.28; stroke-dashoffset: 0; stroke: #999999; stroke-opacity: 0.28; stroke-width: 0.8"
               id="path58" />
          </g>
          <g
             id="line2d_19">
            <g
               id="g59">
              <use
                 xlink:href="#mecb8f044e5"
                 x="50.672656"
                 y="34.187601"
                 style="stroke: #000000; stroke-width: 0.8"
                 id="use59" />
            </g>
          </g>
          <g
             id="text_9">
            <!-- 0.1 -->
            <g
               transform="translate(27.7 38.524515) scale(0.125 -0.125)"
               id="g62">
              <use
                 xlink:href="#CMUSerif-Roman-30"
                 id="use60" />
              <use
                 xlink:href="#CMUSerif-Roman-2e"
                 transform="translate(50 0)"
                 id="use61" />
              <use
                 xlink:href="#CMUSerif-Roman-31"
                 transform="translate(77.783203 0)"
                 id="use62" />
            </g>
          </g>
        </g>
        <g
           id="text_10"
           transform="translate(0,-71.115844)">
          <!-- $y/c$  (Vertical coordinate) -->
          <g
             transform="matrix(0,-0.145,-0.145,0,18.075,137.12307)"
             id="g88">
            <defs
               id="defs62">
              <path
                 id="CMUSerif-Roman-79"
                 d="m 122,-794 q 0,135 79,205 80,70 190,70 115,0 191,-73 77,-74 77,-196 0,-237 -250,-268 122,-116 300,-116 191,0 345,141 155,140 222,275 68,134 165,378 90,190 159,378 L 641,2338 q -63,153 -160,187 -97,34 -359,34 v 200 q 287,-18 622,-18 197,0 697,18 v -200 q -360,0 -360,-165 0,-19 38,-116 l 712,-1722 647,1575 q 38,91 38,153 0,263 -300,275 v 200 q 422,-18 556,-18 262,0 478,18 v -200 q -428,0 -594,-409 L 1528,-581 q -306,-728 -819,-732 -243,0 -415,150 -172,150 -172,369 z"
                 transform="scale(0.015625)" />
              <path
                 id="CMUSerif-Roman-56"
                 d="m 122,4172 v 200 q 691,-19 812,-19 685,0 916,19 v -200 q -525,0 -525,-184 0,-25 38,-116 L 2584,641 3756,3725 q 32,97 32,128 0,128 -118,220 -117,93 -348,99 v 200 q 500,-19 728,-19 325,0 622,19 v -200 q -538,-6 -697,-428 L 2547,-19 q -25,-78 -50,-100 -25,-22 -103,-22 -63,0 -96,25 -32,25 -64,116 L 750,3928 q -62,172 -175,208 -112,36 -453,36 z"
                 transform="scale(0.015625)" />
              <path
                 id="CMUSerif-Roman-61"
                 d="m 269,609 q 0,544 640,832 385,184 1179,231 v 234 q 0,397 -208,608 -208,211 -471,211 -468,0 -693,-294 190,-6 259,-102 69,-95 69,-191 0,-129 -80,-212 -80,-82 -214,-82 -128,0 -213,79 -84,80 -84,221 0,312 283,518 283,207 686,207 525,0 875,-353 109,-110 164,-251 55,-140 61,-232 6,-92 6,-274 V 481 q 0,-37 12,-100 13,-62 71,-142 58,-80 155,-80 231,0 228,410 v 359 h 162 V 569 Q 3156,228 2976,95 2797,-38 2631,-38 2419,-38 2284,118 2150,275 2131,488 2034,244 1814,86 1594,-72 1294,-72 1063,-72 845,-14 628,44 448,205 269,366 269,609 Z m 494,7 q 0,-238 168,-391 169,-153 407,-153 268,0 509,208 241,208 241,617 v 641 Q 1378,1513 1070,1230 763,947 763,616 Z"
                 transform="scale(0.015625)" />
              <path
                 id="CMUSerif-Roman-6c"
                 d="m 213,0 v 197 q 340,0 418,42 78,42 78,249 v 3328 q 0,237 -83,296 -82,60 -413,60 v 200 l 918,69 V 488 q 0,-207 81,-249 82,-42 419,-42 V 0 q -78,0 -241,6 -162,7 -281,10 -118,3 -187,3 -75,0 -709,-19 z"
                 transform="scale(0.015625)" />
            </defs>
            <g
               id="g294">
              <use
                 xlink:href="#CMUSerif-Roman-79"
                 id="use63" />
              <use
                 xlink:href="#CMUSerif-Roman-2f"
                 transform="translate(52.685547)"
                 id="use64" />
              <use
                 xlink:href="#CMUSerif-Roman-63"
                 transform="translate(102.68555)"
                 id="use65" />
            </g>
            <use
               xlink:href="#CMUSerif-Roman-20"
               transform="translate(147.07031)"
               id="use66" />
            <use
               xlink:href="#CMUSerif-Roman-20"
               transform="translate(180.32227)"
               id="use67" />
            <use
               xlink:href="#CMUSerif-Roman-20"
               transform="translate(599.31641)"
               id="use77" />
          </g>
        </g>
      </g>
      <g
         id="patch_3">
        <path
           d="M 50.672656 87.758951  L 50.672656 23.072188  "
           style="fill: none; stroke: #000000; stroke-width: 0.8; stroke-linejoin: miter; stroke-linecap: square"
           id="path88" />
      </g>
      <g
         id="patch_4">
        <path
           d="M 50.672656 87.758951  L 500.672656 87.758951  "
           style="fill: none; stroke: #000000; stroke-width: 0.8; stroke-linejoin: miter; stroke-linecap: square"
           id="path89" />
      </g>
      <g
         id="text_11">
        <!-- Champion geometries — every optimisation strategy -->
        <g
           transform="translate(114.150937 17.072187) scale(0.14 -0.14)"
           id="g137">
          <defs
             id="defs89">
            <path
               id="CMUSerif-Roman-6d"
               d="M 206 0  L 206 197  Q 547 197 625 239  Q 703 281 703 488  L 703 2203  Q 703 2441 620 2500  Q 538 2559 206 2559  L 206 2759  L 1106 2828  L 1106 2156  Q 1406 2828 2053 2828  Q 2803 2828 2906 2203  Q 3016 2447 3245 2637  Q 3475 2828 3834 2828  Q 4316 2828 4506 2591  Q 4647 2431 4675 2253  Q 4703 2075 4703 1613  L 4703 391  Q 4709 256 4812 226  Q 4916 197 5203 197  L 5203 0  Q 4550 19 4488 19  Q 4438 19 3763 0  L 3763 197  Q 4103 197 4183 239  Q 4263 281 4263 488  L 4263 1978  Q 4263 2303 4163 2495  Q 4063 2688 3788 2688  Q 3456 2688 3190 2409  Q 2925 2131 2925 1663  L 2925 488  Q 2925 281 3004 239  Q 3084 197 3425 197  L 3425 0  Q 2772 19 2706 19  Q 2656 19 1984 0  L 1984 197  Q 2325 197 2404 239  Q 2484 281 2484 488  L 2484 1978  Q 2484 2303 2384 2495  Q 2284 2688 2009 2688  Q 1678 2688 1412 2409  Q 1147 2131 1147 1663  L 1147 488  Q 1147 281 1226 239  Q 1306 197 1644 197  L 1644 0  Q 991 19 928 19  Q 878 19 206 0  z "
               transform="scale(0.015625)" />
            <path
               id="CMUSerif-Roman-67"
               d="M 178 -506  Q 178 -300 336 -122  Q 494 56 769 134  Q 488 313 488 703  Q 488 1003 684 1234  Q 384 1484 384 1894  Q 384 2272 684 2550  Q 984 2828 1422 2828  Q 1806 2828 2100 2597  Q 2406 2897 2778 2900  Q 2944 2900 3023 2797  Q 3103 2694 3103 2584  Q 3103 2488 3042 2441  Q 2981 2394 2919 2394  Q 2841 2394 2786 2445  Q 2731 2497 2731 2578  Q 2731 2713 2834 2753  Q 2816 2759 2772 2759  Q 2459 2759 2194 2509  Q 2456 2266 2456 1887  Q 2456 1509 2156 1231  Q 1856 953 1422 953  Q 1063 953 788 1153  Q 678 1025 678 850  Q 678 691 775 566  Q 872 441 1019 422  Q 1063 416 1497 416  Q 1753 416 1893 409  Q 2034 403 2236 361  Q 2438 319 2597 238  Q 3013 6 3016 -494  Q 3016 -859 2595 -1089  Q 2175 -1319 1594 -1319  Q 1006 -1319 592 -1086  Q 178 -853 178 -506  z M 513 -506  Q 513 -769 822 -970  Q 1131 -1172 1600 -1172  Q 2059 -1172 2370 -973  Q 2681 -775 2681 -506  Q 2681 -316 2572 -194  Q 2463 -72 2239 -23  Q 2016 25 1859 34  Q 1703 44 1416 44  L 1038 44  Q 819 31 666 -128  Q 513 -288 513 -506  z M 863 1888  Q 863 1100 1422 1100  Q 1703 1100 1875 1356  Q 1978 1528 1978 1894  Q 1978 2681 1422 2681  Q 1141 2681 966 2425  Q 863 2253 863 1888  z "
               transform="scale(0.015625)" />
            <path
               id="CMUSerif-Roman-2014"
               d="M 0 1631  L 0 1772  L 6394 1772  L 6394 1631  L 0 1631  z "
               transform="scale(0.015625)" />
            <path
               id="CMUSerif-Roman-76"
               d="M 122 2559  L 122 2759  Q 409 2741 744 2741  Q 866 2741 1441 2759  L 1441 2559  Q 1075 2559 1075 2394  Q 1075 2369 1113 2284  L 1831 500  L 2484 2131  Q 2522 2241 2522 2284  Q 2522 2394 2448 2473  Q 2375 2553 2216 2559  L 2216 2759  Q 2541 2741 2772 2741  Q 3034 2741 3250 2759  L 3250 2559  Q 3059 2559 2925 2473  Q 2791 2388 2748 2314  Q 2706 2241 2663 2131  L 1825 50  Q 1775 -72 1691 -72  Q 1634 -72 1611 -48  Q 1588 -25 1556 50  L 634 2322  Q 572 2481 490 2520  Q 409 2559 122 2559  z "
               transform="scale(0.015625)" />
          </defs>
          <use
             xlink:href="#CMUSerif-Roman-43"
             id="use89" />
          <use
             xlink:href="#CMUSerif-Roman-68"
             transform="translate(72.167969 0)"
             id="use90" />
          <use
             xlink:href="#CMUSerif-Roman-61"
             transform="translate(127.636719 0)"
             id="use91" />
          <use
             xlink:href="#CMUSerif-Roman-6d"
             transform="translate(177.636719 0)"
             id="use92" />
          <use
             xlink:href="#CMUSerif-Roman-70"
             transform="translate(260.888672 0)"
             id="use93" />
          <use
             xlink:href="#CMUSerif-Roman-69"
             transform="translate(316.357422 0)"
             id="use94" />
          <use
             xlink:href="#CMUSerif-Roman-6f"
             transform="translate(344.042969 0)"
             id="use95" />
          <use
             xlink:href="#CMUSerif-Roman-6e"
             transform="translate(394.042969 0)"
             id="use96" />
          <use
             xlink:href="#CMUSerif-Roman-20"
             transform="translate(449.511719 0)"
             id="use97" />
          <use
             xlink:href="#CMUSerif-Roman-67"
             transform="translate(482.763672 0)"
             id="use98" />
          <use
             xlink:href="#CMUSerif-Roman-65"
             transform="translate(532.763672 0)"
             id="use99" />
          <use
             xlink:href="#CMUSerif-Roman-6f"
             transform="translate(577.148438 0)"
             id="use100" />
          <use
             xlink:href="#CMUSerif-Roman-6d"
             transform="translate(627.148438 0)"
             id="use101" />
          <use
             xlink:href="#CMUSerif-Roman-65"
             transform="translate(710.400391 0)"
             id="use102" />
          <use
             xlink:href="#CMUSerif-Roman-74"
             transform="translate(754.785156 0)"
             id="use103" />
          <use
             xlink:href="#CMUSerif-Roman-72"
             transform="translate(793.554688 0)"
             id="use104" />
          <use
             xlink:href="#CMUSerif-Roman-69"
             transform="translate(832.617188 0)"
             id="use105" />
          <use
             xlink:href="#CMUSerif-Roman-65"
             transform="translate(860.302734 0)"
             id="use106" />
          <use
             xlink:href="#CMUSerif-Roman-73"
             transform="translate(904.6875 0)"
             id="use107" />
          <use
             xlink:href="#CMUSerif-Roman-20"
             transform="translate(944.042969 0)"
             id="use108" />
          <use
             xlink:href="#CMUSerif-Roman-2014"
             transform="translate(977.294922 0)"
             id="use109" />
          <use
             xlink:href="#CMUSerif-Roman-20"
             transform="translate(1077.294922 0)"
             id="use110" />
          <use
             xlink:href="#CMUSerif-Roman-65"
             transform="translate(1110.546875 0)"
             id="use111" />
          <use
             xlink:href="#CMUSerif-Roman-76"
             transform="translate(1154.931641 0)"
             id="use112" />
          <use
             xlink:href="#CMUSerif-Roman-65"
             transform="translate(1207.617188 0)"
             id="use113" />
          <use
             xlink:href="#CMUSerif-Roman-72"
             transform="translate(1252.001953 0)"
             id="use114" />
          <use
             xlink:href="#CMUSerif-Roman-79"
             transform="translate(1291.064453 0)"
             id="use115" />
          <use
             xlink:href="#CMUSerif-Roman-20"
             transform="translate(1343.75 0)"
             id="use116" />
          <use
             xlink:href="#CMUSerif-Roman-6f"
             transform="translate(1377.001953 0)"
             id="use117" />
          <use
             xlink:href="#CMUSerif-Roman-70"
             transform="translate(1427.001953 0)"
             id="use118" />
          <use
             xlink:href="#CMUSerif-Roman-74"
             transform="translate(1482.470703 0)"
             id="use119" />
          <use
             xlink:href="#CMUSerif-Roman-69"
             transform="translate(1521.240234 0)"
             id="use120" />
          <use
             xlink:href="#CMUSerif-Roman-6d"
             transform="translate(1548.925781 0)"
             id="use121" />
          <use
             xlink:href="#CMUSerif-Roman-69"
             transform="translate(1632.177734 0)"
             id="use122" />
          <use
             xlink:href="#CMUSerif-Roman-73"
             transform="translate(1659.863281 0)"
             id="use123" />
          <use
             xlink:href="#CMUSerif-Roman-61"
             transform="translate(1699.21875 0)"
             id="use124" />
          <use
             xlink:href="#CMUSerif-Roman-74"
             transform="translate(1749.21875 0)"
             id="use125" />
          <use
             xlink:href="#CMUSerif-Roman-69"
             transform="translate(1787.988281 0)"
             id="use126" />
          <use
             xlink:href="#CMUSerif-Roman-6f"
             transform="translate(1815.673828 0)"
             id="use127" />
          <use
             xlink:href="#CMUSerif-Roman-6e"
             transform="translate(1865.673828 0)"
             id="use128" />
          <use
             xlink:href="#CMUSerif-Roman-20"
             transform="translate(1921.142578 0)"
             id="use129" />
          <use
             xlink:href="#CMUSerif-Roman-73"
             transform="translate(1954.394531 0)"
             id="use130" />
          <use
             xlink:href="#CMUSerif-Roman-74"
             transform="translate(1993.75 0)"
             id="use131" />
          <use
             xlink:href="#CMUSerif-Roman-72"
             transform="translate(2032.519531 0)"
             id="use132" />
          <use
             xlink:href="#CMUSerif-Roman-61"
             transform="translate(2071.582031 0)"
             id="use133" />
          <use
             xlink:href="#CMUSerif-Roman-74"
             transform="translate(2121.582031 0)"
             id="use134" />
          <use
             xlink:href="#CMUSerif-Roman-65"
             transform="translate(2160.351562 0)"
             id="use135" />
          <use
             xlink:href="#CMUSerif-Roman-67"
             transform="translate(2204.736328 0)"
             id="use136" />
          <use
             xlink:href="#CMUSerif-Roman-79"
             transform="translate(2254.736328 0)"
             id="use137" />
        </g>
      </g>
      <g
         id="legend_1">
        <g
           id="line2d_20">
          <path
             d="M 520.472656 27.215569  L 532.472656 27.215569  L 544.472656 27.215569  "
             style="fill: none; stroke: #1f4e8c; stroke-opacity: 0.7; stroke-linecap: square"
             id="path137" />
        </g>
        <g
           id="text_12">
          <!-- Stage 1 — Take-off only  (NACA 7409) -->
          <g
             transform="translate(554.072656 31.415569) scale(0.12 -0.12)"
             id="g173">
            <defs
               id="defs137">
              <path
                 id="CMUSerif-Roman-53"
                 d="M 359 13  L 359 1294  Q 359 1366 362 1391  Q 366 1416 384 1434  Q 403 1453 441 1453  Q 513 1453 519 1388  Q 538 753 916 403  Q 1288 56 1925 56  Q 2309 56 2546 332  Q 2784 609 2784 972  Q 2784 1319 2584 1563  Q 2500 1672 2395 1742  Q 2291 1813 2227 1834  Q 2163 1856 2041 1888  Q 1247 2078 1197 2100  Q 819 2228 589 2551  Q 359 2875 359 3272  Q 359 3784 720 4148  Q 1081 4513 1606 4513  Q 1869 4513 2089 4430  Q 2309 4347 2400 4272  Q 2491 4197 2631 4063  L 2853 4428  Q 2903 4513 2950 4513  Q 3000 4513 3011 4483  Q 3022 4453 3022 4359  L 3022 3072  Q 3022 3000 3019 2975  Q 3016 2950 2995 2934  Q 2975 2919 2938 2919  Q 2875 2919 2859 2994  Q 2681 4331 1613 4331  Q 1247 4331 1008 4086  Q 769 3841 769 3494  Q 769 3213 944 2983  Q 1119 2753 1416 2681  L 2234 2484  Q 2644 2388 2919 2025  Q 3194 1663 3194 1191  Q 3194 647 2839 253  Q 2484 -141 1931 -141  Q 1534 -141 1228 -9  Q 922 122 756 306  Q 628 94 544 -25  L 525 -56  Q 475 -141 428 -141  Q 378 -141 368 -109  Q 359 -78 359 13  z "
                 transform="scale(0.015625)" />
              <path
                 id="CMUSerif-Roman-54"
                 d="M 231 2894  L 353 4331  L 4263 4331  L 4384 2894  L 4225 2894  Q 4200 3181 4176 3347  Q 4153 3513 4098 3670  Q 4044 3828 3976 3904  Q 3909 3981 3781 4042  Q 3653 4103 3487 4118  Q 3322 4134 3072 4134  Q 2778 4134 2706 4122  Q 2628 4103 2609 4048  Q 2591 3994 2591 3878  L 2591 506  Q 2591 378 2617 326  Q 2644 275 2791 236  Q 2938 197 3263 197  L 3519 197  L 3519 0  Q 3256 19 2303 19  Q 1356 19 1094 0  L 1094 197  L 1350 197  Q 1675 197 1823 236  Q 1972 275 1997 326  Q 2022 378 2022 506  L 2022 3878  Q 2022 3969 2015 4006  Q 2009 4044 1981 4076  Q 1953 4109 1889 4121  Q 1825 4134 1544 4134  Q 1294 4134 1126 4118  Q 959 4103 831 4042  Q 703 3981 636 3904  Q 569 3828 514 3670  Q 459 3513 437 3347  Q 416 3181 391 2894  L 231 2894  z "
                 transform="scale(0.015625)" />
              <path
                 id="CMUSerif-Roman-6b"
                 d="M 178 0  L 178 197  Q 519 197 598 239  Q 678 281 678 488  L 678 3816  Q 678 4053 595 4112  Q 513 4172 178 4172  L 178 4372  L 1100 4441  L 1100 1369  L 2003 2150  Q 2144 2272 2144 2400  Q 2144 2547 1959 2559  L 1959 2759  Q 2228 2741 2675 2741  Q 2938 2741 3122 2759  L 3122 2559  Q 2719 2541 2316 2216  Q 2225 2144 2011 1958  Q 1797 1772 1797 1753  Q 1797 1747 1805 1731  Q 1813 1716 1825 1703  Q 1838 1691 1838 1684  L 2650 538  Q 2816 306 2937 251  Q 3059 197 3272 197  L 3272 0  Q 2997 19 2713 19  Q 2559 19 2022 0  L 2022 197  Q 2253 197 2253 347  Q 2253 450 1734 1166  Q 1697 1216 1613 1325  Q 1534 1441 1491 1497  L 1081 1147  L 1081 488  Q 1081 281 1161 239  Q 1241 197 1581 197  L 1581 0  Q 1197 19 878 19  Q 813 19 178 0  z "
                 transform="scale(0.015625)" />
              <path
                 id="CMUSerif-Roman-2d"
                 d="M 63 1191  L 63 1569  L 1766 1569  L 1766 1191  L 63 1191  z "
                 transform="scale(0.015625)" />
              <path
                 id="CMUSerif-Roman-66"
                 d="M 213 2559  L 213 2759  L 716 2759  L 716 3494  Q 716 3969 1023 4241  Q 1331 4513 1709 4513  Q 1959 4513 2121 4378  Q 2284 4244 2284 4063  Q 2284 3941 2211 3861  Q 2138 3781 2003 3781  Q 1875 3781 1801 3862  Q 1728 3944 1728 4056  Q 1728 4263 1919 4325  Q 1822 4369 1709 4372  Q 1478 4372 1298 4134  Q 1119 3897 1119 3500  L 1119 2759  L 1869 2759  L 1869 2559  L 1141 2559  L 1141 500  Q 1141 316 1217 256  Q 1294 197 1625 197  L 1759 197  L 1759 0  Q 1503 19 947 19  Q 869 19 748 16  Q 628 13 467 6  Q 306 0 219 0  L 219 197  Q 559 197 637 239  Q 716 281 716 488  L 716 2559  L 213 2559  z "
                 transform="scale(0.015625)" />
              <path
                 id="CMUSerif-Roman-4e"
                 d="M 213 0  L 213 197  Q 444 197 591 242  Q 738 288 791 373  Q 844 459 858 517  Q 872 575 872 672  L 872 4013  Q 872 4103 848 4125  Q 825 4147 716 4159  Q 525 4172 397 4172  L 213 4172  L 213 4372  L 1300 4372  Q 1391 4372 1416 4359  Q 1441 4347 1484 4288  L 3744 966  L 3744 3700  Q 3744 3797 3731 3853  Q 3719 3909 3664 3996  Q 3609 4084 3462 4128  Q 3316 4172 3084 4172  L 3084 4372  Q 3756 4353 3832 4353  Q 3909 4353 4581 4372  L 4581 4172  Q 4350 4172 4203 4128  Q 4056 4084 4003 3996  Q 3950 3909 3936 3851  Q 3922 3794 3922 3700  L 3922 166  Q 3922 63 3909 31  Q 3897 0 3834 0  Q 3791 0 3725 84  L 1113 3922  Q 1088 3959 1050 4000  L 1050 672  Q 1050 575 1062 517  Q 1075 459 1129 373  Q 1184 288 1331 242  Q 1478 197 1709 197  L 1709 0  Q 1038 19 961 19  Q 884 19 213 0  z "
                 transform="scale(0.015625)" />
              <path
                 id="CMUSerif-Roman-41"
                 d="M 206 0  L 206 197  Q 775 209 922 628  L 2247 4453  Q 2272 4531 2300 4556  Q 2328 4581 2400 4581  Q 2438 4581 2461 4575  Q 2484 4569 2500 4547  Q 2516 4525 2522 4512  Q 2528 4500 2547 4453  L 3928 453  Q 3978 294 4081 245  Q 4184 197 4475 197  L 4588 197  L 4588 0  Q 4184 19 3750 19  Q 3059 19 2828 0  L 2828 197  Q 3359 197 3359 391  Q 3359 403 3341 481  L 3003 1459  L 1422 1459  L 1125 622  Q 1113 597 1113 525  Q 1113 391 1238 294  Q 1363 197 1594 197  L 1594 0  Q 978 19 856 19  Q 647 19 206 0  z M 1491 1656  L 2931 1656  L 2209 3738  L 1491 1656  z "
                 transform="scale(0.015625)" />
              <path
                 id="CMUSerif-Roman-37"
                 d="M 359 3009  L 569 4325  L 728 4325  Q 747 4247 780 4212  Q 813 4178 995 4150  Q 1178 4122 1550 4122  L 3103 4122  Q 3103 3975 3047 3897  L 2181 2681  Q 1906 2297 1784 1588  Q 1713 1113 1716 538  L 1716 213  Q 1716 -141 1420 -141  Q 1125 -141 1125 213  Q 1125 1434 1913 2619  Q 1997 2741 2308 3175  Q 2619 3609 2631 3628  L 1306 3628  Q 725 3628 678 3591  Q 616 3534 519 3009  L 359 3009  z "
                 transform="scale(0.015625)" />
              <path
                 id="CMUSerif-Roman-39"
                 d="M 269 2822  Q 269 3163 369 3395  Q 469 3628 678 3859  Q 1063 4263 1619 4263  Q 1856 4263 2067 4163  Q 2278 4063 2479 3836  Q 2681 3609 2803 3164  Q 2925 2719 2925 2106  Q 2925 1116 2445 487  Q 1966 -141 1319 -141  Q 909 -141 668 45  Q 428 231 428 550  Q 428 716 522 786  Q 616 856 722 856  Q 838 856 928 779  Q 1019 703 1019 563  Q 1019 447 945 358  Q 872 269 684 269  Q 869 38 1313 38  Q 1472 38 1631 111  Q 1791 184 1964 364  Q 2138 544 2244 922  Q 2350 1300 2350 1831  L 2350 2034  Q 2094 1394 1550 1394  Q 1013 1394 641 1806  Q 269 2219 269 2822  z M 844 2816  Q 844 2181 959 1947  Q 1156 1544 1556 1544  Q 1947 1544 2142 1892  Q 2338 2241 2338 2694  Q 2338 3322 2234 3597  Q 2044 4103 1620 4103  Q 1197 4103 978 3700  Q 844 3463 844 2816  z "
                 transform="scale(0.015625)" />
            </defs>
            <use
               xlink:href="#CMUSerif-Roman-53"
               id="use138" />
            <use
               xlink:href="#CMUSerif-Roman-74"
               transform="translate(55.46875 0)"
               id="use139" />
            <use
               xlink:href="#CMUSerif-Roman-61"
               transform="translate(94.238281 0)"
               id="use140" />
            <use
               xlink:href="#CMUSerif-Roman-67"
               transform="translate(144.238281 0)"
               id="use141" />
            <use
               xlink:href="#CMUSerif-Roman-65"
               transform="translate(194.238281 0)"
               id="use142" />
            <use
               xlink:href="#CMUSerif-Roman-20"
               transform="translate(238.623047 0)"
               id="use143" />
            <use
               xlink:href="#CMUSerif-Roman-31"
               transform="translate(271.875 0)"
               id="use144" />
            <use
               xlink:href="#CMUSerif-Roman-20"
               transform="translate(321.875 0)"
               id="use145" />
            <use
               xlink:href="#CMUSerif-Roman-2014"
               transform="translate(355.126953 0)"
               id="use146" />
            <use
               xlink:href="#CMUSerif-Roman-20"
               transform="translate(455.126953 0)"
               id="use147" />
            <use
               xlink:href="#CMUSerif-Roman-54"
               transform="translate(488.378906 0)"
               id="use148" />
            <use
               xlink:href="#CMUSerif-Roman-61"
               transform="translate(560.546875 0)"
               id="use149" />
            <use
               xlink:href="#CMUSerif-Roman-6b"
               transform="translate(610.546875 0)"
               id="use150" />
            <use
               xlink:href="#CMUSerif-Roman-65"
               transform="translate(663.232422 0)"
               id="use151" />
            <use
               xlink:href="#CMUSerif-Roman-2d"
               transform="translate(707.617188 0)"
               id="use152" />
            <use
               xlink:href="#CMUSerif-Roman-6f"
               transform="translate(740.869141 0)"
               id="use153" />
            <use
               xlink:href="#CMUSerif-Roman-66"
               transform="translate(790.869141 0)"
               id="use154" />
            <use
               xlink:href="#CMUSerif-Roman-66"
               transform="translate(821.337891 0)"
               id="use155" />
            <use
               xlink:href="#CMUSerif-Roman-20"
               transform="translate(851.806641 0)"
               id="use156" />
            <use
               xlink:href="#CMUSerif-Roman-6f"
               transform="translate(885.058594 0)"
               id="use157" />
            <use
               xlink:href="#CMUSerif-Roman-6e"
               transform="translate(935.058594 0)"
               id="use158" />
            <use
               xlink:href="#CMUSerif-Roman-6c"
               transform="translate(990.527344 0)"
               id="use159" />
            <use
               xlink:href="#CMUSerif-Roman-79"
               transform="translate(1018.212891 0)"
               id="use160" />
            <use
               xlink:href="#CMUSerif-Roman-20"
               transform="translate(1070.898438 0)"
               id="use161" />
            <use
               xlink:href="#CMUSerif-Roman-20"
               transform="translate(1104.150391 0)"
               id="use162" />
            <use
               xlink:href="#CMUSerif-Roman-28"
               transform="translate(1137.402344 0)"
               id="use163" />
            <use
               xlink:href="#CMUSerif-Roman-4e"
               transform="translate(1176.171875 0)"
               id="use164" />
            <use
               xlink:href="#CMUSerif-Roman-41"
               transform="translate(1251.171875 0)"
               id="use165" />
            <use
               xlink:href="#CMUSerif-Roman-43"
               transform="translate(1326.171875 0)"
               id="use166" />
            <use
               xlink:href="#CMUSerif-Roman-41"
               transform="translate(1398.339844 0)"
               id="use167" />
            <use
               xlink:href="#CMUSerif-Roman-20"
               transform="translate(1473.339844 0)"
               id="use168" />
            <use
               xlink:href="#CMUSerif-Roman-37"
               transform="translate(1506.591797 0)"
               id="use169" />
            <use
               xlink:href="#CMUSerif-Roman-34"
               transform="translate(1556.591797 0)"
               id="use170" />
            <use
               xlink:href="#CMUSerif-Roman-30"
               transform="translate(1606.591797 0)"
               id="use171" />
            <use
               xlink:href="#CMUSerif-Roman-39"
               transform="translate(1656.591797 0)"
               id="use172" />
            <use
               xlink:href="#CMUSerif-Roman-29"
               transform="translate(1706.591797 0)"
               id="use173" />
          </g>
        </g>
        <g
           id="line2d_21">
          <path
             d="M 520.472656 45.215569  L 532.472656 45.215569  L 544.472656 45.215569  "
             style="fill: none; stroke: #a23737; stroke-opacity: 0.7; stroke-linecap: square"
             id="path173" />
        </g>
        <g
           id="text_13">
          <!-- Stage 1 — Cruise only  (NACA 5210) -->
          <g
             transform="translate(554.072656 49.415569) scale(0.12 -0.12)"
             id="g207">
            <defs
               id="defs173">
              <path
                 id="CMUSerif-Roman-75"
                 d="M 206 2559  L 206 2759  L 1147 2828  L 1147 703  Q 1147 550 1159 461  Q 1172 372 1223 269  Q 1275 166 1395 119  Q 1516 72 1709 72  Q 2056 72 2270 356  Q 2484 641 2484 1063  L 2484 2203  Q 2484 2441 2400 2500  Q 2316 2559 1984 2559  L 1984 2759  L 2925 2828  L 2925 556  Q 2925 319 3008 258  Q 3091 197 3425 197  L 3425 0  L 2503 -72  L 2503 506  Q 2234 -69 1678 -72  Q 1397 -72 1205 0  Q 1013 72 916 161  Q 819 250 767 422  Q 716 594 709 700  Q 703 806 703 1013  L 703 1972  Q 703 2406 640 2482  Q 578 2559 206 2559  z "
                 transform="scale(0.015625)" />
              <path
                 id="CMUSerif-Roman-35"
                 d="M 319 1031  Q 319 1222 422 1295  Q 525 1369 634 1369  Q 781 1369 867 1276  Q 953 1184 953 1056  Q 953 928 867 836  Q 781 744 634 744  Q 563 744 525 756  Q 609 463 867 250  Q 1125 38 1466 38  Q 1894 38 2150 453  Q 2303 722 2303 1331  Q 2303 1869 2188 2138  Q 2009 2547 1644 2547  Q 1125 2547 819 2100  Q 781 2044 738 2041  Q 675 2041 661 2077  Q 647 2113 647 2209  L 647 4103  Q 647 4256 709 4256  Q 734 4256 788 4238  Q 1191 4059 1638 4056  Q 2097 4056 2509 4244  Q 2541 4263 2559 4263  Q 2622 4263 2625 4191  Q 2625 4166 2573 4092  Q 2522 4019 2412 3923  Q 2303 3828 2162 3737  Q 2022 3647 1817 3586  Q 1613 3525 1388 3525  Q 1119 3525 844 3609  L 844 2363  Q 1175 2688 1656 2688  Q 2169 2688 2522 2275  Q 2875 1863 2875 1288  Q 2875 684 2458 271  Q 2041 -141 1478 -141  Q 966 -141 642 225  Q 319 591 319 1031  z "
                 transform="scale(0.015625)" />
            </defs>
            <use
               xlink:href="#CMUSerif-Roman-53"
               id="use174" />
            <use
               xlink:href="#CMUSerif-Roman-74"
               transform="translate(55.46875 0)"
               id="use175" />
            <use
               xlink:href="#CMUSerif-Roman-61"
               transform="translate(94.238281 0)"
               id="use176" />
            <use
               xlink:href="#CMUSerif-Roman-67"
               transform="translate(144.238281 0)"
               id="use177" />
            <use
               xlink:href="#CMUSerif-Roman-65"
               transform="translate(194.238281 0)"
               id="use178" />
            <use
               xlink:href="#CMUSerif-Roman-20"
               transform="translate(238.623047 0)"
               id="use179" />
            <use
               xlink:href="#CMUSerif-Roman-31"
               transform="translate(271.875 0)"
               id="use180" />
            <use
               xlink:href="#CMUSerif-Roman-20"
               transform="translate(321.875 0)"
               id="use181" />
            <use
               xlink:href="#CMUSerif-Roman-2014"
               transform="translate(355.126953 0)"
               id="use182" />
            <use
               xlink:href="#CMUSerif-Roman-20"
               transform="translate(455.126953 0)"
               id="use183" />
            <use
               xlink:href="#CMUSerif-Roman-43"
               transform="translate(488.378906 0)"
               id="use184" />
            <use
               xlink:href="#CMUSerif-Roman-72"
               transform="translate(560.546875 0)"
               id="use185" />
            <use
               xlink:href="#CMUSerif-Roman-75"
               transform="translate(599.609375 0)"
               id="use186" />
            <use
               xlink:href="#CMUSerif-Roman-69"
               transform="translate(655.078125 0)"
               id="use187" />
            <use
               xlink:href="#CMUSerif-Roman-73"
               transform="translate(682.763672 0)"
               id="use188" />
            <use
               xlink:href="#CMUSerif-Roman-65"
               transform="translate(722.119141 0)"
               id="use189" />
            <use
               xlink:href="#CMUSerif-Roman-20"
               transform="translate(766.503906 0)"
               id="use190" />
            <use
               xlink:href="#CMUSerif-Roman-6f"
               transform="translate(799.755859 0)"
               id="use191" />
            <use
               xlink:href="#CMUSerif-Roman-6e"
               transform="translate(849.755859 0)"
               id="use192" />
            <use
               xlink:href="#CMUSerif-Roman-6c"
               transform="translate(905.224609 0)"
               id="use193" />
            <use
               xlink:href="#CMUSerif-Roman-79"
               transform="translate(932.910156 0)"
               id="use194" />
            <use
               xlink:href="#CMUSerif-Roman-20"
               transform="translate(985.595703 0)"
               id="use195" />
            <use
               xlink:href="#CMUSerif-Roman-20"
               transform="translate(1018.847656 0)"
               id="use196" />
            <use
               xlink:href="#CMUSerif-Roman-28"
               transform="translate(1052.099609 0)"
               id="use197" />
            <use
               xlink:href="#CMUSerif-Roman-4e"
               transform="translate(1090.869141 0)"
               id="use198" />
            <use
               xlink:href="#CMUSerif-Roman-41"
               transform="translate(1165.869141 0)"
               id="use199" />
            <use
               xlink:href="#CMUSerif-Roman-43"
               transform="translate(1240.869141 0)"
               id="use200" />
            <use
               xlink:href="#CMUSerif-Roman-41"
               transform="translate(1313.037109 0)"
               id="use201" />
            <use
               xlink:href="#CMUSerif-Roman-20"
               transform="translate(1388.037109 0)"
               id="use202" />
            <use
               xlink:href="#CMUSerif-Roman-35"
               transform="translate(1421.289062 0)"
               id="use203" />
            <use
               xlink:href="#CMUSerif-Roman-32"
               transform="translate(1471.289062 0)"
               id="use204" />
            <use
               xlink:href="#CMUSerif-Roman-31"
               transform="translate(1521.289062 0)"
               id="use205" />
            <use
               xlink:href="#CMUSerif-Roman-30"
               transform="translate(1571.289062 0)"
               id="use206" />
            <use
               xlink:href="#CMUSerif-Roman-29"
               transform="translate(1621.289062 0)"
               id="use207" />
          </g>
        </g>
        <g
           id="line2d_22">
          <path
             d="M 520.472656 63.215569  L 532.472656 63.215569  L 544.472656 63.215569  "
             style="fill: none; stroke: #196b3a; stroke-opacity: 0.7; stroke-linecap: square"
             id="path207" />
        </g>
        <g
           id="text_14">
          <!-- Stage 1 — Landing only  (NACA 8308) -->
          <g
             transform="translate(554.072656 67.415569) scale(0.12 -0.12)"
             id="g242">
            <defs
               id="defs207">
              <path
                 id="CMUSerif-Roman-4c"
                 d="M 213 0  L 213 197  L 366 197  Q 713 197 792 255  Q 872 313 872 500  L 872 3872  Q 872 4056 790 4114  Q 709 4172 366 4172  L 213 4172  L 213 4372  Q 438 4353 1184 4353  Q 2028 4353 2259 4372  L 2259 4172  L 2047 4172  Q 1753 4172 1618 4134  Q 1484 4097 1462 4045  Q 1441 3994 1441 3866  L 1441 453  Q 1441 288 1489 242  Q 1538 197 1753 197  L 2278 197  Q 2603 197 2837 294  Q 3072 391 3197 512  Q 3322 634 3405 864  Q 3488 1094 3514 1241  Q 3541 1388 3566 1650  L 3725 1650  L 3547 0  L 213 0  z "
                 transform="scale(0.015625)" />
              <path
                 id="CMUSerif-Roman-33"
                 d="M 269 863  Q 269 1053 378 1143  Q 488 1234 628 1234  Q 775 1234 879 1139  Q 984 1044 984 878  Q 984 700 861 600  Q 738 500 563 525  Q 716 269 998 153  Q 1281 38 1544 38  Q 1819 38 2042 275  Q 2266 513 2266 1094  Q 2266 1588 2073 1872  Q 1881 2156 1503 2156  L 1222 2156  Q 1125 2156 1097 2165  Q 1069 2175 1069 2228  Q 1069 2291 1166 2303  Q 1263 2303 1416 2322  Q 1788 2334 1984 2656  Q 2163 2956 2163 3384  Q 2163 3775 1977 3939  Q 1791 4103 1550 4103  Q 1325 4103 1078 4009  Q 831 3916 697 3706  Q 1094 3706 1094 3384  Q 1094 3244 1005 3151  Q 916 3059 769 3059  Q 628 3059 534 3148  Q 441 3238 441 3391  Q 441 3756 767 4009  Q 1094 4263 1575 4263  Q 2050 4263 2401 4013  Q 2753 3763 2753 3378  Q 2753 3000 2503 2690  Q 2253 2381 1856 2253  Q 2344 2156 2634 1826  Q 2925 1497 2925 1094  Q 2925 594 2531 226  Q 2138 -141 1563 -141  Q 1031 -141 650 146  Q 269 434 269 863  z "
                 transform="scale(0.015625)" />
            </defs>
            <use
               xlink:href="#CMUSerif-Roman-53"
               id="use208" />
            <use
               xlink:href="#CMUSerif-Roman-74"
               transform="translate(55.46875 0)"
               id="use209" />
            <use
               xlink:href="#CMUSerif-Roman-61"
               transform="translate(94.238281 0)"
               id="use210" />
            <use
               xlink:href="#CMUSerif-Roman-67"
               transform="translate(144.238281 0)"
               id="use211" />
            <use
               xlink:href="#CMUSerif-Roman-65"
               transform="translate(194.238281 0)"
               id="use212" />
            <use
               xlink:href="#CMUSerif-Roman-20"
               transform="translate(238.623047 0)"
               id="use213" />
            <use
               xlink:href="#CMUSerif-Roman-31"
               transform="translate(271.875 0)"
               id="use214" />
            <use
               xlink:href="#CMUSerif-Roman-20"
               transform="translate(321.875 0)"
               id="use215" />
            <use
               xlink:href="#CMUSerif-Roman-2014"
               transform="translate(355.126953 0)"
               id="use216" />
            <use
               xlink:href="#CMUSerif-Roman-20"
               transform="translate(455.126953 0)"
               id="use217" />
            <use
               xlink:href="#CMUSerif-Roman-4c"
               transform="translate(488.378906 0)"
               id="use218" />
            <use
               xlink:href="#CMUSerif-Roman-61"
               transform="translate(550.878906 0)"
               id="use219" />
            <use
               xlink:href="#CMUSerif-Roman-6e"
               transform="translate(600.878906 0)"
               id="use220" />
            <use
               xlink:href="#CMUSerif-Roman-64"
               transform="translate(656.347656 0)"
               id="use221" />
            <use
               xlink:href="#CMUSerif-Roman-69"
               transform="translate(711.816406 0)"
               id="use222" />
            <use
               xlink:href="#CMUSerif-Roman-6e"
               transform="translate(739.501953 0)"
               id="use223" />
            <use
               xlink:href="#CMUSerif-Roman-67"
               transform="translate(794.970703 0)"
               id="use224" />
            <use
               xlink:href="#CMUSerif-Roman-20"
               transform="translate(844.970703 0)"
               id="use225" />
            <use
               xlink:href="#CMUSerif-Roman-6f"
               transform="translate(878.222656 0)"
               id="use226" />
            <use
               xlink:href="#CMUSerif-Roman-6e"
               transform="translate(928.222656 0)"
               id="use227" />
            <use
               xlink:href="#CMUSerif-Roman-6c"
               transform="translate(983.691406 0)"
               id="use228" />
            <use
               xlink:href="#CMUSerif-Roman-79"
               transform="translate(1011.376953 0)"
               id="use229" />
            <use
               xlink:href="#CMUSerif-Roman-20"
               transform="translate(1064.0625 0)"
               id="use230" />
            <use
               xlink:href="#CMUSerif-Roman-20"
               transform="translate(1097.314453 0)"
               id="use231" />
            <use
               xlink:href="#CMUSerif-Roman-28"
               transform="translate(1130.566406 0)"
               id="use232" />
            <use
               xlink:href="#CMUSerif-Roman-4e"
               transform="translate(1169.335938 0)"
               id="use233" />
            <use
               xlink:href="#CMUSerif-Roman-41"
               transform="translate(1244.335938 0)"
               id="use234" />
            <use
               xlink:href="#CMUSerif-Roman-43"
               transform="translate(1319.335938 0)"
               id="use235" />
            <use
               xlink:href="#CMUSerif-Roman-41"
               transform="translate(1391.503906 0)"
               id="use236" />
            <use
               xlink:href="#CMUSerif-Roman-20"
               transform="translate(1466.503906 0)"
               id="use237" />
            <use
               xlink:href="#CMUSerif-Roman-38"
               transform="translate(1499.755859 0)"
               id="use238" />
            <use
               xlink:href="#CMUSerif-Roman-33"
               transform="translate(1549.755859 0)"
               id="use239" />
            <use
               xlink:href="#CMUSerif-Roman-30"
               transform="translate(1599.755859 0)"
               id="use240" />
            <use
               xlink:href="#CMUSerif-Roman-38"
               transform="translate(1649.755859 0)"
               id="use241" />
            <use
               xlink:href="#CMUSerif-Roman-29"
               transform="translate(1699.755859 0)"
               id="use242" />
          </g>
        </g>
        <g
           id="line2d_23">
          <path
             d="M 520.472656 81.215569  L 532.472656 81.215569  L 544.472656 81.215569  "
             style="fill: none; stroke: #000000; stroke-width: 2; stroke-linecap: square"
             id="path242" />
        </g>
        <g
           id="text_15">
          <!-- Stage 2 — Multi-point (whole mission)  (NACA 4312) -->
          <g
             transform="translate(554.072656 85.415569) scale(0.12 -0.12)"
             id="g292">
            <defs
               id="defs242">
              <path
                 id="CMUSerif-Roman-4d"
                 d="M 238 0  L 238 197  Q 469 197 616 242  Q 763 288 817 373  Q 872 459 884 517  Q 897 575 897 672  L 897 3872  Q 897 4056 817 4114  Q 738 4172 391 4172  L 238 4172  L 238 4372  L 1319 4372  Q 1434 4372 1465 4351  Q 1497 4331 1544 4231  L 2931 647  L 4331 4250  Q 4363 4341 4392 4356  Q 4422 4372 4544 4372  L 5625 4372  L 5625 4172  L 5472 4172  Q 5125 4172 5045 4114  Q 4966 4056 4966 3872  L 4966 500  Q 4966 316 5045 256  Q 5125 197 5472 197  L 5625 197  L 5625 0  Q 5388 19 4709 19  Q 4025 19 3788 0  L 3788 197  L 3944 197  Q 4291 197 4369 255  Q 4447 313 4447 500  L 4447 4172  L 4441 4172  L 2869 122  Q 2825 0 2753 0  Q 2675 0 2625 141  L 1081 4122  L 1075 4122  L 1075 672  Q 1075 575 1087 517  Q 1100 459 1154 373  Q 1209 288 1356 242  Q 1503 197 1734 197  L 1734 0  Q 1063 19 986 19  Q 909 19 238 0  z "
                 transform="scale(0.015625)" />
            </defs>
            <use
               xlink:href="#CMUSerif-Roman-53"
               id="use243" />
            <use
               xlink:href="#CMUSerif-Roman-74"
               transform="translate(55.46875 0)"
               id="use244" />
            <use
               xlink:href="#CMUSerif-Roman-61"
               transform="translate(94.238281 0)"
               id="use245" />
            <use
               xlink:href="#CMUSerif-Roman-67"
               transform="translate(144.238281 0)"
               id="use246" />
            <use
               xlink:href="#CMUSerif-Roman-65"
               transform="translate(194.238281 0)"
               id="use247" />
            <use
               xlink:href="#CMUSerif-Roman-20"
               transform="translate(238.623047 0)"
               id="use248" />
            <use
               xlink:href="#CMUSerif-Roman-32"
               transform="translate(271.875 0)"
               id="use249" />
            <use
               xlink:href="#CMUSerif-Roman-20"
               transform="translate(321.875 0)"
               id="use250" />
            <use
               xlink:href="#CMUSerif-Roman-2014"
               transform="translate(355.126953 0)"
               id="use251" />
            <use
               xlink:href="#CMUSerif-Roman-20"
               transform="translate(455.126953 0)"
               id="use252" />
            <use
               xlink:href="#CMUSerif-Roman-4d"
               transform="translate(488.378906 0)"
               id="use253" />
            <use
               xlink:href="#CMUSerif-Roman-75"
               transform="translate(579.931641 0)"
               id="use254" />
            <use
               xlink:href="#CMUSerif-Roman-6c"
               transform="translate(635.400391 0)"
               id="use255" />
            <use
               xlink:href="#CMUSerif-Roman-74"
               transform="translate(663.085938 0)"
               id="use256" />
            <use
               xlink:href="#CMUSerif-Roman-69"
               transform="translate(701.855469 0)"
               id="use257" />
            <use
               xlink:href="#CMUSerif-Roman-2d"
               transform="translate(729.541016 0)"
               id="use258" />
            <use
               xlink:href="#CMUSerif-Roman-70"
               transform="translate(762.792969 0)"
               id="use259" />
            <use
               xlink:href="#CMUSerif-Roman-6f"
               transform="translate(818.261719 0)"
               id="use260" />
            <use
               xlink:href="#CMUSerif-Roman-69"
               transform="translate(868.261719 0)"
               id="use261" />
            <use
               xlink:href="#CMUSerif-Roman-6e"
               transform="translate(895.947266 0)"
               id="use262" />
            <use
               xlink:href="#CMUSerif-Roman-74"
               transform="translate(951.416016 0)"
               id="use263" />
            <use
               xlink:href="#CMUSerif-Roman-20"
               transform="translate(990.185547 0)"
               id="use264" />
            <use
               xlink:href="#CMUSerif-Roman-20"
               transform="translate(1311.914062 0)"
               id="use271" />
            <use
               xlink:href="#CMUSerif-Roman-20"
               transform="translate(1706.738281 0)"
               id="use280" />
            <use
               xlink:href="#CMUSerif-Roman-20"
               transform="translate(1739.990234 0)"
               id="use281" />
            <use
               xlink:href="#CMUSerif-Roman-28"
               transform="translate(1071.7896)"
               id="use282" />
            <use
               xlink:href="#CMUSerif-Roman-4e"
               transform="translate(1110.5592)"
               id="use283" />
            <use
               xlink:href="#CMUSerif-Roman-41"
               transform="translate(1185.5592)"
               id="use284" />
            <use
               xlink:href="#CMUSerif-Roman-43"
               transform="translate(1260.5592)"
               id="use285" />
            <use
               xlink:href="#CMUSerif-Roman-41"
               transform="translate(1332.7271)"
               id="use286" />
            <use
               xlink:href="#CMUSerif-Roman-20"
               transform="translate(2109.179688 0)"
               id="use287" />
            <use
               xlink:href="#CMUSerif-Roman-34"
               transform="translate(1440.9791)"
               id="use288" />
            <use
               xlink:href="#CMUSerif-Roman-33"
               transform="translate(1490.9791)"
               id="use289" />
            <use
               xlink:href="#CMUSerif-Roman-31"
               transform="translate(1540.9791)"
               id="use290" />
            <use
               xlink:href="#CMUSerif-Roman-32"
               transform="translate(1590.9791)"
               id="use291" />
            <use
               xlink:href="#CMUSerif-Roman-29"
               transform="translate(1640.9791)"
               id="use292" />
          </g>
        </g>
      </g>
      <g
         id="line2d_24">
        <path
           d="M 480.218111 75.054551  L 464.645666 71.068072  L 450.043029 67.523107  L 434.540705 63.956086  L 416.275162 60.003561  L 399.874844 56.678888  L 382.074617 53.305957  L 363.067298 49.972924  L 348.144168 47.551281  L 332.751217 45.235963  L 316.98452 43.061203  L 300.943129 41.059881  L 284.72848 39.263212  L 268.443774 37.700347  L 252.193325 36.397867  L 236.081869 35.379196  L 220.213841 34.663949  L 204.692603 34.267259  L 194.587999 34.184951  L 184.306092 34.332816  L 174.279867 34.799949  L 164.563523 35.570188  L 155.19101 36.62434  L 146.194671 37.94065  L 137.605013 39.495137  L 129.450501 41.261974  L 121.757395 43.213893  L 114.549627 45.322624  L 107.848717 47.559344  L 101.673725 49.895135  L 96.041246 52.301444  L 90.96543 54.750533  L 86.458032 57.215916  L 82.528487 59.672767  L 79.18399 62.098308  L 76.429602 64.472153  L 74.26834 66.776616  L 72.701276 68.996968  L 72.140395 70.071862  L 71.727628 71.121653  L 71.462602 72.145417  L 71.344832 73.142446  L 71.373731 74.112249  L 71.548605 75.054551  L 71.865883 75.958891  L 72.321895 76.814962  L 72.91565 77.622966  L 73.646064 78.383205  L 74.51196 79.096074  L 75.512072 79.762065  L 77.90944 80.955839  L 80.826335 81.970298  L 84.249676 82.812627  L 88.165264 83.491377  L 92.55792 84.016404  L 97.411648 84.398811  L 105.520168 84.732189  L 114.570331 84.818644  L 127.998912 84.6388  L 150.770775 84.010914  L 171.854182 83.471684  L 189.902751 83.241173  L 214.595677 83.090127  L 235.296143 82.725705  L 261.796188 82.040848  L 304.582541 80.658648  L 410.758934 77.113385  L 480.218111 75.054551  L 480.218111 75.054551  "
           clip-path="url(#p2b750edd5e)"
           style="fill: none; stroke: #000000; stroke-width: 2; stroke-linecap: square"
           id="path292" />
      </g>
    </g>
  </g>
  <defs
     id="defs292">
    <clipPath
       id="p2b750edd5e">
      <rect
         x="50.672656"
         y="23.072187"
         width="450"
         height="64.686764"
         id="rect292" />
    </clipPath>
  </defs>
</svg>
