<?xml version="1.0" encoding="utf-8" standalone="no"?>
<!DOCTYPE svg PUBLIC "-//W3C//DTD SVG 1.1//EN"
  "http://www.w3.org/Graphics/SVG/1.1/DTD/svg11.dtd">
<svg xmlns:xlink="http://www.w3.org/1999/xlink" width="714.464653pt" height="342.469844pt" viewBox="0 0 714.464653 342.469844" xmlns="http://www.w3.org/2000/svg" version="1.1">
 <metadata>
  <rdf:RDF xmlns:dc="http://purl.org/dc/elements/1.1/" xmlns:cc="http://creativecommons.org/ns#" xmlns:rdf="http://www.w3.org/1999/02/22-rdf-syntax-ns#">
   <cc:Work>
    <dc:type rdf:resource="http://purl.org/dc/dcmitype/StillImage"/>
    <dc:date>2026-06-02T13:40:55.804726</dc:date>
    <dc:format>image/svg+xml</dc:format>
    <dc:creator>
     <cc:Agent>
      <dc:title>Matplotlib v3.10.0, https://matplotlib.org/</dc:title>
     </cc:Agent>
    </dc:creator>
   </cc:Work>
  </rdf:RDF>
 </metadata>
 <defs>
  <style type="text/css">*{stroke-linejoin: round; stroke-linecap: butt}</style>
 </defs>
 <g id="figure_1">
  <g id="patch_1">
   <path d="M 0 342.469844 
L 714.464653 342.469844 
L 714.464653 0 
L 0 0 
z
" style="fill: #ffffff"/>
  </g>
  <g id="axes_1">
   <g id="patch_2">
    <path d="M 50.962656 296.672188 
L 698.962656 296.672188 
L 698.962656 23.072187 
L 50.962656 23.072187 
z
" style="fill: #fbfbfc"/>
   </g>
   <g id="PathCollection_1">
    <defs>
     <path id="m7a62877994" d="M 0 -7.071068 
L -1.587554 -2.18508 
L -6.724985 -2.18508 
L -2.568716 0.834626 
L -4.156269 5.720614 
L -0 2.700907 
L 4.156269 5.720614 
L 2.568716 0.834626 
L 6.724985 -2.18508 
L 1.587554 -2.18508 
z
" style="stroke: #000000; stroke-width: 1.2"/>
    </defs>
    <g clip-path="url(#pc15f8dd770)"/>
   </g>
   <g id="matplotlib.axis_1">
    <g id="xtick_1">
     <g id="line2d_1">
      <path d="M 114.069201 296.672188 
L 114.069201 23.072187 
" clip-path="url(#pc15f8dd770)" style="fill: none; stroke-dasharray: 2.96,1.28; stroke-dashoffset: 0; stroke: #999999; stroke-opacity: 0.28; stroke-width: 0.8"/>
     </g>
     <g id="line2d_2">
      <defs>
       <path id="mbc4fd20086" d="M 0 0 
L 0 3.5 
" style="stroke: #000000; stroke-width: 0.8"/>
      </defs>
      <g>
       <use xlink:href="#mbc4fd20086" x="114.069201" y="296.672188" style="stroke: #000000; stroke-width: 0.8"/>
      </g>
     </g>
     <g id="text_1">
      <!-- 0.006 -->
      <g transform="translate(99.832873 312.346016) scale(0.125 -0.125)">
       <defs>
        <path id="CMUSerif-Roman-30" d="M 250 2047 
Q 250 2988 488 3500 
Q 819 4263 1600 4263 
Q 1766 4263 1939 4217 
Q 2113 4172 2333 4000 
Q 2553 3828 2688 3547 
Q 2944 3003 2944 2047 
Q 2944 1113 2706 603 
Q 2359 -141 1594 -141 
Q 1306 -141 1014 6 
Q 722 153 538 506 
Q 250 1034 250 2047 
z
M 781 2125 
Q 781 1159 850 775 
Q 928 359 1142 179 
Q 1356 0 1594 0 
Q 1850 0 2064 192 
Q 2278 384 2344 800 
Q 2416 1209 2413 2125 
Q 2413 3016 2350 3372 
Q 2266 3788 2042 3955 
Q 1819 4122 1594 4122 
Q 1509 4122 1420 4097 
Q 1331 4072 1203 4000 
Q 1075 3928 976 3750 
Q 878 3572 831 3303 
Q 781 2956 781 2125 
z
" transform="scale(0.015625)"/>
        <path id="CMUSerif-Roman-2e" d="M 641 103 
Q 544 206 544 340 
Q 544 475 641 573 
Q 738 672 884 672 
Q 1025 672 1120 580 
Q 1216 488 1216 339 
Q 1216 191 1114 95 
Q 1013 0 884 0 
Q 738 0 641 103 
z
" transform="scale(0.015625)"/>
        <path id="CMUSerif-Roman-36" d="M 269 2022 
Q 269 3028 781 3645 
Q 1294 4263 1953 4263 
Q 2338 4263 2552 4067 
Q 2766 3872 2766 3572 
Q 2766 3406 2669 3334 
Q 2572 3263 2472 3263 
Q 2356 3263 2265 3341 
Q 2175 3419 2175 3559 
Q 2175 3847 2528 3847 
Q 2363 4103 1966 4103 
Q 1844 4103 1719 4067 
Q 1594 4031 1431 3912 
Q 1269 3794 1144 3606 
Q 1019 3419 931 3066 
Q 844 2713 844 2253 
L 844 2100 
Q 1106 2734 1643 2732 
Q 2181 2731 2553 2322 
Q 2925 1913 2925 1306 
Q 2925 684 2537 271 
Q 2150 -141 1606 -141 
Q 1363 -141 1142 -39 
Q 922 63 717 294 
Q 513 525 391 969 
Q 269 1413 269 2022 
z
M 856 1447 
Q 856 819 972 519 
Q 991 469 1033 400 
Q 1075 331 1148 242 
Q 1222 153 1344 95 
Q 1466 38 1606 38 
Q 2034 38 2241 453 
Q 2350 684 2350 1313 
Q 2350 1953 2234 2188 
Q 2038 2584 1638 2584 
Q 1369 2584 1183 2400 
Q 997 2216 926 1969 
Q 856 1722 856 1447 
z
" transform="scale(0.015625)"/>
       </defs>
       <use xlink:href="#CMUSerif-Roman-30"/>
       <use xlink:href="#CMUSerif-Roman-2e" transform="translate(50 0)"/>
       <use xlink:href="#CMUSerif-Roman-30" transform="translate(77.783203 0)"/>
       <use xlink:href="#CMUSerif-Roman-30" transform="translate(127.783203 0)"/>
       <use xlink:href="#CMUSerif-Roman-36" transform="translate(177.783203 0)"/>
      </g>
     </g>
    </g>
    <g id="xtick_2">
     <g id="line2d_3">
      <path d="M 186.439091 296.672188 
L 186.439091 23.072187 
" clip-path="url(#pc15f8dd770)" style="fill: none; stroke-dasharray: 2.96,1.28; stroke-dashoffset: 0; stroke: #999999; stroke-opacity: 0.28; stroke-width: 0.8"/>
     </g>
     <g id="line2d_4">
      <g>
       <use xlink:href="#mbc4fd20086" x="186.439091" y="296.672188" style="stroke: #000000; stroke-width: 0.8"/>
      </g>
     </g>
     <g id="text_2">
      <!-- 0.008 -->
      <g transform="translate(172.202763 312.346016) scale(0.125 -0.125)">
       <defs>
        <path id="CMUSerif-Roman-38" d="M 269 966 
Q 269 1681 1191 2144 
Q 794 2413 722 2491 
Q 441 2803 441 3194 
Q 441 3641 780 3952 
Q 1119 4263 1600 4263 
Q 2059 4263 2406 3997 
Q 2753 3731 2753 3309 
Q 2753 2716 1978 2316 
Q 2491 1997 2613 1863 
Q 2925 1516 2925 1075 
Q 2925 563 2531 211 
Q 2138 -141 1594 -141 
Q 1063 -141 666 168 
Q 269 478 269 966 
z
M 588 966 
Q 588 569 886 303 
Q 1184 38 1600 38 
Q 2003 38 2304 269 
Q 2606 500 2606 844 
Q 2606 978 2561 1093 
Q 2516 1209 2427 1301 
Q 2338 1394 2283 1436 
Q 2228 1478 2125 1550 
L 1338 2047 
Q 588 1631 588 966 
z
M 722 3444 
Q 722 3138 1044 2925 
L 1838 2413 
Q 2472 2784 2472 3309 
Q 2472 3650 2212 3876 
Q 1953 4103 1594 4103 
Q 1241 4103 981 3917 
Q 722 3731 722 3444 
z
" transform="scale(0.015625)"/>
       </defs>
       <use xlink:href="#CMUSerif-Roman-30"/>
       <use xlink:href="#CMUSerif-Roman-2e" transform="translate(50 0)"/>
       <use xlink:href="#CMUSerif-Roman-30" transform="translate(77.783203 0)"/>
       <use xlink:href="#CMUSerif-Roman-30" transform="translate(127.783203 0)"/>
       <use xlink:href="#CMUSerif-Roman-38" transform="translate(177.783203 0)"/>
      </g>
     </g>
    </g>
    <g id="xtick_3">
     <g id="line2d_5">
      <path d="M 258.808982 296.672188 
L 258.808982 23.072187 
" clip-path="url(#pc15f8dd770)" style="fill: none; stroke-dasharray: 2.96,1.28; stroke-dashoffset: 0; stroke: #999999; stroke-opacity: 0.28; stroke-width: 0.8"/>
     </g>
     <g id="line2d_6">
      <g>
       <use xlink:href="#mbc4fd20086" x="258.808982" y="296.672188" style="stroke: #000000; stroke-width: 0.8"/>
      </g>
     </g>
     <g id="text_3">
      <!-- 0.010 -->
      <g transform="translate(244.572654 312.346016) scale(0.125 -0.125)">
       <defs>
        <path id="CMUSerif-Roman-31" d="M 569 3653 
L 569 3853 
Q 1338 3853 1734 4263 
Q 1844 4263 1862 4238 
Q 1881 4213 1881 4097 
L 1881 506 
Q 1881 316 1975 256 
Q 2069 197 2478 197 
L 2681 197 
L 2681 0 
Q 2456 19 1643 19 
Q 831 19 609 0 
L 609 197 
L 813 197 
Q 1216 197 1312 255 
Q 1409 313 1409 506 
L 1409 3822 
Q 1075 3653 569 3653 
z
" transform="scale(0.015625)"/>
       </defs>
       <use xlink:href="#CMUSerif-Roman-30"/>
       <use xlink:href="#CMUSerif-Roman-2e" transform="translate(50 0)"/>
       <use xlink:href="#CMUSerif-Roman-30" transform="translate(77.783203 0)"/>
       <use xlink:href="#CMUSerif-Roman-31" transform="translate(127.783203 0)"/>
       <use xlink:href="#CMUSerif-Roman-30" transform="translate(177.783203 0)"/>
      </g>
     </g>
    </g>
    <g id="xtick_4">
     <g id="line2d_7">
      <path d="M 331.178872 296.672188 
L 331.178872 23.072187 
" clip-path="url(#pc15f8dd770)" style="fill: none; stroke-dasharray: 2.96,1.28; stroke-dashoffset: 0; stroke: #999999; stroke-opacity: 0.28; stroke-width: 0.8"/>
     </g>
     <g id="line2d_8">
      <g>
       <use xlink:href="#mbc4fd20086" x="331.178872" y="296.672188" style="stroke: #000000; stroke-width: 0.8"/>
      </g>
     </g>
     <g id="text_4">
      <!-- 0.012 -->
      <g transform="translate(316.942544 312.346016) scale(0.125 -0.125)">
       <defs>
        <path id="CMUSerif-Roman-32" d="M 319 0 
Q 319 116 330 150 
Q 341 184 391 238 
L 1619 1606 
Q 2291 2363 2291 3022 
Q 2291 3450 2067 3756 
Q 1844 4063 1434 4063 
Q 1153 4063 915 3891 
Q 678 3719 569 3413 
Q 588 3419 653 3419 
Q 813 3419 902 3319 
Q 991 3219 991 3084 
Q 991 2913 880 2830 
Q 769 2747 659 2747 
Q 616 2747 558 2756 
Q 500 2766 409 2855 
Q 319 2944 319 3103 
Q 319 3550 658 3906 
Q 997 4263 1516 4263 
Q 2103 4263 2489 3914 
Q 2875 3566 2875 3022 
Q 2875 2831 2817 2657 
Q 2759 2484 2682 2350 
Q 2606 2216 2400 2000 
Q 2194 1784 2028 1631 
Q 1863 1478 1491 1153 
L 813 494 
L 1966 494 
Q 2528 494 2572 544 
Q 2634 634 2713 1113 
L 2875 1113 
L 2694 0 
L 319 0 
z
" transform="scale(0.015625)"/>
       </defs>
       <use xlink:href="#CMUSerif-Roman-30"/>
       <use xlink:href="#CMUSerif-Roman-2e" transform="translate(50 0)"/>
       <use xlink:href="#CMUSerif-Roman-30" transform="translate(77.783203 0)"/>
       <use xlink:href="#CMUSerif-Roman-31" transform="translate(127.783203 0)"/>
       <use xlink:href="#CMUSerif-Roman-32" transform="translate(177.783203 0)"/>
      </g>
     </g>
    </g>
    <g id="xtick_5">
     <g id="line2d_9">
      <path d="M 403.548763 296.672188 
L 403.548763 23.072187 
" clip-path="url(#pc15f8dd770)" style="fill: none; stroke-dasharray: 2.96,1.28; stroke-dashoffset: 0; stroke: #999999; stroke-opacity: 0.28; stroke-width: 0.8"/>
     </g>
     <g id="line2d_10">
      <g>
       <use xlink:href="#mbc4fd20086" x="403.548763" y="296.672188" style="stroke: #000000; stroke-width: 0.8"/>
      </g>
     </g>
     <g id="text_5">
      <!-- 0.014 -->
      <g transform="translate(389.312435 312.346016) scale(0.125 -0.125)">
       <defs>
        <path id="CMUSerif-Roman-34" d="M 178 1056 
L 178 1253 
L 2144 4256 
Q 2194 4334 2272 4331 
Q 2344 4331 2359 4303 
Q 2375 4275 2375 4166 
L 2375 1253 
L 3016 1253 
L 3016 1056 
L 2375 1056 
L 2375 500 
Q 2375 316 2451 256 
Q 2528 197 2859 197 
L 2994 197 
L 2994 0 
Q 2731 19 2125 19 
Q 1522 19 1259 0 
L 1259 197 
L 1394 197 
Q 1725 197 1803 255 
Q 1881 313 1881 500 
L 1881 1056 
L 178 1056 
z
M 359 1253 
L 1919 1253 
L 1919 3641 
L 359 1253 
z
" transform="scale(0.015625)"/>
       </defs>
       <use xlink:href="#CMUSerif-Roman-30"/>
       <use xlink:href="#CMUSerif-Roman-2e" transform="translate(50 0)"/>
       <use xlink:href="#CMUSerif-Roman-30" transform="translate(77.783203 0)"/>
       <use xlink:href="#CMUSerif-Roman-31" transform="translate(127.783203 0)"/>
       <use xlink:href="#CMUSerif-Roman-34" transform="translate(177.783203 0)"/>
      </g>
     </g>
    </g>
    <g id="xtick_6">
     <g id="line2d_11">
      <path d="M 475.918654 296.672188 
L 475.918654 23.072187 
" clip-path="url(#pc15f8dd770)" style="fill: none; stroke-dasharray: 2.96,1.28; stroke-dashoffset: 0; stroke: #999999; stroke-opacity: 0.28; stroke-width: 0.8"/>
     </g>
     <g id="line2d_12">
      <g>
       <use xlink:href="#mbc4fd20086" x="475.918654" y="296.672188" style="stroke: #000000; stroke-width: 0.8"/>
      </g>
     </g>
     <g id="text_6">
      <!-- 0.016 -->
      <g transform="translate(461.682325 312.346016) scale(0.125 -0.125)">
       <use xlink:href="#CMUSerif-Roman-30"/>
       <use xlink:href="#CMUSerif-Roman-2e" transform="translate(50 0)"/>
       <use xlink:href="#CMUSerif-Roman-30" transform="translate(77.783203 0)"/>
       <use xlink:href="#CMUSerif-Roman-31" transform="translate(127.783203 0)"/>
       <use xlink:href="#CMUSerif-Roman-36" transform="translate(177.783203 0)"/>
      </g>
     </g>
    </g>
    <g id="xtick_7">
     <g id="line2d_13">
      <path d="M 548.288544 296.672188 
L 548.288544 23.072187 
" clip-path="url(#pc15f8dd770)" style="fill: none; stroke-dasharray: 2.96,1.28; stroke-dashoffset: 0; stroke: #999999; stroke-opacity: 0.28; stroke-width: 0.8"/>
     </g>
     <g id="line2d_14">
      <g>
       <use xlink:href="#mbc4fd20086" x="548.288544" y="296.672188" style="stroke: #000000; stroke-width: 0.8"/>
      </g>
     </g>
     <g id="text_7">
      <!-- 0.018 -->
      <g transform="translate(534.052216 312.346016) scale(0.125 -0.125)">
       <use xlink:href="#CMUSerif-Roman-30"/>
       <use xlink:href="#CMUSerif-Roman-2e" transform="translate(50 0)"/>
       <use xlink:href="#CMUSerif-Roman-30" transform="translate(77.783203 0)"/>
       <use xlink:href="#CMUSerif-Roman-31" transform="translate(127.783203 0)"/>
       <use xlink:href="#CMUSerif-Roman-38" transform="translate(177.783203 0)"/>
      </g>
     </g>
    </g>
    <g id="xtick_8">
     <g id="line2d_15">
      <path d="M 620.658435 296.672188 
L 620.658435 23.072187 
" clip-path="url(#pc15f8dd770)" style="fill: none; stroke-dasharray: 2.96,1.28; stroke-dashoffset: 0; stroke: #999999; stroke-opacity: 0.28; stroke-width: 0.8"/>
     </g>
     <g id="line2d_16">
      <g>
       <use xlink:href="#mbc4fd20086" x="620.658435" y="296.672188" style="stroke: #000000; stroke-width: 0.8"/>
      </g>
     </g>
     <g id="text_8">
      <!-- 0.020 -->
      <g transform="translate(606.422107 312.346016) scale(0.125 -0.125)">
       <use xlink:href="#CMUSerif-Roman-30"/>
       <use xlink:href="#CMUSerif-Roman-2e" transform="translate(50 0)"/>
       <use xlink:href="#CMUSerif-Roman-30" transform="translate(77.783203 0)"/>
       <use xlink:href="#CMUSerif-Roman-32" transform="translate(127.783203 0)"/>
       <use xlink:href="#CMUSerif-Roman-30" transform="translate(177.783203 0)"/>
      </g>
     </g>
    </g>
    <g id="xtick_9">
     <g id="line2d_17">
      <path d="M 693.028325 296.672188 
L 693.028325 23.072187 
" clip-path="url(#pc15f8dd770)" style="fill: none; stroke-dasharray: 2.96,1.28; stroke-dashoffset: 0; stroke: #999999; stroke-opacity: 0.28; stroke-width: 0.8"/>
     </g>
     <g id="line2d_18">
      <g>
       <use xlink:href="#mbc4fd20086" x="693.028325" y="296.672188" style="stroke: #000000; stroke-width: 0.8"/>
      </g>
     </g>
     <g id="text_9">
      <!-- 0.022 -->
      <g transform="translate(678.791997 312.346016) scale(0.125 -0.125)">
       <use xlink:href="#CMUSerif-Roman-30"/>
       <use xlink:href="#CMUSerif-Roman-2e" transform="translate(50 0)"/>
       <use xlink:href="#CMUSerif-Roman-30" transform="translate(77.783203 0)"/>
       <use xlink:href="#CMUSerif-Roman-32" transform="translate(127.783203 0)"/>
       <use xlink:href="#CMUSerif-Roman-32" transform="translate(177.783203 0)"/>
      </g>
     </g>
    </g>
    <g id="text_10">
     <!-- Primary $C_d$  (Drag Coefficient)  (aggregated over each run's missions) -->
     <g transform="translate(152.025156 331.644844) scale(0.145 -0.145)">
      <defs>
       <path id="CMUSerif-Roman-50" d="M 225 0 
L 225 197 
L 378 197 
Q 725 197 804 255 
Q 884 313 884 500 
L 884 3872 
Q 884 4056 803 4114 
Q 722 4172 378 4172 
L 225 4172 
L 225 4372 
L 2484 4372 
Q 3131 4372 3562 4015 
Q 3994 3659 3994 3181 
Q 3994 2706 3555 2364 
Q 3116 2022 2534 2022 
L 1453 2022 
L 1453 500 
Q 1453 316 1533 256 
Q 1613 197 1959 197 
L 2113 197 
L 2113 0 
Q 1888 19 1166 19 
Q 450 19 225 0 
z
M 1434 2188 
L 2316 2188 
Q 2603 2188 2812 2269 
Q 3022 2350 3117 2448 
Q 3213 2547 3267 2708 
Q 3322 2869 3328 2958 
Q 3334 3047 3334 3181 
Q 3334 3322 3328 3411 
Q 3322 3500 3267 3661 
Q 3213 3822 3117 3920 
Q 3022 4019 2814 4095 
Q 2606 4172 2316 4172 
L 1747 4172 
Q 1528 4172 1481 4128 
Q 1434 4084 1434 3916 
L 1434 2188 
z
" transform="scale(0.015625)"/>
       <path id="CMUSerif-Roman-72" d="M 178 0 
L 178 197 
Q 519 197 598 239 
Q 678 281 678 488 
L 678 2203 
Q 678 2441 595 2500 
Q 513 2559 178 2559 
L 178 2759 
L 1069 2828 
L 1069 2125 
Q 1159 2400 1351 2614 
Q 1544 2828 1856 2828 
Q 2063 2828 2195 2712 
Q 2328 2597 2328 2438 
Q 2328 2297 2242 2226 
Q 2156 2156 2053 2156 
Q 1938 2156 1858 2229 
Q 1778 2303 1778 2431 
Q 1778 2509 1814 2570 
Q 1850 2631 1878 2653 
Q 1906 2675 1925 2681 
Q 1913 2688 1856 2688 
Q 1503 2688 1301 2336 
Q 1100 1984 1100 1484 
L 1100 500 
Q 1100 316 1176 256 
Q 1253 197 1588 197 
L 1722 197 
L 1722 0 
Q 1466 19 909 19 
Q 831 19 709 16 
Q 588 13 428 6 
Q 269 0 178 0 
z
" transform="scale(0.015625)"/>
       <path id="CMUSerif-Roman-69" d="M 213 0 
L 213 197 
Q 553 197 631 239 
Q 709 281 709 488 
L 709 2209 
Q 709 2447 629 2503 
Q 550 2559 238 2559 
L 238 2759 
L 1131 2828 
L 1131 481 
Q 1131 291 1200 244 
Q 1269 197 1581 197 
L 1581 0 
Q 928 19 916 19 
Q 828 19 213 0 
z
M 481 3944 
Q 481 4072 579 4176 
Q 678 4281 818 4281 
Q 959 4281 1059 4186 
Q 1159 4091 1159 3942 
Q 1159 3794 1059 3698 
Q 959 3603 819 3603 
Q 672 3603 576 3706 
Q 481 3809 481 3944 
z
" transform="scale(0.015625)"/>
       <path id="CMUSerif-Roman-6d" d="M 206 0 
L 206 197 
Q 547 197 625 239 
Q 703 281 703 488 
L 703 2203 
Q 703 2441 620 2500 
Q 538 2559 206 2559 
L 206 2759 
L 1106 2828 
L 1106 2156 
Q 1406 2828 2053 2828 
Q 2803 2828 2906 2203 
Q 3016 2447 3245 2637 
Q 3475 2828 3834 2828 
Q 4316 2828 4506 2591 
Q 4647 2431 4675 2253 
Q 4703 2075 4703 1613 
L 4703 391 
Q 4709 256 4812 226 
Q 4916 197 5203 197 
L 5203 0 
Q 4550 19 4488 19 
Q 4438 19 3763 0 
L 3763 197 
Q 4103 197 4183 239 
Q 4263 281 4263 488 
L 4263 1978 
Q 4263 2303 4163 2495 
Q 4063 2688 3788 2688 
Q 3456 2688 3190 2409 
Q 2925 2131 2925 1663 
L 2925 488 
Q 2925 281 3004 239 
Q 3084 197 3425 197 
L 3425 0 
Q 2772 19 2706 19 
Q 2656 19 1984 0 
L 1984 197 
Q 2325 197 2404 239 
Q 2484 281 2484 488 
L 2484 1978 
Q 2484 2303 2384 2495 
Q 2284 2688 2009 2688 
Q 1678 2688 1412 2409 
Q 1147 2131 1147 1663 
L 1147 488 
Q 1147 281 1226 239 
Q 1306 197 1644 197 
L 1644 0 
Q 991 19 928 19 
Q 878 19 206 0 
z
" transform="scale(0.015625)"/>
       <path id="CMUSerif-Roman-61" d="M 269 609 
Q 269 1153 909 1441 
Q 1294 1625 2088 1672 
L 2088 1906 
Q 2088 2303 1880 2514 
Q 1672 2725 1409 2725 
Q 941 2725 716 2431 
Q 906 2425 975 2329 
Q 1044 2234 1044 2138 
Q 1044 2009 964 1926 
Q 884 1844 750 1844 
Q 622 1844 537 1923 
Q 453 2003 453 2144 
Q 453 2456 736 2662 
Q 1019 2869 1422 2869 
Q 1947 2869 2297 2516 
Q 2406 2406 2461 2265 
Q 2516 2125 2522 2033 
Q 2528 1941 2528 1759 
L 2528 481 
Q 2528 444 2540 381 
Q 2553 319 2611 239 
Q 2669 159 2766 159 
Q 2997 159 2994 569 
L 2994 928 
L 3156 928 
L 3156 569 
Q 3156 228 2976 95 
Q 2797 -38 2631 -38 
Q 2419 -38 2284 118 
Q 2150 275 2131 488 
Q 2034 244 1814 86 
Q 1594 -72 1294 -72 
Q 1063 -72 845 -14 
Q 628 44 448 205 
Q 269 366 269 609 
z
M 763 616 
Q 763 378 931 225 
Q 1100 72 1338 72 
Q 1606 72 1847 280 
Q 2088 488 2088 897 
L 2088 1538 
Q 1378 1513 1070 1230 
Q 763 947 763 616 
z
" transform="scale(0.015625)"/>
       <path id="CMUSerif-Roman-79" d="M 122 -794 
Q 122 -659 201 -589 
Q 281 -519 391 -519 
Q 506 -519 582 -592 
Q 659 -666 659 -788 
Q 659 -1025 409 -1056 
Q 531 -1172 709 -1172 
Q 900 -1172 1054 -1031 
Q 1209 -891 1276 -756 
Q 1344 -622 1441 -378 
Q 1531 -188 1600 0 
L 641 2338 
Q 578 2491 481 2525 
Q 384 2559 122 2559 
L 122 2759 
Q 409 2741 744 2741 
Q 941 2741 1441 2759 
L 1441 2559 
Q 1081 2559 1081 2394 
Q 1081 2375 1119 2278 
L 1831 556 
L 2478 2131 
Q 2516 2222 2516 2284 
Q 2516 2547 2216 2559 
L 2216 2759 
Q 2638 2741 2772 2741 
Q 3034 2741 3250 2759 
L 3250 2559 
Q 2822 2559 2656 2150 
L 1528 -581 
Q 1222 -1309 709 -1313 
Q 466 -1313 294 -1163 
Q 122 -1013 122 -794 
z
" transform="scale(0.015625)"/>
       <path id="CMUSerif-Roman-20" transform="scale(0.015625)"/>
       <path id="CMUSerif-Roman-43" d="M 359 2188 
Q 359 3153 1018 3833 
Q 1678 4513 2584 4513 
Q 2866 4513 3116 4409 
Q 3366 4306 3481 4217 
Q 3597 4128 3763 3963 
L 4084 4434 
Q 4134 4513 4186 4513 
Q 4238 4513 4247 4483 
Q 4256 4453 4256 4359 
L 4256 2841 
Q 4256 2738 4243 2713 
Q 4231 2688 4153 2688 
Q 4091 2688 4077 2706 
Q 4063 2725 4050 2797 
Q 3953 3488 3570 3900 
Q 3188 4313 2656 4313 
Q 2503 4313 2333 4278 
Q 2163 4244 1917 4112 
Q 1672 3981 1483 3764 
Q 1294 3547 1156 3136 
Q 1019 2725 1019 2181 
Q 1019 1644 1156 1231 
Q 1294 819 1483 605 
Q 1672 391 1917 259 
Q 2163 128 2336 92 
Q 2509 56 2663 56 
Q 3213 56 3634 447 
Q 4056 838 4097 1497 
Q 4103 1528 4103 1542 
Q 4103 1556 4109 1572 
Q 4116 1588 4131 1594 
Q 4147 1600 4172 1600 
Q 4256 1600 4256 1491 
Q 4256 881 3789 370 
Q 3322 -141 2584 -141 
Q 1675 -141 1017 534 
Q 359 1209 359 2188 
z
" transform="scale(0.015625)"/>
       <path id="CMUSerif-Roman-64" d="M 219 1375 
Q 219 1984 644 2406 
Q 1069 2828 1644 2828 
Q 2131 2828 2450 2431 
L 2450 3816 
Q 2450 4053 2367 4112 
Q 2284 4172 1953 4172 
L 1953 4372 
L 2875 4441 
L 2875 556 
Q 2875 319 2958 258 
Q 3041 197 3372 197 
L 3372 0 
L 2431 -72 
L 2431 353 
Q 2100 -69 1575 -72 
Q 1025 -72 622 350 
Q 219 772 219 1375 
z
M 750 1369 
Q 750 775 934 481 
Q 1191 72 1606 72 
Q 2081 72 2363 519 
Q 2434 628 2431 756 
L 2431 2069 
Q 2431 2197 2363 2303 
Q 2100 2688 1672 2688 
Q 1225 2688 947 2278 
Q 750 1972 750 1369 
z
" transform="scale(0.015625)"/>
       <path id="CMUSerif-Roman-28" d="M 634 1600 
Q 634 2681 1038 3553 
Q 1209 3919 1450 4225 
Q 1691 4531 1850 4665 
Q 2009 4800 2053 4800 
Q 2116 4800 2119 4738 
Q 2119 4706 2034 4628 
Q 1003 3578 1006 1600 
Q 1006 -384 2009 -1394 
Q 2119 -1503 2119 -1538 
Q 2119 -1600 2053 -1600 
Q 2009 -1600 1856 -1472 
Q 1703 -1344 1465 -1050 
Q 1228 -756 1056 -397 
Q 634 475 634 1600 
z
" transform="scale(0.015625)"/>
       <path id="CMUSerif-Roman-44" d="M 225 0 
L 225 197 
L 378 197 
Q 725 197 804 255 
Q 884 313 884 500 
L 884 3872 
Q 884 4056 803 4114 
Q 722 4172 378 4172 
L 225 4172 
L 225 4372 
L 2566 4372 
Q 3384 4372 3954 3719 
Q 4525 3066 4525 2150 
Q 4525 1253 3951 626 
Q 3378 0 2566 0 
L 225 0 
z
M 1434 453 
Q 1434 288 1481 242 
Q 1528 197 1747 197 
L 2394 197 
Q 2816 197 3100 370 
Q 3384 544 3531 744 
Q 3884 1225 3884 2150 
Q 3884 3122 3553 3578 
Q 3125 4172 2388 4172 
L 1747 4172 
Q 1528 4172 1481 4128 
Q 1434 4084 1434 3916 
L 1434 453 
z
" transform="scale(0.015625)"/>
       <path id="CMUSerif-Roman-67" d="M 178 -506 
Q 178 -300 336 -122 
Q 494 56 769 134 
Q 488 313 488 703 
Q 488 1003 684 1234 
Q 384 1484 384 1894 
Q 384 2272 684 2550 
Q 984 2828 1422 2828 
Q 1806 2828 2100 2597 
Q 2406 2897 2778 2900 
Q 2944 2900 3023 2797 
Q 3103 2694 3103 2584 
Q 3103 2488 3042 2441 
Q 2981 2394 2919 2394 
Q 2841 2394 2786 2445 
Q 2731 2497 2731 2578 
Q 2731 2713 2834 2753 
Q 2816 2759 2772 2759 
Q 2459 2759 2194 2509 
Q 2456 2266 2456 1887 
Q 2456 1509 2156 1231 
Q 1856 953 1422 953 
Q 1063 953 788 1153 
Q 678 1025 678 850 
Q 678 691 775 566 
Q 872 441 1019 422 
Q 1063 416 1497 416 
Q 1753 416 1893 409 
Q 2034 403 2236 361 
Q 2438 319 2597 238 
Q 3013 6 3016 -494 
Q 3016 -859 2595 -1089 
Q 2175 -1319 1594 -1319 
Q 1006 -1319 592 -1086 
Q 178 -853 178 -506 
z
M 513 -506 
Q 513 -769 822 -970 
Q 1131 -1172 1600 -1172 
Q 2059 -1172 2370 -973 
Q 2681 -775 2681 -506 
Q 2681 -316 2572 -194 
Q 2463 -72 2239 -23 
Q 2016 25 1859 34 
Q 1703 44 1416 44 
L 1038 44 
Q 819 31 666 -128 
Q 513 -288 513 -506 
z
M 863 1888 
Q 863 1100 1422 1100 
Q 1703 1100 1875 1356 
Q 1978 1528 1978 1894 
Q 1978 2681 1422 2681 
Q 1141 2681 966 2425 
Q 863 2253 863 1888 
z
" transform="scale(0.015625)"/>
       <path id="CMUSerif-Roman-6f" d="M 601 345 
Q 178 763 178 1370 
Q 178 1978 592 2423 
Q 1006 2869 1600 2869 
Q 2181 2869 2598 2426 
Q 3016 1984 3016 1369 
Q 3016 766 2595 347 
Q 2175 -72 1594 -72 
Q 1025 -72 601 345 
z
M 709 1422 
Q 709 800 872 519 
Q 1122 91 1600 91 
Q 1838 91 2036 219 
Q 2234 347 2344 563 
Q 2484 844 2484 1422 
Q 2484 2038 2316 2309 
Q 2066 2725 1594 2725 
Q 1388 2725 1186 2617 
Q 984 2509 863 2297 
Q 709 2016 709 1422 
z
" transform="scale(0.015625)"/>
       <path id="CMUSerif-Roman-65" d="M 178 1409 
Q 178 2013 565 2441 
Q 953 2869 1509 2869 
Q 2072 2869 2364 2503 
Q 2656 2138 2656 1613 
Q 2656 1516 2631 1497 
Q 2606 1478 2497 1478 
L 709 1478 
Q 709 825 903 519 
Q 1172 91 1625 91 
Q 1688 91 1763 103 
Q 1838 116 1991 170 
Q 2144 225 2278 372 
Q 2413 519 2491 750 
Q 2509 841 2572 838 
Q 2656 838 2656 763 
Q 2656 706 2595 579 
Q 2534 453 2418 303 
Q 2303 153 2079 40 
Q 1856 -72 1588 -72 
Q 1025 -72 601 354 
Q 178 781 178 1409 
z
M 716 1613 
L 2234 1613 
Q 2234 1747 2211 1897 
Q 2188 2047 2120 2255 
Q 2053 2463 1897 2594 
Q 1741 2725 1509 2725 
Q 1406 2725 1295 2681 
Q 1184 2638 1050 2531 
Q 916 2425 822 2184 
Q 728 1944 716 1613 
z
" transform="scale(0.015625)"/>
       <path id="CMUSerif-Roman-66" d="M 213 2559 
L 213 2759 
L 716 2759 
L 716 3494 
Q 716 3969 1023 4241 
Q 1331 4513 1709 4513 
Q 1959 4513 2121 4378 
Q 2284 4244 2284 4063 
Q 2284 3941 2211 3861 
Q 2138 3781 2003 3781 
Q 1875 3781 1801 3862 
Q 1728 3944 1728 4056 
Q 1728 4263 1919 4325 
Q 1822 4369 1709 4372 
Q 1478 4372 1298 4134 
Q 1119 3897 1119 3500 
L 1119 2759 
L 1869 2759 
L 1869 2559 
L 1141 2559 
L 1141 500 
Q 1141 316 1217 256 
Q 1294 197 1625 197 
L 1759 197 
L 1759 0 
Q 1503 19 947 19 
Q 869 19 748 16 
Q 628 13 467 6 
Q 306 0 219 0 
L 219 197 
Q 559 197 637 239 
Q 716 281 716 488 
L 716 2559 
L 213 2559 
z
" transform="scale(0.015625)"/>
       <path id="CMUSerif-Roman-63" d="M 625 351 
Q 219 775 219 1383 
Q 219 1991 619 2430 
Q 1019 2869 1606 2869 
Q 1997 2869 2290 2683 
Q 2584 2497 2584 2181 
Q 2584 2041 2501 1961 
Q 2419 1881 2291 1881 
Q 2156 1881 2076 1964 
Q 1997 2047 1997 2175 
Q 1997 2231 2015 2287 
Q 2034 2344 2104 2403 
Q 2175 2463 2297 2472 
Q 2069 2706 1625 2706 
Q 1619 2706 1613 2706 
Q 1288 2706 1019 2400 
Q 750 2094 750 1394 
Q 750 1028 839 761 
Q 928 494 1075 356 
Q 1222 219 1365 155 
Q 1509 91 1650 91 
Q 2278 91 2491 763 
Q 2509 825 2572 825 
Q 2656 825 2656 763 
Q 2656 731 2631 650 
Q 2606 569 2528 441 
Q 2450 313 2339 202 
Q 2228 91 2033 9 
Q 1838 -72 1594 -72 
Q 1031 -72 625 351 
z
" transform="scale(0.015625)"/>
       <path id="CMUSerif-Roman-6e" d="M 206 0 
L 206 197 
Q 547 197 625 239 
Q 703 281 703 488 
L 703 2203 
Q 703 2441 620 2500 
Q 538 2559 206 2559 
L 206 2759 
L 1106 2828 
L 1106 2156 
Q 1406 2828 2053 2828 
Q 2534 2828 2725 2591 
Q 2866 2431 2895 2253 
Q 2925 2075 2925 1613 
L 2925 391 
Q 2931 256 3034 226 
Q 3138 197 3425 197 
L 3425 0 
Q 2772 19 2706 19 
Q 2656 19 1984 0 
L 1984 197 
Q 2325 197 2404 239 
Q 2484 281 2484 488 
L 2484 1978 
Q 2484 2303 2384 2495 
Q 2284 2688 2009 2688 
Q 1678 2688 1412 2409 
Q 1147 2131 1147 1663 
L 1147 488 
Q 1147 281 1226 239 
Q 1306 197 1644 197 
L 1644 0 
Q 991 19 928 19 
Q 878 19 206 0 
z
" transform="scale(0.015625)"/>
       <path id="CMUSerif-Roman-74" d="M 122 2559 
L 122 2700 
Q 416 2713 611 2920 
Q 806 3128 873 3384 
Q 941 3641 947 3938 
L 1106 3938 
L 1106 2759 
L 2022 2759 
L 2022 2559 
L 1106 2559 
L 1106 781 
Q 1106 91 1538 91 
Q 1722 91 1844 280 
Q 1966 469 1966 806 
L 1966 1159 
L 2125 1159 
L 2125 794 
Q 2125 447 1965 187 
Q 1806 -72 1491 -72 
Q 1375 -72 1261 -42 
Q 1147 -13 998 64 
Q 850 141 758 330 
Q 666 519 666 794 
L 666 2559 
L 122 2559 
z
" transform="scale(0.015625)"/>
       <path id="CMUSerif-Roman-29" d="M 366 -1538 
Q 366 -1506 447 -1428 
Q 1478 -378 1478 1600 
Q 1478 3584 488 4588 
Q 366 4703 366 4738 
Q 366 4800 428 4800 
Q 472 4800 626 4672 
Q 781 4544 1017 4250 
Q 1253 3956 1428 3597 
Q 1850 2725 1850 1600 
Q 1850 519 1447 -353 
Q 1275 -719 1034 -1025 
Q 794 -1331 634 -1465 
Q 475 -1600 428 -1600 
Q 366 -1600 366 -1538 
z
" transform="scale(0.015625)"/>
       <path id="CMUSerif-Roman-76" d="M 122 2559 
L 122 2759 
Q 409 2741 744 2741 
Q 866 2741 1441 2759 
L 1441 2559 
Q 1075 2559 1075 2394 
Q 1075 2369 1113 2284 
L 1831 500 
L 2484 2131 
Q 2522 2241 2522 2284 
Q 2522 2394 2448 2473 
Q 2375 2553 2216 2559 
L 2216 2759 
Q 2541 2741 2772 2741 
Q 3034 2741 3250 2759 
L 3250 2559 
Q 3059 2559 2925 2473 
Q 2791 2388 2748 2314 
Q 2706 2241 2663 2131 
L 1825 50 
Q 1775 -72 1691 -72 
Q 1634 -72 1611 -48 
Q 1588 -25 1556 50 
L 634 2322 
Q 572 2481 490 2520 
Q 409 2559 122 2559 
z
" transform="scale(0.015625)"/>
       <path id="CMUSerif-Roman-68" d="M 206 0 
L 206 197 
Q 547 197 625 239 
Q 703 281 703 488 
L 703 3816 
Q 703 4053 620 4112 
Q 538 4172 206 4172 
L 206 4372 
L 1125 4441 
L 1125 2216 
L 1131 2216 
Q 1234 2447 1465 2637 
Q 1697 2828 2053 2828 
Q 2534 2828 2725 2591 
Q 2866 2431 2895 2253 
Q 2925 2075 2925 1613 
L 2925 391 
Q 2931 256 3034 226 
Q 3138 197 3425 197 
L 3425 0 
Q 2772 19 2706 19 
Q 2656 19 1984 0 
L 1984 197 
Q 2325 197 2404 239 
Q 2484 281 2484 488 
L 2484 1978 
Q 2484 2303 2384 2495 
Q 2284 2688 2009 2688 
Q 1678 2688 1412 2409 
Q 1147 2131 1147 1663 
L 1147 488 
Q 1147 281 1226 239 
Q 1306 197 1644 197 
L 1644 0 
Q 991 19 928 19 
Q 878 19 206 0 
z
" transform="scale(0.015625)"/>
       <path id="CMUSerif-Roman-75" d="M 206 2559 
L 206 2759 
L 1147 2828 
L 1147 703 
Q 1147 550 1159 461 
Q 1172 372 1223 269 
Q 1275 166 1395 119 
Q 1516 72 1709 72 
Q 2056 72 2270 356 
Q 2484 641 2484 1063 
L 2484 2203 
Q 2484 2441 2400 2500 
Q 2316 2559 1984 2559 
L 1984 2759 
L 2925 2828 
L 2925 556 
Q 2925 319 3008 258 
Q 3091 197 3425 197 
L 3425 0 
L 2503 -72 
L 2503 506 
Q 2234 -69 1678 -72 
Q 1397 -72 1205 0 
Q 1013 72 916 161 
Q 819 250 767 422 
Q 716 594 709 700 
Q 703 806 703 1013 
L 703 1972 
Q 703 2406 640 2482 
Q 578 2559 206 2559 
z
" transform="scale(0.015625)"/>
       <path id="CMUSerif-Roman-27" d="M 588 4250 
Q 588 4409 684 4476 
Q 781 4544 884 4544 
Q 1013 4544 1095 4467 
Q 1178 4391 1178 4250 
Q 1178 4188 1172 4153 
L 959 2222 
L 813 2222 
L 594 4153 
Q 588 4188 588 4250 
z
" transform="scale(0.015625)"/>
       <path id="CMUSerif-Roman-73" d="M 213 84 
L 213 928 
Q 213 1000 216 1025 
Q 219 1050 237 1069 
Q 256 1088 294 1088 
Q 338 1088 355 1069 
Q 372 1050 384 978 
Q 481 538 689 305 
Q 897 72 1275 72 
Q 1634 72 1815 231 
Q 1997 391 1997 653 
Q 1997 1122 1331 1241 
Q 947 1319 787 1370 
Q 628 1422 488 1538 
Q 213 1763 213 2081 
Q 213 2400 455 2634 
Q 697 2869 1234 2869 
Q 1594 2869 1838 2688 
Q 1909 2744 1947 2791 
Q 2031 2869 2075 2869 
Q 2125 2869 2134 2836 
Q 2144 2803 2144 2713 
L 2144 2069 
Q 2144 1997 2141 1972 
Q 2138 1947 2119 1930 
Q 2100 1913 2059 1913 
Q 1988 1913 1984 1972 
Q 1934 2747 1234 2747 
Q 856 2747 687 2601 
Q 519 2456 519 2259 
Q 519 2150 570 2067 
Q 622 1984 689 1936 
Q 756 1888 881 1842 
Q 1006 1797 1082 1781 
Q 1159 1766 1306 1734 
Q 1819 1638 2034 1428 
Q 2303 1159 2303 819 
Q 2303 441 2047 184 
Q 1791 -72 1275 -72 
Q 859 -72 569 206 
Q 531 169 503 136 
Q 475 103 464 90 
Q 453 78 450 70 
Q 447 63 441 56 
Q 313 -72 281 -72 
Q 231 -72 222 -39 
Q 213 -6 213 84 
z
" transform="scale(0.015625)"/>
      </defs>
      <use xlink:href="#CMUSerif-Roman-50"/>
      <use xlink:href="#CMUSerif-Roman-72" transform="translate(67.96875 0)"/>
      <use xlink:href="#CMUSerif-Roman-69" transform="translate(107.03125 0)"/>
      <use xlink:href="#CMUSerif-Roman-6d" transform="translate(134.716797 0)"/>
      <use xlink:href="#CMUSerif-Roman-61" transform="translate(217.96875 0)"/>
      <use xlink:href="#CMUSerif-Roman-72" transform="translate(267.96875 0)"/>
      <use xlink:href="#CMUSerif-Roman-79" transform="translate(307.03125 0)"/>
      <use xlink:href="#CMUSerif-Roman-20" transform="translate(359.716797 0)"/>
      <use xlink:href="#CMUSerif-Roman-43" transform="translate(392.96875 0)"/>
      <use xlink:href="#CMUSerif-Roman-64" transform="translate(465.891133 -12.932812) scale(0.7)"/>
      <use xlink:href="#CMUSerif-Roman-20" transform="translate(506.874727 0)"/>
      <use xlink:href="#CMUSerif-Roman-20" transform="translate(540.12668 0)"/>
      <use xlink:href="#CMUSerif-Roman-28" transform="translate(573.378633 0)"/>
      <use xlink:href="#CMUSerif-Roman-44" transform="translate(612.148164 0)"/>
      <use xlink:href="#CMUSerif-Roman-72" transform="translate(688.417695 0)"/>
      <use xlink:href="#CMUSerif-Roman-61" transform="translate(727.480195 0)"/>
      <use xlink:href="#CMUSerif-Roman-67" transform="translate(777.480195 0)"/>
      <use xlink:href="#CMUSerif-Roman-20" transform="translate(827.480195 0)"/>
      <use xlink:href="#CMUSerif-Roman-43" transform="translate(860.732148 0)"/>
      <use xlink:href="#CMUSerif-Roman-6f" transform="translate(932.900117 0)"/>
      <use xlink:href="#CMUSerif-Roman-65" transform="translate(982.900117 0)"/>
      <use xlink:href="#CMUSerif-Roman-66" transform="translate(1027.284883 0)"/>
      <use xlink:href="#CMUSerif-Roman-66" transform="translate(1057.753633 0)"/>
      <use xlink:href="#CMUSerif-Roman-69" transform="translate(1088.222383 0)"/>
      <use xlink:href="#CMUSerif-Roman-63" transform="translate(1115.90793 0)"/>
      <use xlink:href="#CMUSerif-Roman-69" transform="translate(1160.292695 0)"/>
      <use xlink:href="#CMUSerif-Roman-65" transform="translate(1187.978242 0)"/>
      <use xlink:href="#CMUSerif-Roman-6e" transform="translate(1232.363008 0)"/>
      <use xlink:href="#CMUSerif-Roman-74" transform="translate(1287.831758 0)"/>
      <use xlink:href="#CMUSerif-Roman-29" transform="translate(1326.601289 0)"/>
      <use xlink:href="#CMUSerif-Roman-20" transform="translate(1365.37082 0)"/>
      <use xlink:href="#CMUSerif-Roman-20" transform="translate(1398.622773 0)"/>
      <use xlink:href="#CMUSerif-Roman-28" transform="translate(1431.874727 0)"/>
      <use xlink:href="#CMUSerif-Roman-61" transform="translate(1470.644258 0)"/>
      <use xlink:href="#CMUSerif-Roman-67" transform="translate(1520.644258 0)"/>
      <use xlink:href="#CMUSerif-Roman-67" transform="translate(1570.644258 0)"/>
      <use xlink:href="#CMUSerif-Roman-72" transform="translate(1620.644258 0)"/>
      <use xlink:href="#CMUSerif-Roman-65" transform="translate(1659.706758 0)"/>
      <use xlink:href="#CMUSerif-Roman-67" transform="translate(1704.091523 0)"/>
      <use xlink:href="#CMUSerif-Roman-61" transform="translate(1754.091523 0)"/>
      <use xlink:href="#CMUSerif-Roman-74" transform="translate(1804.091523 0)"/>
      <use xlink:href="#CMUSerif-Roman-65" transform="translate(1842.861055 0)"/>
      <use xlink:href="#CMUSerif-Roman-64" transform="translate(1887.24582 0)"/>
      <use xlink:href="#CMUSerif-Roman-20" transform="translate(1942.71457 0)"/>
      <use xlink:href="#CMUSerif-Roman-6f" transform="translate(1975.966523 0)"/>
      <use xlink:href="#CMUSerif-Roman-76" transform="translate(2025.966523 0)"/>
      <use xlink:href="#CMUSerif-Roman-65" transform="translate(2078.65207 0)"/>
      <use xlink:href="#CMUSerif-Roman-72" transform="translate(2123.036836 0)"/>
      <use xlink:href="#CMUSerif-Roman-20" transform="translate(2162.099336 0)"/>
      <use xlink:href="#CMUSerif-Roman-65" transform="translate(2195.351289 0)"/>
      <use xlink:href="#CMUSerif-Roman-61" transform="translate(2239.736055 0)"/>
      <use xlink:href="#CMUSerif-Roman-63" transform="translate(2289.736055 0)"/>
      <use xlink:href="#CMUSerif-Roman-68" transform="translate(2334.12082 0)"/>
      <use xlink:href="#CMUSerif-Roman-20" transform="translate(2389.58957 0)"/>
      <use xlink:href="#CMUSerif-Roman-72" transform="translate(2422.841523 0)"/>
      <use xlink:href="#CMUSerif-Roman-75" transform="translate(2461.904023 0)"/>
      <use xlink:href="#CMUSerif-Roman-6e" transform="translate(2517.372773 0)"/>
      <use xlink:href="#CMUSerif-Roman-27" transform="translate(2572.841523 0)"/>
      <use xlink:href="#CMUSerif-Roman-73" transform="translate(2600.624727 0)"/>
      <use xlink:href="#CMUSerif-Roman-20" transform="translate(2639.980195 0)"/>
      <use xlink:href="#CMUSerif-Roman-6d" transform="translate(2673.232148 0)"/>
      <use xlink:href="#CMUSerif-Roman-69" transform="translate(2756.484102 0)"/>
      <use xlink:href="#CMUSerif-Roman-73" transform="translate(2784.169648 0)"/>
      <use xlink:href="#CMUSerif-Roman-73" transform="translate(2823.525117 0)"/>
      <use xlink:href="#CMUSerif-Roman-69" transform="translate(2862.880586 0)"/>
      <use xlink:href="#CMUSerif-Roman-6f" transform="translate(2890.566133 0)"/>
      <use xlink:href="#CMUSerif-Roman-6e" transform="translate(2940.566133 0)"/>
      <use xlink:href="#CMUSerif-Roman-73" transform="translate(2996.034883 0)"/>
      <use xlink:href="#CMUSerif-Roman-29" transform="translate(3035.390352 0)"/>
     </g>
    </g>
   </g>
   <g id="matplotlib.axis_2">
    <g id="ytick_1">
     <g id="line2d_19">
      <path d="M 50.962656 276.441719 
L 698.962656 276.441719 
" clip-path="url(#pc15f8dd770)" style="fill: none; stroke-dasharray: 2.96,1.28; stroke-dashoffset: 0; stroke: #999999; stroke-opacity: 0.28; stroke-width: 0.8"/>
     </g>
     <g id="line2d_20">
      <defs>
       <path id="mdebc13e28c" d="M 0 0 
L -3.5 0 
" style="stroke: #000000; stroke-width: 0.8"/>
      </defs>
      <g>
       <use xlink:href="#mdebc13e28c" x="50.962656" y="276.441719" style="stroke: #000000; stroke-width: 0.8"/>
      </g>
     </g>
     <g id="text_11">
      <!-- 1.0 -->
      <g transform="translate(27.99 280.778633) scale(0.125 -0.125)">
       <use xlink:href="#CMUSerif-Roman-31"/>
       <use xlink:href="#CMUSerif-Roman-2e" transform="translate(50 0)"/>
       <use xlink:href="#CMUSerif-Roman-30" transform="translate(77.783203 0)"/>
      </g>
     </g>
    </g>
    <g id="ytick_2">
     <g id="line2d_21">
      <path d="M 50.962656 243.457779 
L 698.962656 243.457779 
" clip-path="url(#pc15f8dd770)" style="fill: none; stroke-dasharray: 2.96,1.28; stroke-dashoffset: 0; stroke: #999999; stroke-opacity: 0.28; stroke-width: 0.8"/>
     </g>
     <g id="line2d_22">
      <g>
       <use xlink:href="#mdebc13e28c" x="50.962656" y="243.457779" style="stroke: #000000; stroke-width: 0.8"/>
      </g>
     </g>
     <g id="text_12">
      <!-- 1.5 -->
      <g transform="translate(27.99 247.794693) scale(0.125 -0.125)">
       <defs>
        <path id="CMUSerif-Roman-35" d="M 319 1031 
Q 319 1222 422 1295 
Q 525 1369 634 1369 
Q 781 1369 867 1276 
Q 953 1184 953 1056 
Q 953 928 867 836 
Q 781 744 634 744 
Q 563 744 525 756 
Q 609 463 867 250 
Q 1125 38 1466 38 
Q 1894 38 2150 453 
Q 2303 722 2303 1331 
Q 2303 1869 2188 2138 
Q 2009 2547 1644 2547 
Q 1125 2547 819 2100 
Q 781 2044 738 2041 
Q 675 2041 661 2077 
Q 647 2113 647 2209 
L 647 4103 
Q 647 4256 709 4256 
Q 734 4256 788 4238 
Q 1191 4059 1638 4056 
Q 2097 4056 2509 4244 
Q 2541 4263 2559 4263 
Q 2622 4263 2625 4191 
Q 2625 4166 2573 4092 
Q 2522 4019 2412 3923 
Q 2303 3828 2162 3737 
Q 2022 3647 1817 3586 
Q 1613 3525 1388 3525 
Q 1119 3525 844 3609 
L 844 2363 
Q 1175 2688 1656 2688 
Q 2169 2688 2522 2275 
Q 2875 1863 2875 1288 
Q 2875 684 2458 271 
Q 2041 -141 1478 -141 
Q 966 -141 642 225 
Q 319 591 319 1031 
z
" transform="scale(0.015625)"/>
       </defs>
       <use xlink:href="#CMUSerif-Roman-31"/>
       <use xlink:href="#CMUSerif-Roman-2e" transform="translate(50 0)"/>
       <use xlink:href="#CMUSerif-Roman-35" transform="translate(77.783203 0)"/>
      </g>
     </g>
    </g>
    <g id="ytick_3">
     <g id="line2d_23">
      <path d="M 50.962656 210.473839 
L 698.962656 210.473839 
" clip-path="url(#pc15f8dd770)" style="fill: none; stroke-dasharray: 2.96,1.28; stroke-dashoffset: 0; stroke: #999999; stroke-opacity: 0.28; stroke-width: 0.8"/>
     </g>
     <g id="line2d_24">
      <g>
       <use xlink:href="#mdebc13e28c" x="50.962656" y="210.473839" style="stroke: #000000; stroke-width: 0.8"/>
      </g>
     </g>
     <g id="text_13">
      <!-- 2.0 -->
      <g transform="translate(27.99 214.810753) scale(0.125 -0.125)">
       <use xlink:href="#CMUSerif-Roman-32"/>
       <use xlink:href="#CMUSerif-Roman-2e" transform="translate(50 0)"/>
       <use xlink:href="#CMUSerif-Roman-30" transform="translate(77.783203 0)"/>
      </g>
     </g>
    </g>
    <g id="ytick_4">
     <g id="line2d_25">
      <path d="M 50.962656 177.489899 
L 698.962656 177.489899 
" clip-path="url(#pc15f8dd770)" style="fill: none; stroke-dasharray: 2.96,1.28; stroke-dashoffset: 0; stroke: #999999; stroke-opacity: 0.28; stroke-width: 0.8"/>
     </g>
     <g id="line2d_26">
      <g>
       <use xlink:href="#mdebc13e28c" x="50.962656" y="177.489899" style="stroke: #000000; stroke-width: 0.8"/>
      </g>
     </g>
     <g id="text_14">
      <!-- 2.5 -->
      <g transform="translate(27.99 181.826813) scale(0.125 -0.125)">
       <use xlink:href="#CMUSerif-Roman-32"/>
       <use xlink:href="#CMUSerif-Roman-2e" transform="translate(50 0)"/>
       <use xlink:href="#CMUSerif-Roman-35" transform="translate(77.783203 0)"/>
      </g>
     </g>
    </g>
    <g id="ytick_5">
     <g id="line2d_27">
      <path d="M 50.962656 144.505959 
L 698.962656 144.505959 
" clip-path="url(#pc15f8dd770)" style="fill: none; stroke-dasharray: 2.96,1.28; stroke-dashoffset: 0; stroke: #999999; stroke-opacity: 0.28; stroke-width: 0.8"/>
     </g>
     <g id="line2d_28">
      <g>
       <use xlink:href="#mdebc13e28c" x="50.962656" y="144.505959" style="stroke: #000000; stroke-width: 0.8"/>
      </g>
     </g>
     <g id="text_15">
      <!-- 3.0 -->
      <g transform="translate(27.99 148.842874) scale(0.125 -0.125)">
       <defs>
        <path id="CMUSerif-Roman-33" d="M 269 863 
Q 269 1053 378 1143 
Q 488 1234 628 1234 
Q 775 1234 879 1139 
Q 984 1044 984 878 
Q 984 700 861 600 
Q 738 500 563 525 
Q 716 269 998 153 
Q 1281 38 1544 38 
Q 1819 38 2042 275 
Q 2266 513 2266 1094 
Q 2266 1588 2073 1872 
Q 1881 2156 1503 2156 
L 1222 2156 
Q 1125 2156 1097 2165 
Q 1069 2175 1069 2228 
Q 1069 2291 1166 2303 
Q 1263 2303 1416 2322 
Q 1788 2334 1984 2656 
Q 2163 2956 2163 3384 
Q 2163 3775 1977 3939 
Q 1791 4103 1550 4103 
Q 1325 4103 1078 4009 
Q 831 3916 697 3706 
Q 1094 3706 1094 3384 
Q 1094 3244 1005 3151 
Q 916 3059 769 3059 
Q 628 3059 534 3148 
Q 441 3238 441 3391 
Q 441 3756 767 4009 
Q 1094 4263 1575 4263 
Q 2050 4263 2401 4013 
Q 2753 3763 2753 3378 
Q 2753 3000 2503 2690 
Q 2253 2381 1856 2253 
Q 2344 2156 2634 1826 
Q 2925 1497 2925 1094 
Q 2925 594 2531 226 
Q 2138 -141 1563 -141 
Q 1031 -141 650 146 
Q 269 434 269 863 
z
" transform="scale(0.015625)"/>
       </defs>
       <use xlink:href="#CMUSerif-Roman-33"/>
       <use xlink:href="#CMUSerif-Roman-2e" transform="translate(50 0)"/>
       <use xlink:href="#CMUSerif-Roman-30" transform="translate(77.783203 0)"/>
      </g>
     </g>
    </g>
    <g id="ytick_6">
     <g id="line2d_29">
      <path d="M 50.962656 111.52202 
L 698.962656 111.52202 
" clip-path="url(#pc15f8dd770)" style="fill: none; stroke-dasharray: 2.96,1.28; stroke-dashoffset: 0; stroke: #999999; stroke-opacity: 0.28; stroke-width: 0.8"/>
     </g>
     <g id="line2d_30">
      <g>
       <use xlink:href="#mdebc13e28c" x="50.962656" y="111.52202" style="stroke: #000000; stroke-width: 0.8"/>
      </g>
     </g>
     <g id="text_16">
      <!-- 3.5 -->
      <g transform="translate(27.99 115.858934) scale(0.125 -0.125)">
       <use xlink:href="#CMUSerif-Roman-33"/>
       <use xlink:href="#CMUSerif-Roman-2e" transform="translate(50 0)"/>
       <use xlink:href="#CMUSerif-Roman-35" transform="translate(77.783203 0)"/>
      </g>
     </g>
    </g>
    <g id="ytick_7">
     <g id="line2d_31">
      <path d="M 50.962656 78.53808 
L 698.962656 78.53808 
" clip-path="url(#pc15f8dd770)" style="fill: none; stroke-dasharray: 2.96,1.28; stroke-dashoffset: 0; stroke: #999999; stroke-opacity: 0.28; stroke-width: 0.8"/>
     </g>
     <g id="line2d_32">
      <g>
       <use xlink:href="#mdebc13e28c" x="50.962656" y="78.53808" style="stroke: #000000; stroke-width: 0.8"/>
      </g>
     </g>
     <g id="text_17">
      <!-- 4.0 -->
      <g transform="translate(27.99 82.874994) scale(0.125 -0.125)">
       <use xlink:href="#CMUSerif-Roman-34"/>
       <use xlink:href="#CMUSerif-Roman-2e" transform="translate(50 0)"/>
       <use xlink:href="#CMUSerif-Roman-30" transform="translate(77.783203 0)"/>
      </g>
     </g>
    </g>
    <g id="ytick_8">
     <g id="line2d_33">
      <path d="M 50.962656 45.55414 
L 698.962656 45.55414 
" clip-path="url(#pc15f8dd770)" style="fill: none; stroke-dasharray: 2.96,1.28; stroke-dashoffset: 0; stroke: #999999; stroke-opacity: 0.28; stroke-width: 0.8"/>
     </g>
     <g id="line2d_34">
      <g>
       <use xlink:href="#mdebc13e28c" x="50.962656" y="45.55414" style="stroke: #000000; stroke-width: 0.8"/>
      </g>
     </g>
     <g id="text_18">
      <!-- 4.5 -->
      <g transform="translate(27.99 49.891054) scale(0.125 -0.125)">
       <use xlink:href="#CMUSerif-Roman-34"/>
       <use xlink:href="#CMUSerif-Roman-2e" transform="translate(50 0)"/>
       <use xlink:href="#CMUSerif-Roman-35" transform="translate(77.783203 0)"/>
      </g>
     </g>
    </g>
    <g id="text_19">
     <!-- Weighted $C_{L,\mathrm{tot}}$  (Mission-Weighted Lift) -->
     <g transform="translate(18.075 291.242188) rotate(-90) scale(0.145 -0.145)">
      <defs>
       <path id="CMUSerif-Roman-57" d="M 116 4172 
L 116 4372 
Q 206 4372 368 4365 
Q 531 4359 659 4356 
Q 788 4353 897 4353 
Q 1575 4353 1806 4372 
L 1806 4172 
Q 1269 4172 1269 3981 
Q 1269 3938 1281 3897 
L 2309 750 
L 3200 3494 
L 3059 3944 
Q 3009 4103 2900 4137 
Q 2791 4172 2484 4172 
L 2484 4372 
Q 2575 4372 2737 4365 
Q 2900 4359 3028 4356 
Q 3156 4353 3263 4353 
Q 3941 4353 4172 4372 
L 4172 4172 
Q 3634 4172 3634 3981 
Q 3634 3963 3653 3884 
L 4678 750 
L 5638 3706 
Q 5669 3803 5672 3834 
Q 5672 3950 5537 4058 
Q 5403 4166 5113 4172 
L 5113 4372 
Q 5613 4353 5875 4353 
Q 6169 4353 6456 4372 
L 6456 4172 
Q 5950 4172 5819 3744 
L 4594 -13 
Q 4581 -63 4572 -86 
Q 4563 -109 4538 -125 
Q 4513 -141 4469 -141 
Q 4384 -141 4347 -19 
L 3284 3238 
L 2228 -13 
Q 2216 -63 2205 -86 
Q 2194 -109 2169 -125 
Q 2144 -141 2100 -141 
Q 2016 -141 1978 -19 
L 697 3903 
Q 641 4088 555 4130 
Q 469 4172 116 4172 
z
" transform="scale(0.015625)"/>
       <path id="CMUSerif-Roman-4c" d="M 213 0 
L 213 197 
L 366 197 
Q 713 197 792 255 
Q 872 313 872 500 
L 872 3872 
Q 872 4056 790 4114 
Q 709 4172 366 4172 
L 213 4172 
L 213 4372 
Q 438 4353 1184 4353 
Q 2028 4353 2259 4372 
L 2259 4172 
L 2047 4172 
Q 1753 4172 1618 4134 
Q 1484 4097 1462 4045 
Q 1441 3994 1441 3866 
L 1441 453 
Q 1441 288 1489 242 
Q 1538 197 1753 197 
L 2278 197 
Q 2603 197 2837 294 
Q 3072 391 3197 512 
Q 3322 634 3405 864 
Q 3488 1094 3514 1241 
Q 3541 1388 3566 1650 
L 3725 1650 
L 3547 0 
L 213 0 
z
" transform="scale(0.015625)"/>
       <path id="CMUSerif-Roman-2c" d="M 640 103 
Q 550 206 550 340 
Q 550 475 639 576 
Q 728 678 891 678 
Q 1081 678 1190 495 
Q 1300 313 1300 6 
Q 1300 -325 1165 -633 
Q 1031 -941 900 -1087 
Q 769 -1234 716 -1234 
Q 653 -1234 653 -1166 
Q 653 -1141 697 -1094 
Q 1156 -600 1159 6 
Q 1159 103 1147 103 
L 1131 91 
Q 1022 0 891 0 
Q 731 0 640 103 
z
" transform="scale(0.015625)"/>
       <path id="Cmr10-74" d="M 653 769 
L 653 2534 
L 122 2534 
L 122 2700 
Q 541 2700 737 3090 
Q 934 3481 934 3938 
L 1119 3938 
L 1119 2759 
L 2022 2759 
L 2022 2534 
L 1119 2534 
L 1119 781 
Q 1119 516 1208 316 
Q 1297 116 1528 116 
Q 1747 116 1844 327 
Q 1941 538 1941 781 
L 1941 1159 
L 2125 1159 
L 2125 769 
Q 2125 569 2051 373 
Q 1978 178 1834 53 
Q 1691 -72 1484 -72 
Q 1100 -72 876 158 
Q 653 388 653 769 
z
" transform="scale(0.015625)"/>
       <path id="Cmr10-6f" d="M 1600 -72 
Q 1216 -72 887 123 
Q 559 319 368 647 
Q 178 975 178 1363 
Q 178 1656 283 1928 
Q 388 2200 583 2414 
Q 778 2628 1037 2748 
Q 1297 2869 1600 2869 
Q 1994 2869 2317 2661 
Q 2641 2453 2828 2104 
Q 3016 1756 3016 1363 
Q 3016 978 2825 648 
Q 2634 319 2307 123 
Q 1981 -72 1600 -72 
z
M 1600 116 
Q 2113 116 2284 487 
Q 2456 859 2456 1434 
Q 2456 1756 2422 1967 
Q 2388 2178 2272 2350 
Q 2200 2456 2089 2536 
Q 1978 2616 1854 2658 
Q 1731 2700 1600 2700 
Q 1400 2700 1220 2609 
Q 1041 2519 922 2350 
Q 803 2169 770 1951 
Q 738 1734 738 1434 
Q 738 1075 800 789 
Q 863 503 1052 309 
Q 1241 116 1600 116 
z
" transform="scale(0.015625)"/>
       <path id="CMUSerif-Roman-4d" d="M 238 0 
L 238 197 
Q 469 197 616 242 
Q 763 288 817 373 
Q 872 459 884 517 
Q 897 575 897 672 
L 897 3872 
Q 897 4056 817 4114 
Q 738 4172 391 4172 
L 238 4172 
L 238 4372 
L 1319 4372 
Q 1434 4372 1465 4351 
Q 1497 4331 1544 4231 
L 2931 647 
L 4331 4250 
Q 4363 4341 4392 4356 
Q 4422 4372 4544 4372 
L 5625 4372 
L 5625 4172 
L 5472 4172 
Q 5125 4172 5045 4114 
Q 4966 4056 4966 3872 
L 4966 500 
Q 4966 316 5045 256 
Q 5125 197 5472 197 
L 5625 197 
L 5625 0 
Q 5388 19 4709 19 
Q 4025 19 3788 0 
L 3788 197 
L 3944 197 
Q 4291 197 4369 255 
Q 4447 313 4447 500 
L 4447 4172 
L 4441 4172 
L 2869 122 
Q 2825 0 2753 0 
Q 2675 0 2625 141 
L 1081 4122 
L 1075 4122 
L 1075 672 
Q 1075 575 1087 517 
Q 1100 459 1154 373 
Q 1209 288 1356 242 
Q 1503 197 1734 197 
L 1734 0 
Q 1063 19 986 19 
Q 909 19 238 0 
z
" transform="scale(0.015625)"/>
       <path id="CMUSerif-Roman-2d" d="M 63 1191 
L 63 1569 
L 1766 1569 
L 1766 1191 
L 63 1191 
z
" transform="scale(0.015625)"/>
      </defs>
      <use xlink:href="#CMUSerif-Roman-57"/>
      <use xlink:href="#CMUSerif-Roman-65" transform="translate(102.685547 0)"/>
      <use xlink:href="#CMUSerif-Roman-69" transform="translate(147.070312 0)"/>
      <use xlink:href="#CMUSerif-Roman-67" transform="translate(174.755859 0)"/>
      <use xlink:href="#CMUSerif-Roman-68" transform="translate(224.755859 0)"/>
      <use xlink:href="#CMUSerif-Roman-74" transform="translate(280.224609 0)"/>
      <use xlink:href="#CMUSerif-Roman-65" transform="translate(318.994141 0)"/>
      <use xlink:href="#CMUSerif-Roman-64" transform="translate(363.378906 0)"/>
      <use xlink:href="#CMUSerif-Roman-20" transform="translate(418.847656 0)"/>
      <use xlink:href="#CMUSerif-Roman-43" transform="translate(452.099609 0)"/>
      <use xlink:href="#CMUSerif-Roman-4c" transform="translate(525.021992 -12.932812) scale(0.7)"/>
      <use xlink:href="#CMUSerif-Roman-2c" transform="translate(568.771992 -12.932812) scale(0.7)"/>
      <use xlink:href="#Cmr10-74" transform="translate(600.442891 -12.932812) scale(0.7)"/>
      <use xlink:href="#Cmr10-6f" transform="translate(627.615742 -12.932812) scale(0.7)"/>
      <use xlink:href="#Cmr10-74" transform="translate(662.615742 -12.932812) scale(0.7)"/>
      <use xlink:href="#CMUSerif-Roman-20" transform="translate(691.944062 0)"/>
      <use xlink:href="#CMUSerif-Roman-20" transform="translate(725.196016 0)"/>
      <use xlink:href="#CMUSerif-Roman-28" transform="translate(758.447969 0)"/>
      <use xlink:href="#CMUSerif-Roman-4d" transform="translate(797.2175 0)"/>
      <use xlink:href="#CMUSerif-Roman-69" transform="translate(888.770234 0)"/>
      <use xlink:href="#CMUSerif-Roman-73" transform="translate(916.455781 0)"/>
      <use xlink:href="#CMUSerif-Roman-73" transform="translate(955.81125 0)"/>
      <use xlink:href="#CMUSerif-Roman-69" transform="translate(995.166719 0)"/>
      <use xlink:href="#CMUSerif-Roman-6f" transform="translate(1022.852266 0)"/>
      <use xlink:href="#CMUSerif-Roman-6e" transform="translate(1072.852266 0)"/>
      <use xlink:href="#CMUSerif-Roman-2d" transform="translate(1128.321016 0)"/>
      <use xlink:href="#CMUSerif-Roman-57" transform="translate(1161.572969 0)"/>
      <use xlink:href="#CMUSerif-Roman-65" transform="translate(1264.258516 0)"/>
      <use xlink:href="#CMUSerif-Roman-69" transform="translate(1308.643281 0)"/>
      <use xlink:href="#CMUSerif-Roman-67" transform="translate(1336.328828 0)"/>
      <use xlink:href="#CMUSerif-Roman-68" transform="translate(1386.328828 0)"/>
      <use xlink:href="#CMUSerif-Roman-74" transform="translate(1441.797578 0)"/>
      <use xlink:href="#CMUSerif-Roman-65" transform="translate(1480.567109 0)"/>
      <use xlink:href="#CMUSerif-Roman-64" transform="translate(1524.951875 0)"/>
      <use xlink:href="#CMUSerif-Roman-20" transform="translate(1580.420625 0)"/>
      <use xlink:href="#CMUSerif-Roman-4c" transform="translate(1613.672578 0)"/>
      <use xlink:href="#CMUSerif-Roman-69" transform="translate(1676.172578 0)"/>
      <use xlink:href="#CMUSerif-Roman-66" transform="translate(1703.858125 0)"/>
      <use xlink:href="#CMUSerif-Roman-74" transform="translate(1734.326875 0)"/>
      <use xlink:href="#CMUSerif-Roman-29" transform="translate(1773.096406 0)"/>
     </g>
    </g>
   </g>
   <g id="line2d_35">
    <path d="M 350.356893 259.850797 
L 350.356893 259.850797 
L 350.356893 259.850797 
L 360.126829 253.557461 
L 360.126829 253.557461 
L 368.087517 248.075531 
L 368.087517 248.075531 
L 368.087517 248.075531 
L 368.087517 248.075531 
L 380.752247 247.435642 
L 380.752247 247.435642 
L 380.752247 247.435642 
L 380.752247 247.435642 
L 380.752247 247.435642 
L 386.541839 242.013082 
L 386.541839 242.013082 
L 386.541839 242.013082 
L 386.541839 242.013082 
L 387.627387 241.630469 
L 387.627387 241.630469 
L 387.627387 241.630469 
L 476.280503 235.746134 
L 476.280503 235.746134 
L 476.280503 235.746134 
L 476.280503 235.746134 
" clip-path="url(#pc15f8dd770)" style="fill: none; stroke: #1f4e8c; stroke-width: 1.5; stroke-linecap: square"/>
    <defs>
     <path id="m4534e38f1d" d="M 0 2.1 
C 0.556927 2.1 1.091118 1.878731 1.484924 1.484924 
C 1.878731 1.091118 2.1 0.556927 2.1 0 
C 2.1 -0.556927 1.878731 -1.091118 1.484924 -1.484924 
C 1.091118 -1.878731 0.556927 -2.1 0 -2.1 
C -0.556927 -2.1 -1.091118 -1.878731 -1.484924 -1.484924 
C -1.878731 -1.091118 -2.1 -0.556927 -2.1 0 
C -2.1 0.556927 -1.878731 1.091118 -1.484924 1.484924 
C -1.091118 1.878731 -0.556927 2.1 0 2.1 
z
" style="stroke: #1f4e8c"/>
    </defs>
    <g clip-path="url(#pc15f8dd770)">
     <use xlink:href="#m4534e38f1d" x="350.356893" y="259.850797" style="fill: #1f4e8c; stroke: #1f4e8c"/>
     <use xlink:href="#m4534e38f1d" x="350.356893" y="259.850797" style="fill: #1f4e8c; stroke: #1f4e8c"/>
     <use xlink:href="#m4534e38f1d" x="350.356893" y="259.850797" style="fill: #1f4e8c; stroke: #1f4e8c"/>
     <use xlink:href="#m4534e38f1d" x="360.126829" y="253.557461" style="fill: #1f4e8c; stroke: #1f4e8c"/>
     <use xlink:href="#m4534e38f1d" x="360.126829" y="253.557461" style="fill: #1f4e8c; stroke: #1f4e8c"/>
     <use xlink:href="#m4534e38f1d" x="368.087517" y="248.075531" style="fill: #1f4e8c; stroke: #1f4e8c"/>
     <use xlink:href="#m4534e38f1d" x="368.087517" y="248.075531" style="fill: #1f4e8c; stroke: #1f4e8c"/>
     <use xlink:href="#m4534e38f1d" x="368.087517" y="248.075531" style="fill: #1f4e8c; stroke: #1f4e8c"/>
     <use xlink:href="#m4534e38f1d" x="368.087517" y="248.075531" style="fill: #1f4e8c; stroke: #1f4e8c"/>
     <use xlink:href="#m4534e38f1d" x="380.752247" y="247.435642" style="fill: #1f4e8c; stroke: #1f4e8c"/>
     <use xlink:href="#m4534e38f1d" x="380.752247" y="247.435642" style="fill: #1f4e8c; stroke: #1f4e8c"/>
     <use xlink:href="#m4534e38f1d" x="380.752247" y="247.435642" style="fill: #1f4e8c; stroke: #1f4e8c"/>
     <use xlink:href="#m4534e38f1d" x="380.752247" y="247.435642" style="fill: #1f4e8c; stroke: #1f4e8c"/>
     <use xlink:href="#m4534e38f1d" x="380.752247" y="247.435642" style="fill: #1f4e8c; stroke: #1f4e8c"/>
     <use xlink:href="#m4534e38f1d" x="386.541839" y="242.013082" style="fill: #1f4e8c; stroke: #1f4e8c"/>
     <use xlink:href="#m4534e38f1d" x="386.541839" y="242.013082" style="fill: #1f4e8c; stroke: #1f4e8c"/>
     <use xlink:href="#m4534e38f1d" x="386.541839" y="242.013082" style="fill: #1f4e8c; stroke: #1f4e8c"/>
     <use xlink:href="#m4534e38f1d" x="386.541839" y="242.013082" style="fill: #1f4e8c; stroke: #1f4e8c"/>
     <use xlink:href="#m4534e38f1d" x="387.627387" y="241.630469" style="fill: #1f4e8c; stroke: #1f4e8c"/>
     <use xlink:href="#m4534e38f1d" x="387.627387" y="241.630469" style="fill: #1f4e8c; stroke: #1f4e8c"/>
     <use xlink:href="#m4534e38f1d" x="387.627387" y="241.630469" style="fill: #1f4e8c; stroke: #1f4e8c"/>
     <use xlink:href="#m4534e38f1d" x="476.280503" y="235.746134" style="fill: #1f4e8c; stroke: #1f4e8c"/>
     <use xlink:href="#m4534e38f1d" x="476.280503" y="235.746134" style="fill: #1f4e8c; stroke: #1f4e8c"/>
     <use xlink:href="#m4534e38f1d" x="476.280503" y="235.746134" style="fill: #1f4e8c; stroke: #1f4e8c"/>
     <use xlink:href="#m4534e38f1d" x="476.280503" y="235.746134" style="fill: #1f4e8c; stroke: #1f4e8c"/>
    </g>
   </g>
   <g id="line2d_36">
    <path d="M 80.417202 284.235824 
L 80.417202 284.235824 
L 80.417202 284.235824 
L 109.727007 276.39884 
L 109.727007 276.39884 
L 109.727007 276.39884 
L 109.727007 276.39884 
L 109.727007 276.39884 
L 112.983652 272.638671 
L 112.983652 272.638671 
L 170.879565 269.482108 
L 170.879565 269.482108 
L 170.879565 269.482108 
L 221.900338 265.524035 
L 221.900338 265.524035 
L 221.900338 265.524035 
L 221.900338 265.524035 
L 221.900338 265.524035 
L 268.217068 256.460048 
L 268.217068 256.460048 
L 268.217068 256.460048 
L 398.482871 250.819794 
L 398.482871 250.819794 
L 398.482871 250.819794 
L 398.482871 250.819794 
" clip-path="url(#pc15f8dd770)" style="fill: none; stroke: #a23737; stroke-width: 1.5; stroke-linecap: square"/>
    <defs>
     <path id="mf3647658d4" d="M 0 2.1 
C 0.556927 2.1 1.091118 1.878731 1.484924 1.484924 
C 1.878731 1.091118 2.1 0.556927 2.1 0 
C 2.1 -0.556927 1.878731 -1.091118 1.484924 -1.484924 
C 1.091118 -1.878731 0.556927 -2.1 0 -2.1 
C -0.556927 -2.1 -1.091118 -1.878731 -1.484924 -1.484924 
C -1.878731 -1.091118 -2.1 -0.556927 -2.1 0 
C -2.1 0.556927 -1.878731 1.091118 -1.484924 1.484924 
C -1.091118 1.878731 -0.556927 2.1 0 2.1 
z
" style="stroke: #a23737"/>
    </defs>
    <g clip-path="url(#pc15f8dd770)">
     <use xlink:href="#mf3647658d4" x="80.417202" y="284.235824" style="fill: #a23737; stroke: #a23737"/>
     <use xlink:href="#mf3647658d4" x="80.417202" y="284.235824" style="fill: #a23737; stroke: #a23737"/>
     <use xlink:href="#mf3647658d4" x="80.417202" y="284.235824" style="fill: #a23737; stroke: #a23737"/>
     <use xlink:href="#mf3647658d4" x="109.727007" y="276.39884" style="fill: #a23737; stroke: #a23737"/>
     <use xlink:href="#mf3647658d4" x="109.727007" y="276.39884" style="fill: #a23737; stroke: #a23737"/>
     <use xlink:href="#mf3647658d4" x="109.727007" y="276.39884" style="fill: #a23737; stroke: #a23737"/>
     <use xlink:href="#mf3647658d4" x="109.727007" y="276.39884" style="fill: #a23737; stroke: #a23737"/>
     <use xlink:href="#mf3647658d4" x="109.727007" y="276.39884" style="fill: #a23737; stroke: #a23737"/>
     <use xlink:href="#mf3647658d4" x="112.983652" y="272.638671" style="fill: #a23737; stroke: #a23737"/>
     <use xlink:href="#mf3647658d4" x="112.983652" y="272.638671" style="fill: #a23737; stroke: #a23737"/>
     <use xlink:href="#mf3647658d4" x="170.879565" y="269.482108" style="fill: #a23737; stroke: #a23737"/>
     <use xlink:href="#mf3647658d4" x="170.879565" y="269.482108" style="fill: #a23737; stroke: #a23737"/>
     <use xlink:href="#mf3647658d4" x="170.879565" y="269.482108" style="fill: #a23737; stroke: #a23737"/>
     <use xlink:href="#mf3647658d4" x="221.900338" y="265.524035" style="fill: #a23737; stroke: #a23737"/>
     <use xlink:href="#mf3647658d4" x="221.900338" y="265.524035" style="fill: #a23737; stroke: #a23737"/>
     <use xlink:href="#mf3647658d4" x="221.900338" y="265.524035" style="fill: #a23737; stroke: #a23737"/>
     <use xlink:href="#mf3647658d4" x="221.900338" y="265.524035" style="fill: #a23737; stroke: #a23737"/>
     <use xlink:href="#mf3647658d4" x="221.900338" y="265.524035" style="fill: #a23737; stroke: #a23737"/>
     <use xlink:href="#mf3647658d4" x="268.217068" y="256.460048" style="fill: #a23737; stroke: #a23737"/>
     <use xlink:href="#mf3647658d4" x="268.217068" y="256.460048" style="fill: #a23737; stroke: #a23737"/>
     <use xlink:href="#mf3647658d4" x="268.217068" y="256.460048" style="fill: #a23737; stroke: #a23737"/>
     <use xlink:href="#mf3647658d4" x="398.482871" y="250.819794" style="fill: #a23737; stroke: #a23737"/>
     <use xlink:href="#mf3647658d4" x="398.482871" y="250.819794" style="fill: #a23737; stroke: #a23737"/>
     <use xlink:href="#mf3647658d4" x="398.482871" y="250.819794" style="fill: #a23737; stroke: #a23737"/>
     <use xlink:href="#mf3647658d4" x="398.482871" y="250.819794" style="fill: #a23737; stroke: #a23737"/>
    </g>
   </g>
   <g id="line2d_37">
    <path d="M 518.616889 218.648579 
L 518.616889 218.648579 
L 518.616889 218.648579 
L 518.616889 218.648579 
L 518.616889 218.648579 
L 551.907039 211.626958 
L 551.907039 211.626958 
L 551.907039 211.626958 
L 576.512801 211.43697 
L 576.512801 211.43697 
L 576.512801 211.43697 
L 576.512801 211.43697 
L 576.512801 211.43697 
L 590.263081 205.262377 
L 590.263081 205.262377 
L 615.592542 204.082871 
L 615.592542 204.082871 
L 615.592542 204.082871 
L 615.592542 204.082871 
L 640.560155 203.449579 
L 640.560155 203.449579 
L 640.560155 203.449579 
L 640.560155 203.449579 
L 669.508111 203.235843 
L 669.508111 203.235843 
" clip-path="url(#pc15f8dd770)" style="fill: none; stroke: #196b3a; stroke-width: 1.5; stroke-linecap: square"/>
    <defs>
     <path id="m14d736247f" d="M 0 2.1 
C 0.556927 2.1 1.091118 1.878731 1.484924 1.484924 
C 1.878731 1.091118 2.1 0.556927 2.1 0 
C 2.1 -0.556927 1.878731 -1.091118 1.484924 -1.484924 
C 1.091118 -1.878731 0.556927 -2.1 0 -2.1 
C -0.556927 -2.1 -1.091118 -1.878731 -1.484924 -1.484924 
C -1.878731 -1.091118 -2.1 -0.556927 -2.1 0 
C -2.1 0.556927 -1.878731 1.091118 -1.484924 1.484924 
C -1.091118 1.878731 -0.556927 2.1 0 2.1 
z
" style="stroke: #196b3a"/>
    </defs>
    <g clip-path="url(#pc15f8dd770)">
     <use xlink:href="#m14d736247f" x="518.616889" y="218.648579" style="fill: #196b3a; stroke: #196b3a"/>
     <use xlink:href="#m14d736247f" x="518.616889" y="218.648579" style="fill: #196b3a; stroke: #196b3a"/>
     <use xlink:href="#m14d736247f" x="518.616889" y="218.648579" style="fill: #196b3a; stroke: #196b3a"/>
     <use xlink:href="#m14d736247f" x="518.616889" y="218.648579" style="fill: #196b3a; stroke: #196b3a"/>
     <use xlink:href="#m14d736247f" x="518.616889" y="218.648579" style="fill: #196b3a; stroke: #196b3a"/>
     <use xlink:href="#m14d736247f" x="551.907039" y="211.626958" style="fill: #196b3a; stroke: #196b3a"/>
     <use xlink:href="#m14d736247f" x="551.907039" y="211.626958" style="fill: #196b3a; stroke: #196b3a"/>
     <use xlink:href="#m14d736247f" x="551.907039" y="211.626958" style="fill: #196b3a; stroke: #196b3a"/>
     <use xlink:href="#m14d736247f" x="576.512801" y="211.43697" style="fill: #196b3a; stroke: #196b3a"/>
     <use xlink:href="#m14d736247f" x="576.512801" y="211.43697" style="fill: #196b3a; stroke: #196b3a"/>
     <use xlink:href="#m14d736247f" x="576.512801" y="211.43697" style="fill: #196b3a; stroke: #196b3a"/>
     <use xlink:href="#m14d736247f" x="576.512801" y="211.43697" style="fill: #196b3a; stroke: #196b3a"/>
     <use xlink:href="#m14d736247f" x="576.512801" y="211.43697" style="fill: #196b3a; stroke: #196b3a"/>
     <use xlink:href="#m14d736247f" x="590.263081" y="205.262377" style="fill: #196b3a; stroke: #196b3a"/>
     <use xlink:href="#m14d736247f" x="590.263081" y="205.262377" style="fill: #196b3a; stroke: #196b3a"/>
     <use xlink:href="#m14d736247f" x="615.592542" y="204.082871" style="fill: #196b3a; stroke: #196b3a"/>
     <use xlink:href="#m14d736247f" x="615.592542" y="204.082871" style="fill: #196b3a; stroke: #196b3a"/>
     <use xlink:href="#m14d736247f" x="615.592542" y="204.082871" style="fill: #196b3a; stroke: #196b3a"/>
     <use xlink:href="#m14d736247f" x="615.592542" y="204.082871" style="fill: #196b3a; stroke: #196b3a"/>
     <use xlink:href="#m14d736247f" x="640.560155" y="203.449579" style="fill: #196b3a; stroke: #196b3a"/>
     <use xlink:href="#m14d736247f" x="640.560155" y="203.449579" style="fill: #196b3a; stroke: #196b3a"/>
     <use xlink:href="#m14d736247f" x="640.560155" y="203.449579" style="fill: #196b3a; stroke: #196b3a"/>
     <use xlink:href="#m14d736247f" x="640.560155" y="203.449579" style="fill: #196b3a; stroke: #196b3a"/>
     <use xlink:href="#m14d736247f" x="669.508111" y="203.235843" style="fill: #196b3a; stroke: #196b3a"/>
     <use xlink:href="#m14d736247f" x="669.508111" y="203.235843" style="fill: #196b3a; stroke: #196b3a"/>
    </g>
   </g>
   <g id="line2d_38">
    <path d="M 80.417202 128.370876 
L 80.417202 128.370876 
L 80.417202 128.370876 
L 88.37789 127.701961 
L 112.983652 103.382243 
L 112.983652 103.382243 
L 132.161673 102.595906 
L 132.161673 102.595906 
L 132.161673 102.595906 
L 170.879565 80.109435 
L 170.879565 80.109435 
L 221.900338 76.156639 
L 221.900338 76.156639 
L 221.900338 76.156639 
L 229.137327 73.191383 
L 229.137327 73.191383 
L 229.137327 73.191383 
L 271.473713 55.347072 
L 271.473713 55.347072 
L 271.473713 55.347072 
L 325.751131 44.365399 
L 325.751131 44.365399 
L 398.482871 35.508551 
L 398.482871 35.508551 
L 398.482871 35.508551 
" clip-path="url(#pc15f8dd770)" style="fill: none; stroke: #7a3f8c; stroke-width: 1.5; stroke-linecap: square"/>
    <defs>
     <path id="m85a8d33a27" d="M 0 2.1 
C 0.556927 2.1 1.091118 1.878731 1.484924 1.484924 
C 1.878731 1.091118 2.1 0.556927 2.1 0 
C 2.1 -0.556927 1.878731 -1.091118 1.484924 -1.484924 
C 1.091118 -1.878731 0.556927 -2.1 0 -2.1 
C -0.556927 -2.1 -1.091118 -1.878731 -1.484924 -1.484924 
C -1.878731 -1.091118 -2.1 -0.556927 -2.1 0 
C -2.1 0.556927 -1.878731 1.091118 -1.484924 1.484924 
C -1.091118 1.878731 -0.556927 2.1 0 2.1 
z
" style="stroke: #7a3f8c"/>
    </defs>
    <g clip-path="url(#pc15f8dd770)">
     <use xlink:href="#m85a8d33a27" x="80.417202" y="128.370876" style="fill: #7a3f8c; stroke: #7a3f8c"/>
     <use xlink:href="#m85a8d33a27" x="80.417202" y="128.370876" style="fill: #7a3f8c; stroke: #7a3f8c"/>
     <use xlink:href="#m85a8d33a27" x="80.417202" y="128.370876" style="fill: #7a3f8c; stroke: #7a3f8c"/>
     <use xlink:href="#m85a8d33a27" x="88.37789" y="127.701961" style="fill: #7a3f8c; stroke: #7a3f8c"/>
     <use xlink:href="#m85a8d33a27" x="112.983652" y="103.382243" style="fill: #7a3f8c; stroke: #7a3f8c"/>
     <use xlink:href="#m85a8d33a27" x="112.983652" y="103.382243" style="fill: #7a3f8c; stroke: #7a3f8c"/>
     <use xlink:href="#m85a8d33a27" x="132.161673" y="102.595906" style="fill: #7a3f8c; stroke: #7a3f8c"/>
     <use xlink:href="#m85a8d33a27" x="132.161673" y="102.595906" style="fill: #7a3f8c; stroke: #7a3f8c"/>
     <use xlink:href="#m85a8d33a27" x="132.161673" y="102.595906" style="fill: #7a3f8c; stroke: #7a3f8c"/>
     <use xlink:href="#m85a8d33a27" x="170.879565" y="80.109435" style="fill: #7a3f8c; stroke: #7a3f8c"/>
     <use xlink:href="#m85a8d33a27" x="170.879565" y="80.109435" style="fill: #7a3f8c; stroke: #7a3f8c"/>
     <use xlink:href="#m85a8d33a27" x="221.900338" y="76.156639" style="fill: #7a3f8c; stroke: #7a3f8c"/>
     <use xlink:href="#m85a8d33a27" x="221.900338" y="76.156639" style="fill: #7a3f8c; stroke: #7a3f8c"/>
     <use xlink:href="#m85a8d33a27" x="221.900338" y="76.156639" style="fill: #7a3f8c; stroke: #7a3f8c"/>
     <use xlink:href="#m85a8d33a27" x="229.137327" y="73.191383" style="fill: #7a3f8c; stroke: #7a3f8c"/>
     <use xlink:href="#m85a8d33a27" x="229.137327" y="73.191383" style="fill: #7a3f8c; stroke: #7a3f8c"/>
     <use xlink:href="#m85a8d33a27" x="229.137327" y="73.191383" style="fill: #7a3f8c; stroke: #7a3f8c"/>
     <use xlink:href="#m85a8d33a27" x="271.473713" y="55.347072" style="fill: #7a3f8c; stroke: #7a3f8c"/>
     <use xlink:href="#m85a8d33a27" x="271.473713" y="55.347072" style="fill: #7a3f8c; stroke: #7a3f8c"/>
     <use xlink:href="#m85a8d33a27" x="271.473713" y="55.347072" style="fill: #7a3f8c; stroke: #7a3f8c"/>
     <use xlink:href="#m85a8d33a27" x="325.751131" y="44.365399" style="fill: #7a3f8c; stroke: #7a3f8c"/>
     <use xlink:href="#m85a8d33a27" x="325.751131" y="44.365399" style="fill: #7a3f8c; stroke: #7a3f8c"/>
     <use xlink:href="#m85a8d33a27" x="398.482871" y="35.508551" style="fill: #7a3f8c; stroke: #7a3f8c"/>
     <use xlink:href="#m85a8d33a27" x="398.482871" y="35.508551" style="fill: #7a3f8c; stroke: #7a3f8c"/>
     <use xlink:href="#m85a8d33a27" x="398.482871" y="35.508551" style="fill: #7a3f8c; stroke: #7a3f8c"/>
    </g>
   </g>
   <g id="patch_3">
    <path d="M 50.962656 296.672188 
L 50.962656 23.072188 
" style="fill: none; stroke: #000000; stroke-width: 0.8; stroke-linejoin: miter; stroke-linecap: square"/>
   </g>
   <g id="patch_4">
    <path d="M 50.962656 296.672188 
L 698.962656 296.672188 
" style="fill: none; stroke: #000000; stroke-width: 0.8; stroke-linejoin: miter; stroke-linecap: square"/>
   </g>
   <g id="text_20">
    <!-- Pareto-front overlay — all optimisations -->
    <g transform="translate(250.671094 17.072187) scale(0.14 -0.14)">
     <defs>
      <path id="CMUSerif-Roman-6c" d="M 213 0 
L 213 197 
Q 553 197 631 239 
Q 709 281 709 488 
L 709 3816 
Q 709 4053 626 4112 
Q 544 4172 213 4172 
L 213 4372 
L 1131 4441 
L 1131 488 
Q 1131 281 1212 239 
Q 1294 197 1631 197 
L 1631 0 
Q 1553 0 1390 6 
Q 1228 13 1109 16 
Q 991 19 922 19 
Q 847 19 213 0 
z
" transform="scale(0.015625)"/>
      <path id="CMUSerif-Roman-2014" d="M 0 1631 
L 0 1772 
L 6394 1772 
L 6394 1631 
L 0 1631 
z
" transform="scale(0.015625)"/>
      <path id="CMUSerif-Roman-70" d="M 178 -1044 
Q 519 -1044 598 -1001 
Q 678 -959 678 -756 
L 678 2241 
Q 678 2453 598 2506 
Q 519 2559 178 2559 
L 178 2759 
L 1100 2828 
L 1100 2406 
Q 1484 2828 1997 2828 
Q 2541 2828 2937 2406 
Q 3334 1984 3334 1381 
Q 3334 772 2912 350 
Q 2491 -72 1906 -72 
Q 1588 -72 1373 92 
Q 1159 256 1119 378 
L 1119 319 
L 1119 -756 
Q 1119 -963 1200 -1003 
Q 1281 -1044 1619 -1044 
L 1619 -1241 
Q 947 -1222 897 -1222 
Q 834 -1222 178 -1241 
L 178 -1044 
z
M 1119 728 
Q 1119 631 1133 597 
Q 1147 563 1209 459 
Q 1463 72 1875 72 
Q 1878 72 1881 72 
Q 2247 72 2525 445 
Q 2803 819 2803 1381 
Q 2803 1919 2550 2294 
Q 2297 2669 1947 2669 
Q 1697 2669 1478 2534 
Q 1259 2400 1119 2156 
L 1119 728 
z
" transform="scale(0.015625)"/>
     </defs>
     <use xlink:href="#CMUSerif-Roman-50"/>
     <use xlink:href="#CMUSerif-Roman-61" transform="translate(67.96875 0)"/>
     <use xlink:href="#CMUSerif-Roman-72" transform="translate(117.96875 0)"/>
     <use xlink:href="#CMUSerif-Roman-65" transform="translate(157.03125 0)"/>
     <use xlink:href="#CMUSerif-Roman-74" transform="translate(201.416016 0)"/>
     <use xlink:href="#CMUSerif-Roman-6f" transform="translate(240.185547 0)"/>
     <use xlink:href="#CMUSerif-Roman-2d" transform="translate(290.185547 0)"/>
     <use xlink:href="#CMUSerif-Roman-66" transform="translate(323.4375 0)"/>
     <use xlink:href="#CMUSerif-Roman-72" transform="translate(353.90625 0)"/>
     <use xlink:href="#CMUSerif-Roman-6f" transform="translate(392.96875 0)"/>
     <use xlink:href="#CMUSerif-Roman-6e" transform="translate(442.96875 0)"/>
     <use xlink:href="#CMUSerif-Roman-74" transform="translate(498.4375 0)"/>
     <use xlink:href="#CMUSerif-Roman-20" transform="translate(537.207031 0)"/>
     <use xlink:href="#CMUSerif-Roman-6f" transform="translate(570.458984 0)"/>
     <use xlink:href="#CMUSerif-Roman-76" transform="translate(620.458984 0)"/>
     <use xlink:href="#CMUSerif-Roman-65" transform="translate(673.144531 0)"/>
     <use xlink:href="#CMUSerif-Roman-72" transform="translate(717.529297 0)"/>
     <use xlink:href="#CMUSerif-Roman-6c" transform="translate(756.591797 0)"/>
     <use xlink:href="#CMUSerif-Roman-61" transform="translate(784.277344 0)"/>
     <use xlink:href="#CMUSerif-Roman-79" transform="translate(834.277344 0)"/>
     <use xlink:href="#CMUSerif-Roman-20" transform="translate(886.962891 0)"/>
     <use xlink:href="#CMUSerif-Roman-2014" transform="translate(920.214844 0)"/>
     <use xlink:href="#CMUSerif-Roman-20" transform="translate(1020.214844 0)"/>
     <use xlink:href="#CMUSerif-Roman-61" transform="translate(1053.466797 0)"/>
     <use xlink:href="#CMUSerif-Roman-6c" transform="translate(1103.466797 0)"/>
     <use xlink:href="#CMUSerif-Roman-6c" transform="translate(1131.152344 0)"/>
     <use xlink:href="#CMUSerif-Roman-20" transform="translate(1158.837891 0)"/>
     <use xlink:href="#CMUSerif-Roman-6f" transform="translate(1192.089844 0)"/>
     <use xlink:href="#CMUSerif-Roman-70" transform="translate(1242.089844 0)"/>
     <use xlink:href="#CMUSerif-Roman-74" transform="translate(1297.558594 0)"/>
     <use xlink:href="#CMUSerif-Roman-69" transform="translate(1336.328125 0)"/>
     <use xlink:href="#CMUSerif-Roman-6d" transform="translate(1364.013672 0)"/>
     <use xlink:href="#CMUSerif-Roman-69" transform="translate(1447.265625 0)"/>
     <use xlink:href="#CMUSerif-Roman-73" transform="translate(1474.951172 0)"/>
     <use xlink:href="#CMUSerif-Roman-61" transform="translate(1514.306641 0)"/>
     <use xlink:href="#CMUSerif-Roman-74" transform="translate(1564.306641 0)"/>
     <use xlink:href="#CMUSerif-Roman-69" transform="translate(1603.076172 0)"/>
     <use xlink:href="#CMUSerif-Roman-6f" transform="translate(1630.761719 0)"/>
     <use xlink:href="#CMUSerif-Roman-6e" transform="translate(1680.761719 0)"/>
     <use xlink:href="#CMUSerif-Roman-73" transform="translate(1736.230469 0)"/>
    </g>
   </g>
   <g id="PathCollection_2">
    <defs>
     <path id="mded55f1d91" d="M 0 -7.071068 
L -1.587554 -2.18508 
L -6.724985 -2.18508 
L -2.568716 0.834626 
L -4.156269 5.720614 
L -0 2.700907 
L 4.156269 5.720614 
L 2.568716 0.834626 
L 6.724985 -2.18508 
L 1.587554 -2.18508 
z
" style="stroke: #000000; stroke-width: 1.2"/>
    </defs>
    <g clip-path="url(#pc15f8dd770)">
     <use xlink:href="#mded55f1d91" x="387.627387" y="241.630469" style="fill: #1f4e8c; stroke: #000000; stroke-width: 1.2"/>
    </g>
   </g>
   <g id="PathCollection_3">
    <defs>
     <path id="m6463ac8100" d="M 0 -7.071068 
L -1.587554 -2.18508 
L -6.724985 -2.18508 
L -2.568716 0.834626 
L -4.156269 5.720614 
L -0 2.700907 
L 4.156269 5.720614 
L 2.568716 0.834626 
L 6.724985 -2.18508 
L 1.587554 -2.18508 
z
" style="stroke: #000000; stroke-width: 1.2"/>
    </defs>
    <g clip-path="url(#pc15f8dd770)">
     <use xlink:href="#m6463ac8100" x="268.217068" y="256.460048" style="fill: #a23737; stroke: #000000; stroke-width: 1.2"/>
    </g>
   </g>
   <g id="PathCollection_4">
    <defs>
     <path id="m9b4f670854" d="M 0 -7.071068 
L -1.587554 -2.18508 
L -6.724985 -2.18508 
L -2.568716 0.834626 
L -4.156269 5.720614 
L -0 2.700907 
L 4.156269 5.720614 
L 2.568716 0.834626 
L 6.724985 -2.18508 
L 1.587554 -2.18508 
z
" style="stroke: #000000; stroke-width: 1.2"/>
    </defs>
    <g clip-path="url(#pc15f8dd770)">
     <use xlink:href="#m9b4f670854" x="590.263081" y="205.262377" style="fill: #196b3a; stroke: #000000; stroke-width: 1.2"/>
    </g>
   </g>
   <g id="PathCollection_5">
    <defs>
     <path id="md6ad7d9505" d="M 0 -7.071068 
L -1.587554 -2.18508 
L -6.724985 -2.18508 
L -2.568716 0.834626 
L -4.156269 5.720614 
L -0 2.700907 
L 4.156269 5.720614 
L 2.568716 0.834626 
L 6.724985 -2.18508 
L 1.587554 -2.18508 
z
" style="stroke: #000000; stroke-width: 1.2"/>
    </defs>
    <g clip-path="url(#pc15f8dd770)">
     <use xlink:href="#md6ad7d9505" x="170.879565" y="80.109435" style="fill: #7a3f8c; stroke: #000000; stroke-width: 1.2"/>
    </g>
   </g>
   <g id="legend_1">
    <g id="patch_5">
     <path d="M 447.354531 118.204062 
L 690.562656 118.204062 
Q 692.962656 118.204062 692.962656 115.804062 
L 692.962656 31.472187 
Q 692.962656 29.072187 690.562656 29.072187 
L 447.354531 29.072187 
Q 444.954531 29.072187 444.954531 31.472187 
L 444.954531 115.804062 
Q 444.954531 118.204062 447.354531 118.204062 
z
" style="fill: #fbfbfc; opacity: 0.85; stroke: #b2b2b2; stroke-linejoin: miter"/>
    </g>
    <g id="line2d_39">
     <path d="M 449.754531 38.134062 
L 461.754531 38.134062 
L 473.754531 38.134062 
" style="fill: none; stroke: #1f4e8c; stroke-width: 1.5; stroke-linecap: square"/>
     <g>
      <use xlink:href="#m4534e38f1d" x="461.754531" y="38.134062" style="fill: #1f4e8c; stroke: #1f4e8c"/>
     </g>
    </g>
    <g id="text_21">
     <!-- Stage 1 — Take-off only -->
     <g transform="translate(483.354531 42.334062) scale(0.12 -0.12)">
      <defs>
       <path id="CMUSerif-Roman-53" d="M 359 13 
L 359 1294 
Q 359 1366 362 1391 
Q 366 1416 384 1434 
Q 403 1453 441 1453 
Q 513 1453 519 1388 
Q 538 753 916 403 
Q 1288 56 1925 56 
Q 2309 56 2546 332 
Q 2784 609 2784 972 
Q 2784 1319 2584 1563 
Q 2500 1672 2395 1742 
Q 2291 1813 2227 1834 
Q 2163 1856 2041 1888 
Q 1247 2078 1197 2100 
Q 819 2228 589 2551 
Q 359 2875 359 3272 
Q 359 3784 720 4148 
Q 1081 4513 1606 4513 
Q 1869 4513 2089 4430 
Q 2309 4347 2400 4272 
Q 2491 4197 2631 4063 
L 2853 4428 
Q 2903 4513 2950 4513 
Q 3000 4513 3011 4483 
Q 3022 4453 3022 4359 
L 3022 3072 
Q 3022 3000 3019 2975 
Q 3016 2950 2995 2934 
Q 2975 2919 2938 2919 
Q 2875 2919 2859 2994 
Q 2681 4331 1613 4331 
Q 1247 4331 1008 4086 
Q 769 3841 769 3494 
Q 769 3213 944 2983 
Q 1119 2753 1416 2681 
L 2234 2484 
Q 2644 2388 2919 2025 
Q 3194 1663 3194 1191 
Q 3194 647 2839 253 
Q 2484 -141 1931 -141 
Q 1534 -141 1228 -9 
Q 922 122 756 306 
Q 628 94 544 -25 
L 525 -56 
Q 475 -141 428 -141 
Q 378 -141 368 -109 
Q 359 -78 359 13 
z
" transform="scale(0.015625)"/>
       <path id="CMUSerif-Roman-54" d="M 231 2894 
L 353 4331 
L 4263 4331 
L 4384 2894 
L 4225 2894 
Q 4200 3181 4176 3347 
Q 4153 3513 4098 3670 
Q 4044 3828 3976 3904 
Q 3909 3981 3781 4042 
Q 3653 4103 3487 4118 
Q 3322 4134 3072 4134 
Q 2778 4134 2706 4122 
Q 2628 4103 2609 4048 
Q 2591 3994 2591 3878 
L 2591 506 
Q 2591 378 2617 326 
Q 2644 275 2791 236 
Q 2938 197 3263 197 
L 3519 197 
L 3519 0 
Q 3256 19 2303 19 
Q 1356 19 1094 0 
L 1094 197 
L 1350 197 
Q 1675 197 1823 236 
Q 1972 275 1997 326 
Q 2022 378 2022 506 
L 2022 3878 
Q 2022 3969 2015 4006 
Q 2009 4044 1981 4076 
Q 1953 4109 1889 4121 
Q 1825 4134 1544 4134 
Q 1294 4134 1126 4118 
Q 959 4103 831 4042 
Q 703 3981 636 3904 
Q 569 3828 514 3670 
Q 459 3513 437 3347 
Q 416 3181 391 2894 
L 231 2894 
z
" transform="scale(0.015625)"/>
       <path id="CMUSerif-Roman-6b" d="M 178 0 
L 178 197 
Q 519 197 598 239 
Q 678 281 678 488 
L 678 3816 
Q 678 4053 595 4112 
Q 513 4172 178 4172 
L 178 4372 
L 1100 4441 
L 1100 1369 
L 2003 2150 
Q 2144 2272 2144 2400 
Q 2144 2547 1959 2559 
L 1959 2759 
Q 2228 2741 2675 2741 
Q 2938 2741 3122 2759 
L 3122 2559 
Q 2719 2541 2316 2216 
Q 2225 2144 2011 1958 
Q 1797 1772 1797 1753 
Q 1797 1747 1805 1731 
Q 1813 1716 1825 1703 
Q 1838 1691 1838 1684 
L 2650 538 
Q 2816 306 2937 251 
Q 3059 197 3272 197 
L 3272 0 
Q 2997 19 2713 19 
Q 2559 19 2022 0 
L 2022 197 
Q 2253 197 2253 347 
Q 2253 450 1734 1166 
Q 1697 1216 1613 1325 
Q 1534 1441 1491 1497 
L 1081 1147 
L 1081 488 
Q 1081 281 1161 239 
Q 1241 197 1581 197 
L 1581 0 
Q 1197 19 878 19 
Q 813 19 178 0 
z
" transform="scale(0.015625)"/>
      </defs>
      <use xlink:href="#CMUSerif-Roman-53"/>
      <use xlink:href="#CMUSerif-Roman-74" transform="translate(55.46875 0)"/>
      <use xlink:href="#CMUSerif-Roman-61" transform="translate(94.238281 0)"/>
      <use xlink:href="#CMUSerif-Roman-67" transform="translate(144.238281 0)"/>
      <use xlink:href="#CMUSerif-Roman-65" transform="translate(194.238281 0)"/>
      <use xlink:href="#CMUSerif-Roman-20" transform="translate(238.623047 0)"/>
      <use xlink:href="#CMUSerif-Roman-31" transform="translate(271.875 0)"/>
      <use xlink:href="#CMUSerif-Roman-20" transform="translate(321.875 0)"/>
      <use xlink:href="#CMUSerif-Roman-2014" transform="translate(355.126953 0)"/>
      <use xlink:href="#CMUSerif-Roman-20" transform="translate(455.126953 0)"/>
      <use xlink:href="#CMUSerif-Roman-54" transform="translate(488.378906 0)"/>
      <use xlink:href="#CMUSerif-Roman-61" transform="translate(560.546875 0)"/>
      <use xlink:href="#CMUSerif-Roman-6b" transform="translate(610.546875 0)"/>
      <use xlink:href="#CMUSerif-Roman-65" transform="translate(663.232422 0)"/>
      <use xlink:href="#CMUSerif-Roman-2d" transform="translate(707.617188 0)"/>
      <use xlink:href="#CMUSerif-Roman-6f" transform="translate(740.869141 0)"/>
      <use xlink:href="#CMUSerif-Roman-66" transform="translate(790.869141 0)"/>
      <use xlink:href="#CMUSerif-Roman-66" transform="translate(821.337891 0)"/>
      <use xlink:href="#CMUSerif-Roman-20" transform="translate(851.806641 0)"/>
      <use xlink:href="#CMUSerif-Roman-6f" transform="translate(885.058594 0)"/>
      <use xlink:href="#CMUSerif-Roman-6e" transform="translate(935.058594 0)"/>
      <use xlink:href="#CMUSerif-Roman-6c" transform="translate(990.527344 0)"/>
      <use xlink:href="#CMUSerif-Roman-79" transform="translate(1018.212891 0)"/>
     </g>
    </g>
    <g id="line2d_40">
     <path d="M 449.754531 55.069062 
L 461.754531 55.069062 
L 473.754531 55.069062 
" style="fill: none; stroke: #a23737; stroke-width: 1.5; stroke-linecap: square"/>
     <g>
      <use xlink:href="#mf3647658d4" x="461.754531" y="55.069062" style="fill: #a23737; stroke: #a23737"/>
     </g>
    </g>
    <g id="text_22">
     <!-- Stage 1 — Cruise only -->
     <g transform="translate(483.354531 59.269062) scale(0.12 -0.12)">
      <use xlink:href="#CMUSerif-Roman-53"/>
      <use xlink:href="#CMUSerif-Roman-74" transform="translate(55.46875 0)"/>
      <use xlink:href="#CMUSerif-Roman-61" transform="translate(94.238281 0)"/>
      <use xlink:href="#CMUSerif-Roman-67" transform="translate(144.238281 0)"/>
      <use xlink:href="#CMUSerif-Roman-65" transform="translate(194.238281 0)"/>
      <use xlink:href="#CMUSerif-Roman-20" transform="translate(238.623047 0)"/>
      <use xlink:href="#CMUSerif-Roman-31" transform="translate(271.875 0)"/>
      <use xlink:href="#CMUSerif-Roman-20" transform="translate(321.875 0)"/>
      <use xlink:href="#CMUSerif-Roman-2014" transform="translate(355.126953 0)"/>
      <use xlink:href="#CMUSerif-Roman-20" transform="translate(455.126953 0)"/>
      <use xlink:href="#CMUSerif-Roman-43" transform="translate(488.378906 0)"/>
      <use xlink:href="#CMUSerif-Roman-72" transform="translate(560.546875 0)"/>
      <use xlink:href="#CMUSerif-Roman-75" transform="translate(599.609375 0)"/>
      <use xlink:href="#CMUSerif-Roman-69" transform="translate(655.078125 0)"/>
      <use xlink:href="#CMUSerif-Roman-73" transform="translate(682.763672 0)"/>
      <use xlink:href="#CMUSerif-Roman-65" transform="translate(722.119141 0)"/>
      <use xlink:href="#CMUSerif-Roman-20" transform="translate(766.503906 0)"/>
      <use xlink:href="#CMUSerif-Roman-6f" transform="translate(799.755859 0)"/>
      <use xlink:href="#CMUSerif-Roman-6e" transform="translate(849.755859 0)"/>
      <use xlink:href="#CMUSerif-Roman-6c" transform="translate(905.224609 0)"/>
      <use xlink:href="#CMUSerif-Roman-79" transform="translate(932.910156 0)"/>
     </g>
    </g>
    <g id="line2d_41">
     <path d="M 449.754531 72.004062 
L 461.754531 72.004062 
L 473.754531 72.004062 
" style="fill: none; stroke: #196b3a; stroke-width: 1.5; stroke-linecap: square"/>
     <g>
      <use xlink:href="#m14d736247f" x="461.754531" y="72.004062" style="fill: #196b3a; stroke: #196b3a"/>
     </g>
    </g>
    <g id="text_23">
     <!-- Stage 1 — Landing only -->
     <g transform="translate(483.354531 76.204062) scale(0.12 -0.12)">
      <use xlink:href="#CMUSerif-Roman-53"/>
      <use xlink:href="#CMUSerif-Roman-74" transform="translate(55.46875 0)"/>
      <use xlink:href="#CMUSerif-Roman-61" transform="translate(94.238281 0)"/>
      <use xlink:href="#CMUSerif-Roman-67" transform="translate(144.238281 0)"/>
      <use xlink:href="#CMUSerif-Roman-65" transform="translate(194.238281 0)"/>
      <use xlink:href="#CMUSerif-Roman-20" transform="translate(238.623047 0)"/>
      <use xlink:href="#CMUSerif-Roman-31" transform="translate(271.875 0)"/>
      <use xlink:href="#CMUSerif-Roman-20" transform="translate(321.875 0)"/>
      <use xlink:href="#CMUSerif-Roman-2014" transform="translate(355.126953 0)"/>
      <use xlink:href="#CMUSerif-Roman-20" transform="translate(455.126953 0)"/>
      <use xlink:href="#CMUSerif-Roman-4c" transform="translate(488.378906 0)"/>
      <use xlink:href="#CMUSerif-Roman-61" transform="translate(550.878906 0)"/>
      <use xlink:href="#CMUSerif-Roman-6e" transform="translate(600.878906 0)"/>
      <use xlink:href="#CMUSerif-Roman-64" transform="translate(656.347656 0)"/>
      <use xlink:href="#CMUSerif-Roman-69" transform="translate(711.816406 0)"/>
      <use xlink:href="#CMUSerif-Roman-6e" transform="translate(739.501953 0)"/>
      <use xlink:href="#CMUSerif-Roman-67" transform="translate(794.970703 0)"/>
      <use xlink:href="#CMUSerif-Roman-20" transform="translate(844.970703 0)"/>
      <use xlink:href="#CMUSerif-Roman-6f" transform="translate(878.222656 0)"/>
      <use xlink:href="#CMUSerif-Roman-6e" transform="translate(928.222656 0)"/>
      <use xlink:href="#CMUSerif-Roman-6c" transform="translate(983.691406 0)"/>
      <use xlink:href="#CMUSerif-Roman-79" transform="translate(1011.376953 0)"/>
     </g>
    </g>
    <g id="line2d_42">
     <path d="M 449.754531 89.477187 
L 461.754531 89.477187 
L 473.754531 89.477187 
" style="fill: none; stroke: #7a3f8c; stroke-width: 1.5; stroke-linecap: square"/>
     <g>
      <use xlink:href="#m85a8d33a27" x="461.754531" y="89.477187" style="fill: #7a3f8c; stroke: #7a3f8c"/>
     </g>
    </g>
    <g id="text_24">
     <!-- Stage 2 — Multi-point (whole mission) -->
     <g transform="translate(483.354531 93.677187) scale(0.12 -0.12)">
      <defs>
       <path id="CMUSerif-Roman-77" d="M 116 2559 
L 116 2759 
Q 463 2741 709 2741 
Q 831 2741 1409 2759 
L 1409 2559 
Q 1031 2559 1031 2388 
Q 1031 2350 1063 2272 
L 1672 563 
L 2222 2113 
Q 2106 2425 2075 2463 
Q 1997 2559 1672 2559 
L 1672 2759 
Q 1959 2741 2241 2741 
Q 2350 2741 2906 2759 
L 2906 2559 
Q 2528 2559 2528 2388 
Q 2528 2363 2559 2266 
L 3194 481 
L 3775 2119 
Q 3806 2203 3809 2253 
Q 3809 2394 3709 2473 
Q 3609 2553 3438 2559 
L 3438 2759 
Q 3803 2741 4031 2741 
Q 4288 2741 4500 2759 
L 4500 2559 
Q 4103 2547 3963 2150 
L 3213 50 
Q 3141 -66 3084 -72 
Q 3000 -72 2956 50 
L 2303 1869 
L 1656 56 
Q 1631 -22 1609 -47 
Q 1588 -72 1530 -72 
Q 1472 -72 1447 -39 
Q 1422 -6 1394 72 
L 588 2338 
Q 531 2484 448 2521 
Q 366 2559 116 2559 
z
" transform="scale(0.015625)"/>
      </defs>
      <use xlink:href="#CMUSerif-Roman-53"/>
      <use xlink:href="#CMUSerif-Roman-74" transform="translate(55.46875 0)"/>
      <use xlink:href="#CMUSerif-Roman-61" transform="translate(94.238281 0)"/>
      <use xlink:href="#CMUSerif-Roman-67" transform="translate(144.238281 0)"/>
      <use xlink:href="#CMUSerif-Roman-65" transform="translate(194.238281 0)"/>
      <use xlink:href="#CMUSerif-Roman-20" transform="translate(238.623047 0)"/>
      <use xlink:href="#CMUSerif-Roman-32" transform="translate(271.875 0)"/>
      <use xlink:href="#CMUSerif-Roman-20" transform="translate(321.875 0)"/>
      <use xlink:href="#CMUSerif-Roman-2014" transform="translate(355.126953 0)"/>
      <use xlink:href="#CMUSerif-Roman-20" transform="translate(455.126953 0)"/>
      <use xlink:href="#CMUSerif-Roman-4d" transform="translate(488.378906 0)"/>
      <use xlink:href="#CMUSerif-Roman-75" transform="translate(579.931641 0)"/>
      <use xlink:href="#CMUSerif-Roman-6c" transform="translate(635.400391 0)"/>
      <use xlink:href="#CMUSerif-Roman-74" transform="translate(663.085938 0)"/>
      <use xlink:href="#CMUSerif-Roman-69" transform="translate(701.855469 0)"/>
      <use xlink:href="#CMUSerif-Roman-2d" transform="translate(729.541016 0)"/>
      <use xlink:href="#CMUSerif-Roman-70" transform="translate(762.792969 0)"/>
      <use xlink:href="#CMUSerif-Roman-6f" transform="translate(818.261719 0)"/>
      <use xlink:href="#CMUSerif-Roman-69" transform="translate(868.261719 0)"/>
      <use xlink:href="#CMUSerif-Roman-6e" transform="translate(895.947266 0)"/>
      <use xlink:href="#CMUSerif-Roman-74" transform="translate(951.416016 0)"/>
      <use xlink:href="#CMUSerif-Roman-20" transform="translate(990.185547 0)"/>
      <use xlink:href="#CMUSerif-Roman-28" transform="translate(1023.4375 0)"/>
      <use xlink:href="#CMUSerif-Roman-77" transform="translate(1062.207031 0)"/>
      <use xlink:href="#CMUSerif-Roman-68" transform="translate(1134.375 0)"/>
      <use xlink:href="#CMUSerif-Roman-6f" transform="translate(1189.84375 0)"/>
      <use xlink:href="#CMUSerif-Roman-6c" transform="translate(1239.84375 0)"/>
      <use xlink:href="#CMUSerif-Roman-65" transform="translate(1267.529297 0)"/>
      <use xlink:href="#CMUSerif-Roman-20" transform="translate(1311.914062 0)"/>
      <use xlink:href="#CMUSerif-Roman-6d" transform="translate(1345.166016 0)"/>
      <use xlink:href="#CMUSerif-Roman-69" transform="translate(1428.417969 0)"/>
      <use xlink:href="#CMUSerif-Roman-73" transform="translate(1456.103516 0)"/>
      <use xlink:href="#CMUSerif-Roman-73" transform="translate(1495.458984 0)"/>
      <use xlink:href="#CMUSerif-Roman-69" transform="translate(1534.814453 0)"/>
      <use xlink:href="#CMUSerif-Roman-6f" transform="translate(1562.5 0)"/>
      <use xlink:href="#CMUSerif-Roman-6e" transform="translate(1612.5 0)"/>
      <use xlink:href="#CMUSerif-Roman-29" transform="translate(1667.96875 0)"/>
     </g>
    </g>
    <g id="PathCollection_6">
     <g>
      <use xlink:href="#m7a62877994" x="461.754531" y="107.927187" style="stroke: #000000; stroke-width: 1.2"/>
     </g>
    </g>
    <g id="text_25">
     <!-- Recommended -->
     <g transform="translate(483.354531 111.077187) scale(0.12 -0.12)">
      <defs>
       <path id="CMUSerif-Roman-52" d="M 225 0 
L 225 197 
L 378 197 
Q 725 197 804 255 
Q 884 313 884 500 
L 884 3872 
Q 884 4056 803 4114 
Q 722 4172 378 4172 
L 225 4172 
L 225 4372 
L 2234 4372 
Q 2931 4372 3417 4030 
Q 3903 3688 3903 3219 
Q 3903 2859 3587 2578 
Q 3272 2297 2784 2175 
Q 3419 1956 3566 1434 
L 3647 922 
Q 3672 738 3689 644 
Q 3706 550 3734 422 
Q 3763 294 3792 233 
Q 3822 172 3865 108 
Q 3909 44 3967 22 
Q 4025 0 4103 0 
Q 4250 0 4375 131 
Q 4500 263 4525 569 
Q 4538 672 4603 672 
Q 4684 672 4684 569 
Q 4684 478 4659 373 
Q 4634 269 4573 147 
Q 4513 25 4381 -58 
Q 4250 -141 4078 -141 
Q 3578 -141 3272 128 
Q 3144 244 3086 394 
Q 3028 544 3018 662 
Q 3009 781 3009 1044 
Q 3009 1416 2970 1578 
Q 2931 1741 2766 1900 
Q 2541 2119 2169 2119 
L 1434 2119 
L 1434 500 
Q 1434 316 1514 256 
Q 1594 197 1941 197 
L 2094 197 
L 2094 0 
Q 1863 19 1159 19 
Q 456 19 225 0 
z
M 1434 2259 
L 2144 2259 
Q 2484 2259 2714 2342 
Q 2944 2425 3053 2575 
Q 3163 2725 3203 2876 
Q 3244 3028 3244 3219 
Q 3244 3444 3194 3612 
Q 3144 3781 3034 3881 
Q 2925 3981 2815 4045 
Q 2706 4109 2537 4134 
Q 2369 4159 2253 4165 
Q 2138 4172 1953 4172 
Q 1641 4172 1575 4159 
Q 1503 4153 1475 4118 
Q 1447 4084 1440 4045 
Q 1434 4006 1434 3916 
L 1434 2259 
z
" transform="scale(0.015625)"/>
      </defs>
      <use xlink:href="#CMUSerif-Roman-52"/>
      <use xlink:href="#CMUSerif-Roman-65" transform="translate(73.583984 0)"/>
      <use xlink:href="#CMUSerif-Roman-63" transform="translate(117.96875 0)"/>
      <use xlink:href="#CMUSerif-Roman-6f" transform="translate(162.353516 0)"/>
      <use xlink:href="#CMUSerif-Roman-6d" transform="translate(212.353516 0)"/>
      <use xlink:href="#CMUSerif-Roman-6d" transform="translate(295.605469 0)"/>
      <use xlink:href="#CMUSerif-Roman-65" transform="translate(378.857422 0)"/>
      <use xlink:href="#CMUSerif-Roman-6e" transform="translate(423.242188 0)"/>
      <use xlink:href="#CMUSerif-Roman-64" transform="translate(478.710938 0)"/>
      <use xlink:href="#CMUSerif-Roman-65" transform="translate(534.179688 0)"/>
      <use xlink:href="#CMUSerif-Roman-64" transform="translate(578.564453 0)"/>
     </g>
    </g>
   </g>
  </g>
 </g>
 <defs>
  <clipPath id="pc15f8dd770">
   <rect x="50.962656" y="23.072187" width="648" height="273.6"/>
  </clipPath>
 </defs>
</svg>
