<?xml version="1.0" standalone="no"?>
<!DOCTYPE svg PUBLIC "-//W3C//DTD SVG 20010904//EN"
 "http://www.w3.org/TR/2001/REC-SVG-20010904/DTD/svg10.dtd">
<svg version="1.0" xmlns="http://www.w3.org/2000/svg"
 width="1024.000000pt" height="439.000000pt" viewBox="0 0 1024.000000 439.000000"
 preserveAspectRatio="xMidYMid meet">

<g transform="translate(0.000000,439.000000) scale(0.100000,-0.100000)"
fill="#000000" stroke="none">
<path d="M2715 3899 c-164 -24 -276 -80 -396 -199 -74 -73 -93 -99 -132 -180
-48 -101 -62 -148 -73 -247 l-7 -63 -58 0 -59 0 0 -245 0 -245 60 0 60 0 0
-740 0 -740 245 0 245 0 0 740 0 740 250 0 250 0 0 245 0 245 -244 0 c-135 0
-247 4 -250 8 -9 15 15 86 40 120 50 65 60 66 369 72 l280 5 0 245 0 245 -260
1 c-143 1 -287 -2 -320 -7z"/>
<path d="M1420 2965 l0 -245 245 0 245 0 0 245 0 245 -245 0 -245 0 0 -245z"/>
<path d="M3180 2965 l0 -245 426 0 426 0 29 -29 c31 -31 39 -83 19 -122 -27
-49 -27 -49 -670 -49 l-600 0 0 -640 0 -640 245 0 245 0 0 395 0 395 378 0
c344 0 386 2 456 20 114 29 190 73 276 160 83 83 129 163 156 270 22 88 15
251 -16 337 -57 164 -196 303 -363 364 -61 23 -70 23 -534 27 l-473 3 0 -246z"/>
<path d="M5266 3179 c-134 -22 -284 -146 -356 -293 -97 -197 -107 -398 -24
-495 56 -65 102 -75 343 -76 l204 0 18 65 c11 36 19 68 19 71 0 4 -73 9 -162
11 -190 5 -236 18 -262 73 -17 34 -20 74 -10 113 l6 22 248 0 247 0 20 73 19
72 -244 3 -244 2 7 28 c11 48 55 112 96 142 49 35 81 40 291 49 l162 6 18 60
c10 33 18 66 18 73 0 9 -42 12 -182 11 -101 -1 -205 -5 -232 -10z"/>
<path d="M8555 3168 c-2 -7 -13 -43 -23 -80 l-20 -68 87 0 87 0 17 64 c9 36
20 72 23 80 5 14 -6 16 -80 16 -60 0 -88 -4 -91 -12z"/>
<path d="M643 3053 c-198 -424 -252 -885 -157 -1335 65 -307 218 -628 421
-878 130 -161 344 -347 528 -460 268 -165 627 -280 920 -295 l100 -5 -95 21
c-352 78 -717 256 -985 481 -428 359 -697 831 -797 1398 -29 169 -32 516 -4
690 20 128 62 301 100 409 14 39 22 71 20 71 -3 0 -26 -44 -51 -97z"/>
<path d="M5740 2928 c-6 -13 -46 -149 -90 -303 -44 -154 -83 -288 -86 -298 -5
-16 2 -18 82 -15 l87 3 71 247 71 248 102 0 c97 0 103 -1 118 -24 15 -22 12
-37 -48 -247 l-64 -224 80 -3 c44 -2 84 1 88 5 4 4 35 103 68 220 74 257 78
305 29 358 -43 46 -96 55 -326 55 -169 0 -173 0 -182 -22z"/>
<path d="M6678 2939 c-123 -18 -229 -102 -294 -235 -31 -62 -38 -88 -42 -153
-6 -97 8 -139 58 -185 53 -48 91 -56 271 -56 l156 0 16 60 c10 33 17 62 17 65
0 3 -58 5 -129 5 -176 0 -211 15 -211 89 l0 31 188 0 188 0 17 53 c9 30 17 59
17 65 0 9 -50 12 -180 12 -119 0 -180 4 -180 10 0 25 33 72 63 90 28 18 51 20
184 20 l152 0 19 63 c10 34 17 65 15 70 -5 9 -252 7 -325 -4z"/>
<path d="M7152 2934 c-7 -14 -124 -408 -179 -606 -5 -16 4 -18 80 -18 l86 0
25 83 c14 45 46 157 72 250 l48 167 51 0 c67 0 90 -22 82 -77 -3 -21 -8 -46
-12 -55 -6 -16 1 -18 77 -18 l85 0 16 60 c34 120 18 184 -51 212 -15 6 -104
13 -198 16 -161 4 -172 3 -182 -14z"/>
<path d="M7938 2939 c-120 -17 -234 -103 -292 -220 -83 -166 -70 -317 32 -381
33 -21 52 -23 175 -26 125 -4 137 -5 137 -22 0 -11 -11 -32 -24 -47 l-24 -28
-200 -3 -200 -3 -16 -58 c-9 -31 -16 -60 -16 -64 0 -11 405 -8 459 4 62 13
132 72 166 139 19 38 215 688 215 714 0 9 -345 5 -412 -5z m198 -146 c-3 -10
-26 -90 -51 -178 -26 -88 -50 -164 -55 -168 -4 -5 -52 -7 -105 -5 -95 3 -97 4
-126 36 -35 39 -37 74 -10 161 23 74 59 124 109 151 30 15 58 19 140 20 94 0
103 -2 98 -17z"/>
<path d="M8486 2933 c-75 -260 -176 -614 -176 -618 0 -3 38 -5 84 -5 72 0 85
3 90 18 30 96 176 607 176 613 0 5 -38 9 -84 9 -72 0 -85 -3 -90 -17z"/>
<path d="M9026 2939 c-82 -12 -141 -43 -209 -110 -141 -141 -177 -359 -77
-459 53 -53 91 -61 277 -58 l157 3 13 44 c7 24 15 52 18 62 5 16 -5 18 -144
21 -172 4 -191 11 -191 79 l0 39 187 2 186 3 12 35 c7 19 15 47 19 63 l6 27
-178 0 c-98 0 -181 3 -185 6 -9 9 17 55 48 84 26 24 32 25 190 28 l163 3 16
58 c9 31 16 63 16 69 0 14 -229 15 -324 1z"/>
<path d="M9605 2941 c-57 -10 -97 -34 -142 -85 -93 -106 -81 -251 22 -282 22
-7 95 -13 162 -13 109 -1 123 -3 132 -20 15 -27 -4 -76 -35 -90 -16 -7 -96
-11 -223 -11 l-198 0 -16 -60 c-10 -33 -17 -62 -17 -65 0 -10 455 -5 494 6
125 35 221 234 152 316 -34 41 -85 53 -214 53 -87 0 -114 3 -126 16 -22 21
-20 46 5 77 l20 27 196 2 195 3 19 60 c10 33 19 63 19 68 0 9 -390 7 -445 -2z"/>
<path d="M1420 1880 l0 -640 245 0 245 0 0 640 0 640 -245 0 -245 0 0 -640z"/>
<path d="M8230 2053 c-53 -178 -230 -797 -230 -804 0 -5 38 -9 84 -9 72 0 85
3 90 18 3 9 57 199 121 422 64 223 118 413 121 423 5 15 -3 17 -80 17 l-85 0
-21 -67z"/>
<path d="M8550 2115 c0 -4 -211 -738 -246 -858 -5 -16 2 -18 81 -15 l87 3 124
425 c68 234 123 431 124 438 0 9 -23 12 -85 12 -47 0 -85 -2 -85 -5z"/>
<path d="M5550 1875 c-169 -48 -297 -197 -322 -377 -14 -96 0 -150 52 -199
100 -95 331 -83 478 25 63 47 97 91 139 181 24 52 27 73 28 156 0 87 -2 99
-27 136 -38 58 -101 85 -208 89 -56 3 -103 -1 -140 -11z m178 -150 c22 -26 24
-35 20 -99 -11 -173 -135 -292 -265 -257 -79 22 -99 83 -65 198 41 134 116
197 226 190 50 -3 63 -8 84 -32z"/>
<path d="M4641 1848 c-24 -77 -171 -590 -171 -598 0 -6 37 -10 83 -10 l84 0
74 255 73 255 94 0 c111 0 132 -8 132 -53 0 -18 -27 -124 -60 -237 -33 -113
-60 -208 -60 -212 0 -5 38 -8 85 -8 47 0 85 1 85 3 0 2 29 104 65 227 70 242
77 295 45 348 -34 56 -64 62 -304 62 l-214 0 -11 -32z"/>
<path d="M6105 1868 c-2 -7 -32 -109 -66 -227 -51 -177 -61 -223 -57 -268 6
-65 42 -109 104 -123 21 -5 129 -10 240 -10 l200 0 89 308 c48 169 90 313 93
320 3 10 -15 12 -83 10 l-88 -3 -71 -247 -71 -248 -105 0 c-116 0 -130 6 -130
52 0 22 63 256 116 431 5 15 -3 17 -81 17 -60 0 -87 -4 -90 -12z"/>
<path d="M6771 1848 c0 -18 15 -161 32 -318 l32 -285 95 0 94 0 188 260 c104
143 207 286 229 318 l40 57 -90 0 -90 0 -107 -152 c-59 -84 -128 -182 -153
-218 l-45 -64 -7 29 c-4 17 -12 104 -18 195 -17 233 -5 210 -111 210 l-90 0 1
-32z"/>
<path d="M7659 1861 c-109 -35 -184 -106 -241 -226 -60 -130 -59 -249 2 -319
54 -61 86 -70 271 -74 l167 -4 15 48 c31 96 42 88 -131 94 -173 6 -186 11
-180 80 l3 35 186 3 186 2 16 60 c10 33 17 62 17 65 0 3 -83 5 -185 5 l-185 0
20 41 c34 65 75 79 247 79 l142 0 15 54 c9 30 16 59 16 65 0 8 -51 11 -162 10
-128 0 -175 -4 -219 -18z"/>
<path d="M8969 1866 c-138 -37 -254 -168 -289 -327 -29 -129 6 -226 97 -270
43 -21 65 -24 214 -27 l165 -4 17 61 c9 33 17 65 17 71 0 6 -54 10 -145 10
-143 0 -146 1 -171 25 -19 19 -24 34 -22 58 l3 32 189 5 189 5 18 63 17 62
-184 0 c-101 0 -184 3 -184 8 0 17 41 72 67 89 22 15 55 19 182 23 l154 5 12
35 c7 19 15 47 19 63 l6 27 -162 -1 c-96 0 -182 -5 -209 -13z"/>
<path d="M9545 1869 c-83 -24 -165 -139 -165 -232 0 -110 43 -137 220 -137 67
0 130 -5 141 -10 23 -13 25 -57 5 -86 -13 -17 -31 -19 -228 -24 l-213 -5 -17
-50 c-31 -95 -50 -88 220 -83 187 3 244 7 272 20 77 34 160 153 160 229 0 99
-50 129 -229 136 -69 3 -132 10 -138 16 -19 14 -16 51 6 78 19 23 24 24 217
29 l197 5 18 63 17 62 -226 -1 c-125 0 -241 -5 -257 -10z"/>
</g>
</svg>
