<?xml version="1.0" encoding="UTF-8" standalone="no"?>
<svg xmlns="http://www.w3.org/2000/svg" version="1.1" width="524" height="163">
<polygon fill="#461D7C" points="56,129.8 146.2,129.8 146.2,162.7 0,162.7 0,0 56,0"/>
<path fill="#461D7C" d="M208.3,0h125.9v33.2h-99.3c-10.4,0-18.9,6.3-18.9,14v17.5h118.2v61.8 c0,19.9-21.9,36.2-48.9,36.2H159.6v-33.2h99.1c10.6,0,19.1-6.3,19.1-14V97.8H159.6V36.2 C159.6,16.3,181.5,0,208.3,0"/>
<path fill="#461D7C" d="M466.9,0h56.2v126.5c0,19.9-21.9,36.2-48.7,36.2H349V0.4h55.8v129.4h43 c10.6,0,19.1-6.3,19.1-14.2V0z"/>
</svg>