<svg version="1.2" xmlns="http://www.w3.org/2000/svg" viewBox="0 0 1370 1516" width="1370" height="1516">
	<title>logo (14)-svg</title>
	<defs>
		<radialGradient id="g1" cx="684.4" cy="1299" r="765.5" gradientUnits="userSpaceOnUse">
			<stop offset="0" stop-color="#9dceea"/>
			<stop offset="0" stop-color="#9bcce9"/>
			<stop offset=".3" stop-color="#679aca"/>
			<stop offset=".6" stop-color="#4176b4"/>
			<stop offset=".9" stop-color="#2a5fa6"/>
			<stop offset="1" stop-color="#2257a1"/>
		</radialGradient>
		<linearGradient id="g2" x1="277.7" y1="540.5" x2="1315.2" y2="1128.9" gradientUnits="userSpaceOnUse">
			<stop offset="0" stop-color="#7fb8e7"/>
			<stop offset=".1" stop-color="#70acdd"/>
			<stop offset=".7" stop-color="#2c76b3"/>
			<stop offset="1" stop-color="#1261a3"/>
		</linearGradient>
		<linearGradient id="g3" x1="1174" y1="759.6" x2="562.4" y2="410.7" gradientUnits="userSpaceOnUse">
			<stop offset="0" stop-color="#9dceea"/>
			<stop offset="1" stop-color="#2257a1"/>
		</linearGradient>
		<linearGradient id="g4" x1="1089" y1="687.9" x2="1018.9" y2="804.5" gradientUnits="userSpaceOnUse">
			<stop offset=".1" stop-color="#ffffff"/>
			<stop offset="1" stop-color="#ffffff" stop-opacity="0"/>
		</linearGradient>
		<linearGradient id="g5" x1="787" y1="923.9" x2="1146.2" y2="1209.7" gradientUnits="userSpaceOnUse">
			<stop offset="0" stop-color="#ffffff"/>
			<stop offset="1" stop-color="#0e69b1"/>
		</linearGradient>
		<linearGradient id="g6" x1="57.1" y1="1024.1" x2="1029.5" y2="1024.1" gradientUnits="userSpaceOnUse">
			<stop offset="0" stop-color="#9dceea"/>
			<stop offset="1" stop-color="#2257a1"/>
		</linearGradient>
		<linearGradient id="g7" x1="57.1" y1="925.3" x2="1029.5" y2="925.3" gradientUnits="userSpaceOnUse">
			<stop offset="0" stop-color="#9dceea"/>
			<stop offset="1" stop-color="#2257a1"/>
		</linearGradient>
		<linearGradient id="g8" x1="629.2" y1="-11.7" x2="815.9" y2="1491.6" gradientUnits="userSpaceOnUse">
			<stop offset="0" stop-color="#9dceea"/>
			<stop offset=".1" stop-color="#87b9dd"/>
			<stop offset=".1" stop-color="#689bcb"/>
			<stop offset=".3" stop-color="#4e82bb"/>
			<stop offset=".4" stop-color="#3a6fb0"/>
			<stop offset=".5" stop-color="#2c61a7"/>
			<stop offset=".7" stop-color="#2459a2"/>
			<stop offset=".9" stop-color="#2257a1"/>
		</linearGradient>
	</defs>
	<style>
		.s0 { fill: url(#g1) } 
		.s1 { fill: url(#g2) } 
		.s2 { opacity: .7;fill: url(#g3) } 
		.s3 { opacity: .8;fill: url(#g4) } 
		.s4 { opacity: .3;fill: url(#g5) } 
		.s5 { fill: url(#g6) } 
		.s6 { fill: url(#g7) } 
		.s7 { fill: url(#g8) } 
	</style>
	<g id="Layer">
		<g id="Layer">
			<path id="Layer" class="s0" d="m684.8 1515.6c-301.9 0-563.1-177-684.7-432.4h16.5c149.8 206 393.7 340 668.2 340 274.5 0 517.6-134 668.2-340h16.4c-122.3 255.4-382.7 431.7-684.6 432.4z"/>
			<path id="_x3C_Tracé_x3E__7_" class="s1" d="m845.6 1348.8c0.7 0 148.2-94.1 150.5-198.3 0.8-44.6-16.4-101-145.8-143.3-236.9-76.8-853.3-200.6-789.8-512.5 12.6-62.6 50.2-131.6 139.6-199 151.4-112.8 300.4-112 300.4-112-79.2 49.4-149 132.4-150.6 198.2-1.6 56.4 29 108.9 207.1 163.8 112.1 34.4 243.9 72.8 403.8 128.5 204.7 71.3 378.1 166.1 342.8 352.5-7.1 40.8-40 97.2-76.9 137.9-97.2 109.7-260.4 181-381.1 184.2z"/>
			<path id="_x3C_Tracé_x3E__4_" class="s2" d="m1304.4 1026.7c35.2-186.4-138.1-281.2-342.8-352.5-160-55.7-291.7-94.1-403.9-128.5-178-54.9-208.6-107.4-207-163.8 1.6-65.8 71.4-148.8 150.6-198.2-115.3 71.3-153.7 139.5-163.9 190.4-14.2 68.9 36 127.7 206.2 181 112.2 35.2 243.9 72.8 403.9 128.5 134.1 47 249.4 96.3 311.4 177.8 56.4 75.2 45.5 165.3 45.5 165.3z"/>
			<path id="_x3C_Tracé_x3E__3_" class="s3" d="m946.7 683.6c193.7 66.6 374.9 154.3 350.6 328.3-12.6 89.3-93.3 124.5-97.3 130 29.1-39.2 33.8-55.6 40.8-92.4 29.8-179.5-130.2-253.9-305.8-311.1-52.6-17.2-116.9-39.2-165.5-54.8-99.6-32.9-75.3-83.1 9.4-56.4 54.9 17.2 119.2 39.1 167.8 56.4z"/>
			<path id="_x3C_Tracé_x3E__2_" class="s4" d="m1200 1141.1c-79.2 108.9-250.9 196.7-353.7 206.1 18.1-10.2 164-94.8 180.4-184.1 15.7-83.9-28.2-139.5-162.3-177.9-27.5-7.8-56.5-16.4-88.6-25.8l159.2-221c175.6 57.2 335.6 131.6 305.8 311.1-7 36-11.7 53.2-40.8 91.6z"/>
			<g id="_x3C_Tracé_x3E__1_" style="opacity: .7">
				<g id="Layer">
					<g id="Layer">
						<path id="Layer" class="s5" d="m847.1 1347.2c0 0-0.8 0 0 0q-1.1 0 0 0z"/>
						<path id="Layer" class="s6" d="m864.4 985.2c-69.8-20.4-155.3-45.4-258-76-78.5-23.5-178.8-58.7-272.2-100.3-249.4-110.4-280.7-243.6-274.5-306.3-49.4 304.8 556.9 427 791.4 503 129.4 42.3 146.6 98.7 145.8 143.4-2.3 101-140.4 191.9-149.8 197.4 19.6-11 163.2-95.6 179.6-184.1 14.9-83.1-29-138.7-162.3-177.1z"/>
					</g>
				</g>
			</g>
			<path id="Layer" class="s7" d="m1369.4 432.8h-16.4c-150.6-206-393.7-340-668.2-340-274.5 0-518.4 134-668.2 340h-16.5c121.6-255.4 382.8-432.4 684.7-432.4 301.9 0 562.3 177 684.6 432.4z"/>
		</g>
	</g>
</svg>